M48
;DRILL file {KiCad 4.0.0-rc2-stable} date 1/25/2016 6:21:09 PM
;FORMAT={-:-/ absolute / metric / decimal}
FMAT,2
METRIC,TZ
T1C0.200
T2C0.300
T3C0.400
T4C0.599
T5C0.700
T6C0.813
T7C0.970
T8C1.001
T9C1.016
T10C1.700
T11C3.048
%
G90
G05
M71
T1
X124.1Y-73.1
T2
X114.15Y-84.825
X114.364Y-83.862
X116.875Y-78.95
X118.169Y-81.879
X118.375Y-83.025
X119.253Y-90.139
X119.751Y-77.273
X120.1Y-82.325
X120.175Y-84.075
X120.2Y-88.55
X120.25Y-89.65
X120.319Y-80.277
X120.425Y-81.1
X121.55Y-91.425
X122.686Y-115.314
X122.834Y-80.36
X123.65Y-89.9
X124.169Y-84.839
X124.379Y-92.316
X124.975Y-96.7
X125.125Y-94.1
X125.2Y-73.25
X127.05Y-110.7
X128.645Y-76.495
X128.658Y-73.415
X129.65Y-91.9
X130.177Y-96.584
X130.725Y-76.1
X132.134Y-94.603
X135.125Y-94.695
X137.144Y-98.025
X137.75Y-91.328
X138.247Y-95.751
X139.35Y-94.125
X140.217Y-86.535
X140.272Y-90.365
X140.297Y-87.376
X141.106Y-89.855
X143.925Y-91.3
X145.412Y-89.283
X146.3Y-73.55
X147.317Y-82.267
X147.95Y-91.775
X148.868Y-80.986
X149.251Y-84.988
X149.342Y-85.591
X149.503Y-86.611
X149.678Y-87.925
X149.713Y-94.472
X150.39Y-111.96
X150.533Y-82.252
X150.575Y-84.842
X150.726Y-78.508
X151.283Y-88.491
X151.295Y-87.617
X152.082Y-88.444
X152.416Y-85.472
X152.458Y-91.605
X152.948Y-112.437
X153.74Y-85.063
X153.755Y-84.244
X153.968Y-110.849
X154.055Y-95.204
X154.346Y-115.753
X155.045Y-94.108
X155.162Y-82.503
X155.303Y-83.606
X155.41Y-95.316
X155.713Y-114.117
X155.794Y-85.75
X156.065Y-116.719
X156.12Y-96.757
X156.136Y-82.149
X156.176Y-97.855
X156.314Y-87.885
X156.45Y-90.575
X156.495Y-95.304
X156.498Y-94.
X156.577Y-87.31
X156.715Y-114.875
X156.785Y-96.766
X156.802Y-86.341
X156.835Y-115.706
X157.156Y-81.899
X157.307Y-84.53
X157.733Y-112.753
X157.837Y-87.86
X158.165Y-93.821
X158.305Y-83.51
X158.349Y-111.239
X158.535Y-80.645
X158.723Y-92.476
X158.89Y-96.386
X159.47Y-106.12
X160.367Y-94.909
X162.331Y-101.5
X162.849Y-77.592
X167.3Y-76.175
X168.455Y-102.674
X168.664Y-113.964
X169.3Y-107.175
T3
X115.675Y-104.125
X116.625Y-89.5
X119.575Y-85.925
X120.196Y-83.24
X120.95Y-116.1
X122.9Y-73.5
X123.425Y-78.5
X124.225Y-77.45
X124.525Y-85.6
X124.625Y-87.9
X124.725Y-89.375
X125.04Y-101.32
X125.325Y-76.625
X126.104Y-106.099
X126.25Y-114.85
X126.425Y-106.9
X126.85Y-78.726
X127.467Y-82.29
X128.825Y-100.675
X129.325Y-108.525
X129.425Y-82.058
X129.984Y-88.746
X130.03Y-99.08
X130.651Y-114.3
X130.693Y-100.939
X131.384Y-93.878
X131.46Y-81.1
X131.575Y-85.95
X132.1Y-98.118
X132.123Y-79.188
X132.149Y-93.005
X134.725Y-108.775
X135.111Y-114.989
X135.725Y-100.45
X136.73Y-87.926
X137.39Y-78.01
X137.7Y-81.825
X137.818Y-98.144
X137.825Y-93.
X137.85Y-104.325
X137.968Y-88.64
X137.979Y-86.433
X138.97Y-82.619
X139.17Y-107.979
X139.525Y-109.65
X140.296Y-88.912
X140.776Y-91.853
X141.124Y-88.01
X141.2Y-83.5
X141.349Y-85.389
X141.43Y-77.17
X144.234Y-89.237
X144.253Y-84.695
X144.625Y-103.225
X145.437Y-91.88
X147.979Y-95.711
X148.738Y-114.315
X148.925Y-101.491
X150.639Y-101.491
X150.712Y-97.294
X151.275Y-77.4
X151.35Y-114.2
X151.957Y-108.859
X151.975Y-104.325
X152.019Y-115.525
X152.9Y-106.611
X153.477Y-99.873
X154.249Y-108.906
X155.039Y-117.776
X157.125Y-98.439
X157.355Y-99.213
X157.575Y-117.775
X159.65Y-78.325
X160.033Y-117.792
X160.878Y-82.147
X161.65Y-85.725
X162.367Y-79.126
X162.65Y-117.725
X163.007Y-91.22
X163.09Y-107.152
X164.439Y-90.128
X164.475Y-92.14
X165.475Y-116.725
X166.675Y-105.725
X166.907Y-102.605
X168.1Y-89.8
X168.215Y-98.715
X169.525Y-85.975
X173.122Y-88.037
X174.08Y-89.144
X174.675Y-100.575
X175.1Y-102.675
T4
X144.18Y-81.645
X144.18Y-83.144
T5
X117.23Y-107.87
X119.23Y-107.87
X139.01Y-121.295
X139.01Y-123.835
X141.55Y-121.295
X141.55Y-123.835
X144.09Y-121.295
X144.09Y-123.835
X146.63Y-121.295
X146.63Y-123.835
X155.03Y-121.29
X155.03Y-123.83
X157.57Y-121.29
X157.57Y-123.83
X160.11Y-121.29
X160.11Y-123.83
X162.65Y-121.29
X162.65Y-123.83
X165.52Y-121.265
X165.52Y-123.805
X168.06Y-121.265
X168.06Y-123.805
X168.215Y-91.095
X168.215Y-93.635
X168.215Y-96.175
X168.215Y-98.715
X170.6Y-121.265
X170.6Y-123.805
X170.755Y-91.095
X170.755Y-93.635
X170.755Y-96.175
X170.755Y-98.715
X173.14Y-121.265
X173.14Y-123.805
T6
X126.921Y-116.493
X126.921Y-119.033
X126.921Y-121.573
T7
X167.515Y-80.405
X167.515Y-84.215
T9
X123.246Y-106.628
X123.246Y-109.168
T10
X111.98Y-88.32
X111.98Y-95.32
T11
X131.83Y-121.895
X155.38Y-73.67
T8
X112.431Y-116.044G85X112.431Y-114.045
G05
X116.131Y-112.045G85X118.129Y-112.045
G05
X116.131Y-118.044G85X118.129Y-118.044
G05
T0
M30
