G04 #@! TF.FileFunction,Soldermask,Top*
%FSLAX46Y46*%
G04 Gerber Fmt 4.6, Leading zero omitted, Abs format (unit mm)*
G04 Created by KiCad (PCBNEW 4.0.0-rc2-stable) date 1/25/2016 6:21:02 PM*
%MOMM*%
G01*
G04 APERTURE LIST*
%ADD10C,0.100000*%
%ADD11C,0.150000*%
%ADD12C,0.300000*%
%ADD13C,0.400000*%
%ADD14C,4.464000*%
%ADD15R,3.900120X3.900120*%
%ADD16R,1.300000X0.900000*%
%ADD17R,1.150000X1.200000*%
%ADD18R,0.900000X1.300000*%
%ADD19R,1.200000X0.600000*%
%ADD20R,1.500000X0.600000*%
%ADD21R,0.650000X1.500000*%
%ADD22R,0.650000X1.200000*%
%ADD23R,0.650000X1.100000*%
%ADD24R,2.350000X1.500000*%
%ADD25R,0.908000X1.543000*%
%ADD26R,1.900000X1.000000*%
%ADD27R,1.200000X1.150000*%
%ADD28R,1.797000X1.797000*%
%ADD29C,1.797000*%
%ADD30R,2.432000X2.432000*%
%ADD31O,2.432000X2.432000*%
%ADD32R,3.190000X1.140000*%
%ADD33C,1.370000*%
%ADD34C,1.400760*%
%ADD35R,1.200100X1.200100*%
%ADD36R,1.400000X0.650000*%
%ADD37R,0.650000X1.400000*%
%ADD38R,2.900000X1.400000*%
%ADD39R,1.901140X1.400760*%
%ADD40R,3.399740X2.398980*%
%ADD41R,1.600000X2.100000*%
%ADD42O,1.600000X2.100000*%
%ADD43C,1.500000*%
%ADD44R,0.900000X1.000000*%
%ADD45R,1.650000X1.400000*%
%ADD46R,1.000000X0.900000*%
%ADD47R,0.800000X1.000000*%
%ADD48R,1.000000X0.800000*%
%ADD49R,1.500000X1.900000*%
%ADD50R,1.543000X0.908000*%
%ADD51R,0.750000X1.950000*%
%ADD52R,2.290000X1.970000*%
%ADD53C,2.100000*%
G04 APERTURE END LIST*
D10*
D11*
X159400000Y-171900000D02*
X159400000Y-203900000D01*
X267400000Y-203900000D01*
X267400000Y-171900000D01*
X159400000Y-171900000D01*
D10*
D11*
X10000000Y-10000000D02*
X10000000Y-205900000D01*
X269400000Y-205900000D01*
X269400000Y-10000000D01*
X10000000Y-10000000D01*
D10*
D11*
X12000000Y-12000000D02*
X12000000Y-203900000D01*
X267400000Y-203900000D01*
X267400000Y-12000000D01*
X12000000Y-12000000D01*
D10*
D11*
X60000000Y-12000000D02*
X60000000Y-10000000D01*
D10*
D11*
X110000000Y-12000000D02*
X110000000Y-10000000D01*
D10*
D11*
X160000000Y-12000000D02*
X160000000Y-10000000D01*
D10*
D11*
X210000000Y-12000000D02*
X210000000Y-10000000D01*
D10*
D11*
X260000000Y-12000000D02*
X260000000Y-10000000D01*
D10*
D11*
X35990476Y-11588095D02*
X35247619Y-11588095D01*
X35619048Y-11588095D02*
X35619048Y-10288095D01*
X35495238Y-10473810D01*
X35371429Y-10597619D01*
X35247619Y-10659524D01*
D10*
D11*
X85247619Y-10411905D02*
X85309524Y-10350000D01*
X85433333Y-10288095D01*
X85742857Y-10288095D01*
X85866667Y-10350000D01*
X85928571Y-10411905D01*
X85990476Y-10535714D01*
X85990476Y-10659524D01*
X85928571Y-10845238D01*
X85185714Y-11588095D01*
X85990476Y-11588095D01*
D10*
D11*
X135185714Y-10288095D02*
X135990476Y-10288095D01*
X135557143Y-10783333D01*
X135742857Y-10783333D01*
X135866667Y-10845238D01*
X135928571Y-10907143D01*
X135990476Y-11030952D01*
X135990476Y-11340476D01*
X135928571Y-11464286D01*
X135866667Y-11526190D01*
X135742857Y-11588095D01*
X135371429Y-11588095D01*
X135247619Y-11526190D01*
X135185714Y-11464286D01*
D10*
D11*
X185866667Y-10721429D02*
X185866667Y-11588095D01*
X185557143Y-10226190D02*
X185247619Y-11154762D01*
X186052381Y-11154762D01*
D10*
D11*
X235928571Y-10288095D02*
X235309524Y-10288095D01*
X235247619Y-10907143D01*
X235309524Y-10845238D01*
X235433333Y-10783333D01*
X235742857Y-10783333D01*
X235866667Y-10845238D01*
X235928571Y-10907143D01*
X235990476Y-11030952D01*
X235990476Y-11340476D01*
X235928571Y-11464286D01*
X235866667Y-11526190D01*
X235742857Y-11588095D01*
X235433333Y-11588095D01*
X235309524Y-11526190D01*
X235247619Y-11464286D01*
D10*
D11*
X60000000Y-203900000D02*
X60000000Y-205900000D01*
D10*
D11*
X110000000Y-203900000D02*
X110000000Y-205900000D01*
D10*
D11*
X160000000Y-203900000D02*
X160000000Y-205900000D01*
D10*
D11*
X210000000Y-203900000D02*
X210000000Y-205900000D01*
D10*
D11*
X260000000Y-203900000D02*
X260000000Y-205900000D01*
D10*
D11*
X35990476Y-205488095D02*
X35247619Y-205488095D01*
X35619048Y-205488095D02*
X35619048Y-204188095D01*
X35495238Y-204373810D01*
X35371429Y-204497619D01*
X35247619Y-204559524D01*
D10*
D11*
X85247619Y-204311905D02*
X85309524Y-204250000D01*
X85433333Y-204188095D01*
X85742857Y-204188095D01*
X85866667Y-204250000D01*
X85928571Y-204311905D01*
X85990476Y-204435714D01*
X85990476Y-204559524D01*
X85928571Y-204745238D01*
X85185714Y-205488095D01*
X85990476Y-205488095D01*
D10*
D11*
X135185714Y-204188095D02*
X135990476Y-204188095D01*
X135557143Y-204683333D01*
X135742857Y-204683333D01*
X135866667Y-204745238D01*
X135928571Y-204807143D01*
X135990476Y-204930952D01*
X135990476Y-205240476D01*
X135928571Y-205364286D01*
X135866667Y-205426190D01*
X135742857Y-205488095D01*
X135371429Y-205488095D01*
X135247619Y-205426190D01*
X135185714Y-205364286D01*
D10*
D11*
X185866667Y-204621429D02*
X185866667Y-205488095D01*
X185557143Y-204126190D02*
X185247619Y-205054762D01*
X186052381Y-205054762D01*
D10*
D11*
X235928571Y-204188095D02*
X235309524Y-204188095D01*
X235247619Y-204807143D01*
X235309524Y-204745238D01*
X235433333Y-204683333D01*
X235742857Y-204683333D01*
X235866667Y-204745238D01*
X235928571Y-204807143D01*
X235990476Y-204930952D01*
X235990476Y-205240476D01*
X235928571Y-205364286D01*
X235866667Y-205426190D01*
X235742857Y-205488095D01*
X235433333Y-205488095D01*
X235309524Y-205426190D01*
X235247619Y-205364286D01*
D10*
D11*
X10000000Y-60000000D02*
X12000000Y-60000000D01*
D10*
D11*
X10000000Y-110000000D02*
X12000000Y-110000000D01*
D10*
D11*
X10000000Y-160000000D02*
X12000000Y-160000000D01*
D10*
D11*
X10690476Y-35216667D02*
X11309524Y-35216667D01*
X10566667Y-35588095D02*
X11000000Y-34288095D01*
X11433333Y-35588095D01*
D10*
D11*
X11092857Y-84907143D02*
X11278571Y-84969048D01*
X11340476Y-85030952D01*
X11402381Y-85154762D01*
X11402381Y-85340476D01*
X11340476Y-85464286D01*
X11278571Y-85526190D01*
X11154762Y-85588095D01*
X10659524Y-85588095D01*
X10659524Y-84288095D01*
X11092857Y-84288095D01*
X11216667Y-84350000D01*
X11278571Y-84411905D01*
X11340476Y-84535714D01*
X11340476Y-84659524D01*
X11278571Y-84783333D01*
X11216667Y-84845238D01*
X11092857Y-84907143D01*
X10659524Y-84907143D01*
D10*
D11*
X11402381Y-135464286D02*
X11340476Y-135526190D01*
X11154762Y-135588095D01*
X11030952Y-135588095D01*
X10845238Y-135526190D01*
X10721429Y-135402381D01*
X10659524Y-135278571D01*
X10597619Y-135030952D01*
X10597619Y-134845238D01*
X10659524Y-134597619D01*
X10721429Y-134473810D01*
X10845238Y-134350000D01*
X11030952Y-134288095D01*
X11154762Y-134288095D01*
X11340476Y-134350000D01*
X11402381Y-134411905D01*
D10*
D11*
X10659524Y-185588095D02*
X10659524Y-184288095D01*
X10969048Y-184288095D01*
X11154762Y-184350000D01*
X11278571Y-184473810D01*
X11340476Y-184597619D01*
X11402381Y-184845238D01*
X11402381Y-185030952D01*
X11340476Y-185278571D01*
X11278571Y-185402381D01*
X11154762Y-185526190D01*
X10969048Y-185588095D01*
X10659524Y-185588095D01*
D10*
D11*
X269400000Y-60000000D02*
X267400000Y-60000000D01*
D10*
D11*
X269400000Y-110000000D02*
X267400000Y-110000000D01*
D10*
D11*
X269400000Y-160000000D02*
X267400000Y-160000000D01*
D10*
D11*
X268090476Y-35216667D02*
X268709524Y-35216667D01*
X267966667Y-35588095D02*
X268400000Y-34288095D01*
X268833333Y-35588095D01*
D10*
D11*
X268492857Y-84907143D02*
X268678571Y-84969048D01*
X268740476Y-85030952D01*
X268802381Y-85154762D01*
X268802381Y-85340476D01*
X268740476Y-85464286D01*
X268678571Y-85526190D01*
X268554762Y-85588095D01*
X268059524Y-85588095D01*
X268059524Y-84288095D01*
X268492857Y-84288095D01*
X268616667Y-84350000D01*
X268678571Y-84411905D01*
X268740476Y-84535714D01*
X268740476Y-84659524D01*
X268678571Y-84783333D01*
X268616667Y-84845238D01*
X268492857Y-84907143D01*
X268059524Y-84907143D01*
D10*
D11*
X268802381Y-135464286D02*
X268740476Y-135526190D01*
X268554762Y-135588095D01*
X268430952Y-135588095D01*
X268245238Y-135526190D01*
X268121429Y-135402381D01*
X268059524Y-135278571D01*
X267997619Y-135030952D01*
X267997619Y-134845238D01*
X268059524Y-134597619D01*
X268121429Y-134473810D01*
X268245238Y-134350000D01*
X268430952Y-134288095D01*
X268554762Y-134288095D01*
X268740476Y-134350000D01*
X268802381Y-134411905D01*
D10*
D11*
X268059524Y-185588095D02*
X268059524Y-184288095D01*
X268369048Y-184288095D01*
X268554762Y-184350000D01*
X268678571Y-184473810D01*
X268740476Y-184597619D01*
X268802381Y-184845238D01*
X268802381Y-185030952D01*
X268740476Y-185278571D01*
X268678571Y-185402381D01*
X268554762Y-185526190D01*
X268369048Y-185588095D01*
X268059524Y-185588095D01*
D10*
D11*
X182757143Y-199678571D02*
X182757143Y-198178571D01*
X183114286Y-198178571D01*
X183328571Y-198250000D01*
X183471429Y-198392857D01*
X183542857Y-198535714D01*
X183614286Y-198821429D01*
X183614286Y-199035714D01*
X183542857Y-199321429D01*
X183471429Y-199464286D01*
X183328571Y-199607143D01*
X183114286Y-199678571D01*
X182757143Y-199678571D01*
X184900000Y-199678571D02*
X184900000Y-198892857D01*
X184828571Y-198750000D01*
X184685714Y-198678571D01*
X184400000Y-198678571D01*
X184257143Y-198750000D01*
X184900000Y-199607143D02*
X184757143Y-199678571D01*
X184400000Y-199678571D01*
X184257143Y-199607143D01*
X184185714Y-199464286D01*
X184185714Y-199321429D01*
X184257143Y-199178571D01*
X184400000Y-199107143D01*
X184757143Y-199107143D01*
X184900000Y-199035714D01*
X185400000Y-198678571D02*
X185971429Y-198678571D01*
X185614286Y-198178571D02*
X185614286Y-199464286D01*
X185685714Y-199607143D01*
X185828572Y-199678571D01*
X185971429Y-199678571D01*
X187042857Y-199607143D02*
X186900000Y-199678571D01*
X186614286Y-199678571D01*
X186471429Y-199607143D01*
X186400000Y-199464286D01*
X186400000Y-198892857D01*
X186471429Y-198750000D01*
X186614286Y-198678571D01*
X186900000Y-198678571D01*
X187042857Y-198750000D01*
X187114286Y-198892857D01*
X187114286Y-199035714D01*
X186400000Y-199178571D01*
X187757143Y-199535714D02*
X187828571Y-199607143D01*
X187757143Y-199678571D01*
X187685714Y-199607143D01*
X187757143Y-199535714D01*
X187757143Y-199678571D01*
X187757143Y-198750000D02*
X187828571Y-198821429D01*
X187757143Y-198892857D01*
X187685714Y-198821429D01*
X187757143Y-198750000D01*
X187757143Y-198892857D01*
D10*
D11*
X159400000Y-200400000D02*
X267400000Y-200400000D01*
D10*
D11*
X160757143Y-202478571D02*
X160757143Y-200978571D01*
X161614286Y-202478571D02*
X160971429Y-201621429D01*
X161614286Y-200978571D02*
X160757143Y-201835714D01*
X162257143Y-202478571D02*
X162257143Y-201478571D01*
X162257143Y-200978571D02*
X162185714Y-201050000D01*
X162257143Y-201121429D01*
X162328571Y-201050000D01*
X162257143Y-200978571D01*
X162257143Y-201121429D01*
X163828572Y-202335714D02*
X163757143Y-202407143D01*
X163542857Y-202478571D01*
X163400000Y-202478571D01*
X163185715Y-202407143D01*
X163042857Y-202264286D01*
X162971429Y-202121429D01*
X162900000Y-201835714D01*
X162900000Y-201621429D01*
X162971429Y-201335714D01*
X163042857Y-201192857D01*
X163185715Y-201050000D01*
X163400000Y-200978571D01*
X163542857Y-200978571D01*
X163757143Y-201050000D01*
X163828572Y-201121429D01*
X165114286Y-202478571D02*
X165114286Y-201692857D01*
X165042857Y-201550000D01*
X164900000Y-201478571D01*
X164614286Y-201478571D01*
X164471429Y-201550000D01*
X165114286Y-202407143D02*
X164971429Y-202478571D01*
X164614286Y-202478571D01*
X164471429Y-202407143D01*
X164400000Y-202264286D01*
X164400000Y-202121429D01*
X164471429Y-201978571D01*
X164614286Y-201907143D01*
X164971429Y-201907143D01*
X165114286Y-201835714D01*
X166471429Y-202478571D02*
X166471429Y-200978571D01*
X166471429Y-202407143D02*
X166328572Y-202478571D01*
X166042858Y-202478571D01*
X165900000Y-202407143D01*
X165828572Y-202335714D01*
X165757143Y-202192857D01*
X165757143Y-201764286D01*
X165828572Y-201621429D01*
X165900000Y-201550000D01*
X166042858Y-201478571D01*
X166328572Y-201478571D01*
X166471429Y-201550000D01*
X168328572Y-201692857D02*
X168828572Y-201692857D01*
X169042858Y-202478571D02*
X168328572Y-202478571D01*
X168328572Y-200978571D01*
X169042858Y-200978571D01*
X169685715Y-202335714D02*
X169757143Y-202407143D01*
X169685715Y-202478571D01*
X169614286Y-202407143D01*
X169685715Y-202335714D01*
X169685715Y-202478571D01*
X170400001Y-202478571D02*
X170400001Y-200978571D01*
X170757144Y-200978571D01*
X170971429Y-201050000D01*
X171114287Y-201192857D01*
X171185715Y-201335714D01*
X171257144Y-201621429D01*
X171257144Y-201835714D01*
X171185715Y-202121429D01*
X171114287Y-202264286D01*
X170971429Y-202407143D01*
X170757144Y-202478571D01*
X170400001Y-202478571D01*
X171900001Y-202335714D02*
X171971429Y-202407143D01*
X171900001Y-202478571D01*
X171828572Y-202407143D01*
X171900001Y-202335714D01*
X171900001Y-202478571D01*
X172542858Y-202050000D02*
X173257144Y-202050000D01*
X172400001Y-202478571D02*
X172900001Y-200978571D01*
X173400001Y-202478571D01*
X173900001Y-202335714D02*
X173971429Y-202407143D01*
X173900001Y-202478571D01*
X173828572Y-202407143D01*
X173900001Y-202335714D01*
X173900001Y-202478571D01*
X176900001Y-202478571D02*
X176900001Y-200978571D01*
X177042858Y-201907143D02*
X177471429Y-202478571D01*
X177471429Y-201478571D02*
X176900001Y-202050000D01*
X178114287Y-202478571D02*
X178114287Y-201478571D01*
X178114287Y-200978571D02*
X178042858Y-201050000D01*
X178114287Y-201121429D01*
X178185715Y-201050000D01*
X178114287Y-200978571D01*
X178114287Y-201121429D01*
X179471430Y-202407143D02*
X179328573Y-202478571D01*
X179042859Y-202478571D01*
X178900001Y-202407143D01*
X178828573Y-202335714D01*
X178757144Y-202192857D01*
X178757144Y-201764286D01*
X178828573Y-201621429D01*
X178900001Y-201550000D01*
X179042859Y-201478571D01*
X179328573Y-201478571D01*
X179471430Y-201550000D01*
X180757144Y-202478571D02*
X180757144Y-201692857D01*
X180685715Y-201550000D01*
X180542858Y-201478571D01*
X180257144Y-201478571D01*
X180114287Y-201550000D01*
X180757144Y-202407143D02*
X180614287Y-202478571D01*
X180257144Y-202478571D01*
X180114287Y-202407143D01*
X180042858Y-202264286D01*
X180042858Y-202121429D01*
X180114287Y-201978571D01*
X180257144Y-201907143D01*
X180614287Y-201907143D01*
X180757144Y-201835714D01*
X182114287Y-202478571D02*
X182114287Y-200978571D01*
X182114287Y-202407143D02*
X181971430Y-202478571D01*
X181685716Y-202478571D01*
X181542858Y-202407143D01*
X181471430Y-202335714D01*
X181400001Y-202192857D01*
X181400001Y-201764286D01*
X181471430Y-201621429D01*
X181542858Y-201550000D01*
X181685716Y-201478571D01*
X181971430Y-201478571D01*
X182114287Y-201550000D01*
X184614287Y-201478571D02*
X184614287Y-202478571D01*
X184257144Y-200907143D02*
X183900001Y-201978571D01*
X184828573Y-201978571D01*
X185400001Y-202335714D02*
X185471429Y-202407143D01*
X185400001Y-202478571D01*
X185328572Y-202407143D01*
X185400001Y-202335714D01*
X185400001Y-202478571D01*
X186400001Y-200978571D02*
X186542858Y-200978571D01*
X186685715Y-201050000D01*
X186757144Y-201121429D01*
X186828573Y-201264286D01*
X186900001Y-201550000D01*
X186900001Y-201907143D01*
X186828573Y-202192857D01*
X186757144Y-202335714D01*
X186685715Y-202407143D01*
X186542858Y-202478571D01*
X186400001Y-202478571D01*
X186257144Y-202407143D01*
X186185715Y-202335714D01*
X186114287Y-202192857D01*
X186042858Y-201907143D01*
X186042858Y-201550000D01*
X186114287Y-201264286D01*
X186185715Y-201121429D01*
X186257144Y-201050000D01*
X186400001Y-200978571D01*
X187542858Y-202335714D02*
X187614286Y-202407143D01*
X187542858Y-202478571D01*
X187471429Y-202407143D01*
X187542858Y-202335714D01*
X187542858Y-202478571D01*
X188542858Y-200978571D02*
X188685715Y-200978571D01*
X188828572Y-201050000D01*
X188900001Y-201121429D01*
X188971430Y-201264286D01*
X189042858Y-201550000D01*
X189042858Y-201907143D01*
X188971430Y-202192857D01*
X188900001Y-202335714D01*
X188828572Y-202407143D01*
X188685715Y-202478571D01*
X188542858Y-202478571D01*
X188400001Y-202407143D01*
X188328572Y-202335714D01*
X188257144Y-202192857D01*
X188185715Y-201907143D01*
X188185715Y-201550000D01*
X188257144Y-201264286D01*
X188328572Y-201121429D01*
X188400001Y-201050000D01*
X188542858Y-200978571D01*
X189685715Y-201907143D02*
X190828572Y-201907143D01*
X191542858Y-202478571D02*
X191542858Y-201478571D01*
X191542858Y-201764286D02*
X191614286Y-201621429D01*
X191685715Y-201550000D01*
X191828572Y-201478571D01*
X191971429Y-201478571D01*
X193114286Y-202407143D02*
X192971429Y-202478571D01*
X192685715Y-202478571D01*
X192542857Y-202407143D01*
X192471429Y-202335714D01*
X192400000Y-202192857D01*
X192400000Y-201764286D01*
X192471429Y-201621429D01*
X192542857Y-201550000D01*
X192685715Y-201478571D01*
X192971429Y-201478571D01*
X193114286Y-201550000D01*
X193685714Y-201121429D02*
X193757143Y-201050000D01*
X193900000Y-200978571D01*
X194257143Y-200978571D01*
X194400000Y-201050000D01*
X194471429Y-201121429D01*
X194542857Y-201264286D01*
X194542857Y-201407143D01*
X194471429Y-201621429D01*
X193614286Y-202478571D01*
X194542857Y-202478571D01*
X195185714Y-201907143D02*
X196328571Y-201907143D01*
X196971428Y-202407143D02*
X197114285Y-202478571D01*
X197400000Y-202478571D01*
X197542857Y-202407143D01*
X197614285Y-202264286D01*
X197614285Y-202192857D01*
X197542857Y-202050000D01*
X197400000Y-201978571D01*
X197185714Y-201978571D01*
X197042857Y-201907143D01*
X196971428Y-201764286D01*
X196971428Y-201692857D01*
X197042857Y-201550000D01*
X197185714Y-201478571D01*
X197400000Y-201478571D01*
X197542857Y-201550000D01*
X198042857Y-201478571D02*
X198614286Y-201478571D01*
X198257143Y-200978571D02*
X198257143Y-202264286D01*
X198328571Y-202407143D01*
X198471429Y-202478571D01*
X198614286Y-202478571D01*
X199757143Y-202478571D02*
X199757143Y-201692857D01*
X199685714Y-201550000D01*
X199542857Y-201478571D01*
X199257143Y-201478571D01*
X199114286Y-201550000D01*
X199757143Y-202407143D02*
X199614286Y-202478571D01*
X199257143Y-202478571D01*
X199114286Y-202407143D01*
X199042857Y-202264286D01*
X199042857Y-202121429D01*
X199114286Y-201978571D01*
X199257143Y-201907143D01*
X199614286Y-201907143D01*
X199757143Y-201835714D01*
X200471429Y-202478571D02*
X200471429Y-200978571D01*
X200471429Y-201550000D02*
X200614286Y-201478571D01*
X200900000Y-201478571D01*
X201042857Y-201550000D01*
X201114286Y-201621429D01*
X201185715Y-201764286D01*
X201185715Y-202192857D01*
X201114286Y-202335714D01*
X201042857Y-202407143D01*
X200900000Y-202478571D01*
X200614286Y-202478571D01*
X200471429Y-202407143D01*
X202042858Y-202478571D02*
X201900000Y-202407143D01*
X201828572Y-202264286D01*
X201828572Y-200978571D01*
X203185714Y-202407143D02*
X203042857Y-202478571D01*
X202757143Y-202478571D01*
X202614286Y-202407143D01*
X202542857Y-202264286D01*
X202542857Y-201692857D01*
X202614286Y-201550000D01*
X202757143Y-201478571D01*
X203042857Y-201478571D01*
X203185714Y-201550000D01*
X203257143Y-201692857D01*
X203257143Y-201835714D01*
X202542857Y-201978571D01*
D10*
D11*
X159400000Y-197400000D02*
X267400000Y-197400000D01*
D10*
D12*
X246614286Y-199678571D02*
X246114286Y-198964286D01*
X245757143Y-199678571D02*
X245757143Y-198178571D01*
X246328571Y-198178571D01*
X246471429Y-198250000D01*
X246542857Y-198321429D01*
X246614286Y-198464286D01*
X246614286Y-198678571D01*
X246542857Y-198821429D01*
X246471429Y-198892857D01*
X246328571Y-198964286D01*
X245757143Y-198964286D01*
X247828571Y-199607143D02*
X247685714Y-199678571D01*
X247400000Y-199678571D01*
X247257143Y-199607143D01*
X247185714Y-199464286D01*
X247185714Y-198892857D01*
X247257143Y-198750000D01*
X247400000Y-198678571D01*
X247685714Y-198678571D01*
X247828571Y-198750000D01*
X247900000Y-198892857D01*
X247900000Y-199035714D01*
X247185714Y-199178571D01*
X248400000Y-198678571D02*
X248757143Y-199678571D01*
X249114285Y-198678571D01*
X249685714Y-199535714D02*
X249757142Y-199607143D01*
X249685714Y-199678571D01*
X249614285Y-199607143D01*
X249685714Y-199535714D01*
X249685714Y-199678571D01*
X249685714Y-198750000D02*
X249757142Y-198821429D01*
X249685714Y-198892857D01*
X249614285Y-198821429D01*
X249685714Y-198750000D01*
X249685714Y-198892857D01*
D10*
D11*
X160685714Y-199607143D02*
X160900000Y-199678571D01*
X161257143Y-199678571D01*
X161400000Y-199607143D01*
X161471429Y-199535714D01*
X161542857Y-199392857D01*
X161542857Y-199250000D01*
X161471429Y-199107143D01*
X161400000Y-199035714D01*
X161257143Y-198964286D01*
X160971429Y-198892857D01*
X160828571Y-198821429D01*
X160757143Y-198750000D01*
X160685714Y-198607143D01*
X160685714Y-198464286D01*
X160757143Y-198321429D01*
X160828571Y-198250000D01*
X160971429Y-198178571D01*
X161328571Y-198178571D01*
X161542857Y-198250000D01*
X162185714Y-199678571D02*
X162185714Y-198678571D01*
X162185714Y-198178571D02*
X162114285Y-198250000D01*
X162185714Y-198321429D01*
X162257142Y-198250000D01*
X162185714Y-198178571D01*
X162185714Y-198321429D01*
X162757143Y-198678571D02*
X163542857Y-198678571D01*
X162757143Y-199678571D01*
X163542857Y-199678571D01*
X164685714Y-199607143D02*
X164542857Y-199678571D01*
X164257143Y-199678571D01*
X164114286Y-199607143D01*
X164042857Y-199464286D01*
X164042857Y-198892857D01*
X164114286Y-198750000D01*
X164257143Y-198678571D01*
X164542857Y-198678571D01*
X164685714Y-198750000D01*
X164757143Y-198892857D01*
X164757143Y-199035714D01*
X164042857Y-199178571D01*
X165400000Y-199535714D02*
X165471428Y-199607143D01*
X165400000Y-199678571D01*
X165328571Y-199607143D01*
X165400000Y-199535714D01*
X165400000Y-199678571D01*
X165400000Y-198750000D02*
X165471428Y-198821429D01*
X165400000Y-198892857D01*
X165328571Y-198821429D01*
X165400000Y-198750000D01*
X165400000Y-198892857D01*
X167185714Y-199250000D02*
X167900000Y-199250000D01*
X167042857Y-199678571D02*
X167542857Y-198178571D01*
X168042857Y-199678571D01*
D10*
D11*
X245757143Y-202478571D02*
X245757143Y-200978571D01*
X247114286Y-202478571D02*
X247114286Y-200978571D01*
X247114286Y-202407143D02*
X246971429Y-202478571D01*
X246685715Y-202478571D01*
X246542857Y-202407143D01*
X246471429Y-202335714D01*
X246400000Y-202192857D01*
X246400000Y-201764286D01*
X246471429Y-201621429D01*
X246542857Y-201550000D01*
X246685715Y-201478571D01*
X246971429Y-201478571D01*
X247114286Y-201550000D01*
X247828572Y-202335714D02*
X247900000Y-202407143D01*
X247828572Y-202478571D01*
X247757143Y-202407143D01*
X247828572Y-202335714D01*
X247828572Y-202478571D01*
X247828572Y-201550000D02*
X247900000Y-201621429D01*
X247828572Y-201692857D01*
X247757143Y-201621429D01*
X247828572Y-201550000D01*
X247828572Y-201692857D01*
X250471429Y-202478571D02*
X249614286Y-202478571D01*
X250042858Y-202478571D02*
X250042858Y-200978571D01*
X249900001Y-201192857D01*
X249757143Y-201335714D01*
X249614286Y-201407143D01*
X252185714Y-200907143D02*
X250900000Y-202835714D01*
X253471429Y-202478571D02*
X252614286Y-202478571D01*
X253042858Y-202478571D02*
X253042858Y-200978571D01*
X252900001Y-201192857D01*
X252757143Y-201335714D01*
X252614286Y-201407143D01*
D10*
D11*
X159400000Y-193400000D02*
X267400000Y-193400000D01*
D10*
D13*
X160852381Y-194104762D02*
X161995238Y-194104762D01*
X161173810Y-196104762D02*
X161423810Y-194104762D01*
X162411905Y-196104762D02*
X162578571Y-194771429D01*
X162661905Y-194104762D02*
X162554762Y-194200000D01*
X162638095Y-194295238D01*
X162745239Y-194200000D01*
X162661905Y-194104762D01*
X162638095Y-194295238D01*
X163245238Y-194771429D02*
X164007143Y-194771429D01*
X163614286Y-194104762D02*
X163400000Y-195819048D01*
X163471430Y-196009524D01*
X163650001Y-196104762D01*
X163840477Y-196104762D01*
X164792858Y-196104762D02*
X164614287Y-196009524D01*
X164542857Y-195819048D01*
X164757143Y-194104762D01*
X166328572Y-196009524D02*
X166126191Y-196104762D01*
X165745239Y-196104762D01*
X165566667Y-196009524D01*
X165495238Y-195819048D01*
X165590476Y-195057143D01*
X165709524Y-194866667D01*
X165911905Y-194771429D01*
X166292857Y-194771429D01*
X166471429Y-194866667D01*
X166542857Y-195057143D01*
X166519048Y-195247619D01*
X165542857Y-195438095D01*
X167292857Y-195914286D02*
X167376192Y-196009524D01*
X167269048Y-196104762D01*
X167185715Y-196009524D01*
X167292857Y-195914286D01*
X167269048Y-196104762D01*
X167423810Y-194866667D02*
X167507144Y-194961905D01*
X167400000Y-195057143D01*
X167316667Y-194961905D01*
X167423810Y-194866667D01*
X167400000Y-195057143D01*
D10*
D11*
X161257143Y-191492857D02*
X160757143Y-191492857D01*
X160757143Y-192278571D02*
X160757143Y-190778571D01*
X161471429Y-190778571D01*
X162042857Y-192278571D02*
X162042857Y-191278571D01*
X162042857Y-190778571D02*
X161971428Y-190850000D01*
X162042857Y-190921429D01*
X162114285Y-190850000D01*
X162042857Y-190778571D01*
X162042857Y-190921429D01*
X162971429Y-192278571D02*
X162828571Y-192207143D01*
X162757143Y-192064286D01*
X162757143Y-190778571D01*
X164114285Y-192207143D02*
X163971428Y-192278571D01*
X163685714Y-192278571D01*
X163542857Y-192207143D01*
X163471428Y-192064286D01*
X163471428Y-191492857D01*
X163542857Y-191350000D01*
X163685714Y-191278571D01*
X163971428Y-191278571D01*
X164114285Y-191350000D01*
X164185714Y-191492857D01*
X164185714Y-191635714D01*
X163471428Y-191778571D01*
X164828571Y-192135714D02*
X164899999Y-192207143D01*
X164828571Y-192278571D01*
X164757142Y-192207143D01*
X164828571Y-192135714D01*
X164828571Y-192278571D01*
X164828571Y-191350000D02*
X164899999Y-191421429D01*
X164828571Y-191492857D01*
X164757142Y-191421429D01*
X164828571Y-191350000D01*
X164828571Y-191492857D01*
X166542857Y-190778571D02*
X166900000Y-192278571D01*
X167185714Y-191207143D01*
X167471428Y-192278571D01*
X167828571Y-190778571D01*
X168400000Y-192278571D02*
X168400000Y-191278571D01*
X168400000Y-190778571D02*
X168328571Y-190850000D01*
X168400000Y-190921429D01*
X168471428Y-190850000D01*
X168400000Y-190778571D01*
X168400000Y-190921429D01*
X169114286Y-192278571D02*
X169114286Y-191278571D01*
X169114286Y-191564286D02*
X169185714Y-191421429D01*
X169257143Y-191350000D01*
X169400000Y-191278571D01*
X169542857Y-191278571D01*
X170614285Y-192207143D02*
X170471428Y-192278571D01*
X170185714Y-192278571D01*
X170042857Y-192207143D01*
X169971428Y-192064286D01*
X169971428Y-191492857D01*
X170042857Y-191350000D01*
X170185714Y-191278571D01*
X170471428Y-191278571D01*
X170614285Y-191350000D01*
X170685714Y-191492857D01*
X170685714Y-191635714D01*
X169971428Y-191778571D01*
X171542857Y-192278571D02*
X171399999Y-192207143D01*
X171328571Y-192064286D01*
X171328571Y-190778571D01*
X172685713Y-192207143D02*
X172542856Y-192278571D01*
X172257142Y-192278571D01*
X172114285Y-192207143D01*
X172042856Y-192064286D01*
X172042856Y-191492857D01*
X172114285Y-191350000D01*
X172257142Y-191278571D01*
X172542856Y-191278571D01*
X172685713Y-191350000D01*
X172757142Y-191492857D01*
X172757142Y-191635714D01*
X172042856Y-191778571D01*
X173328570Y-192207143D02*
X173471427Y-192278571D01*
X173757142Y-192278571D01*
X173899999Y-192207143D01*
X173971427Y-192064286D01*
X173971427Y-191992857D01*
X173899999Y-191850000D01*
X173757142Y-191778571D01*
X173542856Y-191778571D01*
X173399999Y-191707143D01*
X173328570Y-191564286D01*
X173328570Y-191492857D01*
X173399999Y-191350000D01*
X173542856Y-191278571D01*
X173757142Y-191278571D01*
X173899999Y-191350000D01*
X174542856Y-192207143D02*
X174685713Y-192278571D01*
X174971428Y-192278571D01*
X175114285Y-192207143D01*
X175185713Y-192064286D01*
X175185713Y-191992857D01*
X175114285Y-191850000D01*
X174971428Y-191778571D01*
X174757142Y-191778571D01*
X174614285Y-191707143D01*
X174542856Y-191564286D01*
X174542856Y-191492857D01*
X174614285Y-191350000D01*
X174757142Y-191278571D01*
X174971428Y-191278571D01*
X175114285Y-191350000D01*
X175471428Y-192421429D02*
X176614285Y-192421429D01*
X176828571Y-190778571D02*
X177828571Y-192278571D01*
X177828571Y-190778571D02*
X176828571Y-192278571D01*
X179042856Y-192207143D02*
X178899999Y-192278571D01*
X178614285Y-192278571D01*
X178471427Y-192207143D01*
X178399999Y-192135714D01*
X178328570Y-191992857D01*
X178328570Y-191564286D01*
X178399999Y-191421429D01*
X178471427Y-191350000D01*
X178614285Y-191278571D01*
X178899999Y-191278571D01*
X179042856Y-191350000D01*
X179685713Y-192278571D02*
X179685713Y-191278571D01*
X179685713Y-190778571D02*
X179614284Y-190850000D01*
X179685713Y-190921429D01*
X179757141Y-190850000D01*
X179685713Y-190778571D01*
X179685713Y-190921429D01*
X180971427Y-192207143D02*
X180828570Y-192278571D01*
X180542856Y-192278571D01*
X180399999Y-192207143D01*
X180328570Y-192064286D01*
X180328570Y-191492857D01*
X180399999Y-191350000D01*
X180542856Y-191278571D01*
X180828570Y-191278571D01*
X180971427Y-191350000D01*
X181042856Y-191492857D01*
X181042856Y-191635714D01*
X180328570Y-191778571D01*
X181542856Y-191278571D02*
X181899999Y-192278571D01*
X182257141Y-191278571D01*
X183399998Y-192207143D02*
X183257141Y-192278571D01*
X182971427Y-192278571D01*
X182828570Y-192207143D01*
X182757141Y-192064286D01*
X182757141Y-191492857D01*
X182828570Y-191350000D01*
X182971427Y-191278571D01*
X183257141Y-191278571D01*
X183399998Y-191350000D01*
X183471427Y-191492857D01*
X183471427Y-191635714D01*
X182757141Y-191778571D01*
X184114284Y-192278571D02*
X184114284Y-191278571D01*
X184114284Y-191564286D02*
X184185712Y-191421429D01*
X184257141Y-191350000D01*
X184399998Y-191278571D01*
X184542855Y-191278571D01*
X185042855Y-192135714D02*
X185114283Y-192207143D01*
X185042855Y-192278571D01*
X184971426Y-192207143D01*
X185042855Y-192135714D01*
X185042855Y-192278571D01*
X185757141Y-192278571D02*
X185757141Y-190778571D01*
X185899998Y-191707143D02*
X186328569Y-192278571D01*
X186328569Y-191278571D02*
X185757141Y-191850000D01*
X186971427Y-192278571D02*
X186971427Y-191278571D01*
X186971427Y-190778571D02*
X186899998Y-190850000D01*
X186971427Y-190921429D01*
X187042855Y-190850000D01*
X186971427Y-190778571D01*
X186971427Y-190921429D01*
X188328570Y-192207143D02*
X188185713Y-192278571D01*
X187899999Y-192278571D01*
X187757141Y-192207143D01*
X187685713Y-192135714D01*
X187614284Y-191992857D01*
X187614284Y-191564286D01*
X187685713Y-191421429D01*
X187757141Y-191350000D01*
X187899999Y-191278571D01*
X188185713Y-191278571D01*
X188328570Y-191350000D01*
X189614284Y-192278571D02*
X189614284Y-191492857D01*
X189542855Y-191350000D01*
X189399998Y-191278571D01*
X189114284Y-191278571D01*
X188971427Y-191350000D01*
X189614284Y-192207143D02*
X189471427Y-192278571D01*
X189114284Y-192278571D01*
X188971427Y-192207143D01*
X188899998Y-192064286D01*
X188899998Y-191921429D01*
X188971427Y-191778571D01*
X189114284Y-191707143D01*
X189471427Y-191707143D01*
X189614284Y-191635714D01*
X190971427Y-192278571D02*
X190971427Y-190778571D01*
X190971427Y-192207143D02*
X190828570Y-192278571D01*
X190542856Y-192278571D01*
X190399998Y-192207143D01*
X190328570Y-192135714D01*
X190257141Y-191992857D01*
X190257141Y-191564286D01*
X190328570Y-191421429D01*
X190399998Y-191350000D01*
X190542856Y-191278571D01*
X190828570Y-191278571D01*
X190971427Y-191350000D01*
X191328570Y-192421429D02*
X192471427Y-192421429D01*
X192828570Y-191278571D02*
X192828570Y-192778571D01*
X192828570Y-191350000D02*
X192971427Y-191278571D01*
X193257141Y-191278571D01*
X193399998Y-191350000D01*
X193471427Y-191421429D01*
X193542856Y-191564286D01*
X193542856Y-191992857D01*
X193471427Y-192135714D01*
X193399998Y-192207143D01*
X193257141Y-192278571D01*
X192971427Y-192278571D01*
X192828570Y-192207143D01*
X194828570Y-192207143D02*
X194685713Y-192278571D01*
X194399999Y-192278571D01*
X194257141Y-192207143D01*
X194185713Y-192135714D01*
X194114284Y-191992857D01*
X194114284Y-191564286D01*
X194185713Y-191421429D01*
X194257141Y-191350000D01*
X194399999Y-191278571D01*
X194685713Y-191278571D01*
X194828570Y-191350000D01*
X195471427Y-192278571D02*
X195471427Y-190778571D01*
X195471427Y-191350000D02*
X195614284Y-191278571D01*
X195899998Y-191278571D01*
X196042855Y-191350000D01*
X196114284Y-191421429D01*
X196185713Y-191564286D01*
X196185713Y-191992857D01*
X196114284Y-192135714D01*
X196042855Y-192207143D01*
X195899998Y-192278571D01*
X195614284Y-192278571D01*
X195471427Y-192207143D01*
D10*
D11*
X159400000Y-187400000D02*
X267400000Y-187400000D01*
D10*
D11*
X160685714Y-189507143D02*
X160900000Y-189578571D01*
X161257143Y-189578571D01*
X161400000Y-189507143D01*
X161471429Y-189435714D01*
X161542857Y-189292857D01*
X161542857Y-189150000D01*
X161471429Y-189007143D01*
X161400000Y-188935714D01*
X161257143Y-188864286D01*
X160971429Y-188792857D01*
X160828571Y-188721429D01*
X160757143Y-188650000D01*
X160685714Y-188507143D01*
X160685714Y-188364286D01*
X160757143Y-188221429D01*
X160828571Y-188150000D01*
X160971429Y-188078571D01*
X161328571Y-188078571D01*
X161542857Y-188150000D01*
X162185714Y-189578571D02*
X162185714Y-188078571D01*
X162828571Y-189578571D02*
X162828571Y-188792857D01*
X162757142Y-188650000D01*
X162614285Y-188578571D01*
X162400000Y-188578571D01*
X162257142Y-188650000D01*
X162185714Y-188721429D01*
X164114285Y-189507143D02*
X163971428Y-189578571D01*
X163685714Y-189578571D01*
X163542857Y-189507143D01*
X163471428Y-189364286D01*
X163471428Y-188792857D01*
X163542857Y-188650000D01*
X163685714Y-188578571D01*
X163971428Y-188578571D01*
X164114285Y-188650000D01*
X164185714Y-188792857D01*
X164185714Y-188935714D01*
X163471428Y-189078571D01*
X165399999Y-189507143D02*
X165257142Y-189578571D01*
X164971428Y-189578571D01*
X164828571Y-189507143D01*
X164757142Y-189364286D01*
X164757142Y-188792857D01*
X164828571Y-188650000D01*
X164971428Y-188578571D01*
X165257142Y-188578571D01*
X165399999Y-188650000D01*
X165471428Y-188792857D01*
X165471428Y-188935714D01*
X164757142Y-189078571D01*
X165899999Y-188578571D02*
X166471428Y-188578571D01*
X166114285Y-188078571D02*
X166114285Y-189364286D01*
X166185713Y-189507143D01*
X166328571Y-189578571D01*
X166471428Y-189578571D01*
X166971428Y-189435714D02*
X167042856Y-189507143D01*
X166971428Y-189578571D01*
X166899999Y-189507143D01*
X166971428Y-189435714D01*
X166971428Y-189578571D01*
X166971428Y-188650000D02*
X167042856Y-188721429D01*
X166971428Y-188792857D01*
X166899999Y-188721429D01*
X166971428Y-188650000D01*
X166971428Y-188792857D01*
D10*
D11*
X179400000Y-197400000D02*
X179400000Y-200400000D01*
D10*
D11*
X243400000Y-197400000D02*
X243400000Y-203900000D01*
D14*
X155380000Y-73670000D03*
D15*
X117130000Y-112045000D03*
X117130000Y-118044480D03*
X112431000Y-115044740D03*
D16*
X144180000Y-87120000D03*
X144180000Y-85620000D03*
X135705000Y-93445000D03*
X135705000Y-91945000D03*
X126155000Y-93195000D03*
X126155000Y-91695000D03*
X126230000Y-95670000D03*
X126230000Y-94170000D03*
X126205000Y-98245000D03*
X126205000Y-96745000D03*
X135730000Y-96020000D03*
X135730000Y-94520000D03*
D17*
X127641765Y-105399591D03*
X127641765Y-106899591D03*
D18*
X128780000Y-103095000D03*
X127280000Y-103095000D03*
X131349843Y-102744269D03*
X129849843Y-102744269D03*
X133030000Y-102795000D03*
X134530000Y-102795000D03*
D19*
X129009843Y-107014269D03*
X129009843Y-104614269D03*
D20*
X129159843Y-106414269D03*
X129159843Y-105814269D03*
X129159843Y-105214269D03*
D21*
X130509843Y-107064269D03*
X131159843Y-107064269D03*
X130509843Y-104564269D03*
X131159843Y-104564269D03*
D22*
X129859843Y-107214269D03*
D23*
X129859843Y-104364269D03*
D24*
X132659843Y-107064269D03*
X132659843Y-104564269D03*
D16*
X135780000Y-99545000D03*
X135780000Y-98045000D03*
D25*
X151705000Y-117045000D03*
X149165000Y-117045000D03*
X147895000Y-117045000D03*
X146625000Y-117045000D03*
X145355000Y-117045000D03*
X144085000Y-117045000D03*
X142815000Y-117045000D03*
X142815000Y-110695000D03*
X144085000Y-110695000D03*
X145355000Y-110695000D03*
X146625000Y-110695000D03*
X147895000Y-110695000D03*
X149165000Y-110695000D03*
X150435000Y-110695000D03*
X151705000Y-110695000D03*
X150435000Y-117045000D03*
D16*
X159255000Y-113445000D03*
X159255000Y-111945000D03*
X168905000Y-114720000D03*
X168905000Y-113220000D03*
X168905000Y-112170000D03*
X168905000Y-110670000D03*
X159255000Y-108370000D03*
X159255000Y-106870000D03*
X159255000Y-110895000D03*
X159255000Y-109395000D03*
X168905000Y-109620000D03*
X168905000Y-108120000D03*
D26*
X161258535Y-107090423D03*
X161258535Y-108360423D03*
X161258535Y-109630423D03*
X161258535Y-110900423D03*
X161258535Y-112170423D03*
X161258535Y-113440423D03*
X161258535Y-114710423D03*
X166658535Y-114710423D03*
X166658535Y-113440423D03*
X166658535Y-112170423D03*
X166658535Y-110900423D03*
X166658535Y-109630423D03*
X166658535Y-108360423D03*
X166658535Y-107090423D03*
X128305000Y-91900000D03*
X128305000Y-93170000D03*
X128305000Y-94440000D03*
X128305000Y-95710000D03*
X128305000Y-96980000D03*
X128305000Y-98250000D03*
X128305000Y-99520000D03*
X133705000Y-99520000D03*
X133705000Y-98250000D03*
X133705000Y-96980000D03*
X133705000Y-95710000D03*
X133705000Y-94440000D03*
X133705000Y-93170000D03*
X133705000Y-91900000D03*
D27*
X131991765Y-108524591D03*
X130491765Y-108524591D03*
D16*
X124720725Y-118992729D03*
X124720725Y-117492729D03*
D28*
X126920725Y-116492729D03*
D29*
X126920725Y-119032729D03*
X126920725Y-121572729D03*
D16*
X123345725Y-118967729D03*
X123345725Y-117467729D03*
X113880000Y-103645000D03*
X113880000Y-105145000D03*
D30*
X123245725Y-109167729D03*
D31*
X123245725Y-106627729D03*
D32*
X169550000Y-84850000D03*
X165480000Y-84850000D03*
X169550000Y-83580000D03*
X169550000Y-82310000D03*
X169550000Y-81040000D03*
X169550000Y-79770000D03*
X165480000Y-83580000D03*
X165480000Y-82310000D03*
X165480000Y-81040000D03*
X165480000Y-79770000D03*
D33*
X167515000Y-84215000D03*
X167515000Y-80405000D03*
D34*
X144180000Y-81645000D03*
X144180000Y-83143600D03*
D18*
X130005000Y-73995000D03*
X131505000Y-73995000D03*
D35*
X144230000Y-75768980D03*
X146130000Y-75768980D03*
X145180000Y-73770000D03*
D18*
X124320725Y-113942729D03*
X122820725Y-113942729D03*
D16*
X127195725Y-111967729D03*
X127195725Y-113467729D03*
D18*
X124295725Y-112592729D03*
X122795725Y-112592729D03*
X123420725Y-115342729D03*
X124920725Y-115342729D03*
D36*
X148085000Y-83040000D03*
X148085000Y-83540000D03*
X148085000Y-84040000D03*
X148085000Y-84540000D03*
X148085000Y-85040000D03*
X148085000Y-85540000D03*
X148085000Y-86040000D03*
X148085000Y-86540000D03*
X148085000Y-87040000D03*
X148085000Y-87540000D03*
X148085000Y-88040000D03*
X148085000Y-88540000D03*
X148085000Y-89040000D03*
X148085000Y-89540000D03*
X148085000Y-90040000D03*
X148085000Y-90540000D03*
D37*
X150035000Y-92490000D03*
X150535000Y-92490000D03*
X151035000Y-92490000D03*
X151535000Y-92490000D03*
X152035000Y-92490000D03*
X152535000Y-92490000D03*
X153035000Y-92490000D03*
X153535000Y-92490000D03*
X154035000Y-92490000D03*
X154535000Y-92490000D03*
X155035000Y-92490000D03*
X155535000Y-92490000D03*
X156035000Y-92490000D03*
X156535000Y-92490000D03*
X157035000Y-92490000D03*
X157535000Y-92490000D03*
D36*
X159485000Y-90540000D03*
X159485000Y-90040000D03*
X159485000Y-89540000D03*
X159485000Y-89040000D03*
X159485000Y-88540000D03*
X159485000Y-88040000D03*
X159485000Y-87540000D03*
X159485000Y-87040000D03*
X159485000Y-86540000D03*
X159485000Y-86040000D03*
X159485000Y-85540000D03*
X159485000Y-85040000D03*
X159485000Y-84540000D03*
X159485000Y-84040000D03*
X159485000Y-83540000D03*
X159485000Y-83040000D03*
D37*
X157535000Y-81090000D03*
X157035000Y-81090000D03*
X156535000Y-81090000D03*
X156035000Y-81090000D03*
X155535000Y-81090000D03*
X155035000Y-81090000D03*
X154535000Y-81090000D03*
X154035000Y-81090000D03*
X153535000Y-81090000D03*
X153035000Y-81090000D03*
X152535000Y-81090000D03*
X152035000Y-81090000D03*
X151535000Y-81090000D03*
X151035000Y-81090000D03*
X150535000Y-81090000D03*
X150035000Y-81090000D03*
D38*
X149805000Y-99995000D03*
X149805000Y-102995000D03*
D39*
X147231660Y-102971140D03*
X147231660Y-101470000D03*
X147231660Y-99968860D03*
D40*
X144280180Y-101470000D03*
D10*
G36*
X145554650Y-100269240D02*
X146703950Y-100769620D01*
X146703950Y-102170380D01*
X145554650Y-102670760D01*
X145554650Y-100269240D01*
X145554650Y-100269240D01*
G37*
D16*
X125820725Y-113667729D03*
X125820725Y-112167729D03*
D41*
X117230000Y-107870000D03*
D42*
X119230000Y-107870000D03*
D18*
X165005000Y-76170000D03*
X166505000Y-76170000D03*
X126345725Y-110692729D03*
X127845725Y-110692729D03*
D43*
X168215000Y-98715000D03*
X170755000Y-98715000D03*
X168215000Y-96175000D03*
X170755000Y-96175000D03*
X168215000Y-93635000D03*
X170755000Y-93635000D03*
X168215000Y-91095000D03*
X170755000Y-91095000D03*
X146630000Y-121295000D03*
X146630000Y-123835000D03*
X144090000Y-121295000D03*
X144090000Y-123835000D03*
X141550000Y-121295000D03*
X141550000Y-123835000D03*
X139010000Y-121295000D03*
X139010000Y-123835000D03*
X162650000Y-121290000D03*
X162650000Y-123830000D03*
X160110000Y-121290000D03*
X160110000Y-123830000D03*
X157570000Y-121290000D03*
X157570000Y-123830000D03*
X155030000Y-121290000D03*
X155030000Y-123830000D03*
X173140000Y-121265000D03*
X173140000Y-123805000D03*
X170600000Y-121265000D03*
X170600000Y-123805000D03*
X168060000Y-121265000D03*
X168060000Y-123805000D03*
X165520000Y-121265000D03*
X165520000Y-123805000D03*
D44*
X134666765Y-106674591D03*
X134666765Y-105574591D03*
D45*
X152130000Y-100795000D03*
X152130000Y-102795000D03*
D17*
X153605000Y-101120000D03*
X153605000Y-102620000D03*
D44*
X154680000Y-101495000D03*
X154680000Y-102595000D03*
X155630000Y-101495000D03*
X155630000Y-102595000D03*
X156580000Y-101495000D03*
X156580000Y-102595000D03*
D45*
X141405000Y-101345000D03*
X141405000Y-103345000D03*
D44*
X139780000Y-102220000D03*
X139780000Y-103320000D03*
X137855000Y-102220000D03*
X137855000Y-103320000D03*
X138805000Y-102220000D03*
X138805000Y-103320000D03*
X136905000Y-102245000D03*
X136905000Y-103345000D03*
D27*
X150855000Y-109170000D03*
X149355000Y-109170000D03*
X148005000Y-109120000D03*
X146505000Y-109120000D03*
D17*
X153330000Y-118495000D03*
X153330000Y-116995000D03*
D27*
X143855000Y-109120000D03*
X145355000Y-109120000D03*
X151830000Y-118645000D03*
X150330000Y-118645000D03*
D44*
X156655000Y-79595000D03*
X156655000Y-78495000D03*
D46*
X151755000Y-93995000D03*
X152855000Y-93995000D03*
D44*
X160905000Y-83120000D03*
X160905000Y-84220000D03*
X161305000Y-90095000D03*
X161305000Y-91195000D03*
X153355000Y-79745000D03*
X153355000Y-78645000D03*
X152280000Y-79745000D03*
X152280000Y-78645000D03*
D46*
X154455000Y-79470000D03*
X155555000Y-79470000D03*
D44*
X146530000Y-86820000D03*
X146530000Y-85720000D03*
D17*
X145455000Y-87045000D03*
X145455000Y-85545000D03*
D44*
X146230000Y-81845000D03*
X146230000Y-80745000D03*
X146230000Y-82695000D03*
X146230000Y-83795000D03*
X124215000Y-75380000D03*
X124215000Y-76480000D03*
X123280000Y-86170000D03*
X123280000Y-87270000D03*
X120580000Y-87295000D03*
X120580000Y-86195000D03*
X121905000Y-87295000D03*
X121905000Y-86195000D03*
X122105000Y-82720000D03*
X122105000Y-81620000D03*
X120980000Y-89645000D03*
X120980000Y-88545000D03*
X124230000Y-82345000D03*
X124230000Y-81245000D03*
D46*
X121955000Y-90695000D03*
X123055000Y-90695000D03*
D44*
X123155000Y-82345000D03*
X123155000Y-81245000D03*
D47*
X164605000Y-77970000D03*
X163705000Y-77970000D03*
X157805000Y-79420000D03*
X158705000Y-79420000D03*
D48*
X162655000Y-119720000D03*
X162655000Y-118820000D03*
X142980000Y-86170000D03*
X142980000Y-85270000D03*
X160105000Y-119720000D03*
X160105000Y-118820000D03*
X157555000Y-119720000D03*
X157555000Y-118820000D03*
X155030000Y-119745000D03*
X155030000Y-118845000D03*
D47*
X144930000Y-77170000D03*
X144030000Y-77170000D03*
D48*
X146130000Y-76845000D03*
X146130000Y-77745000D03*
X173155000Y-119745000D03*
X173155000Y-118845000D03*
X170605000Y-119770000D03*
X170605000Y-118870000D03*
X168055000Y-119745000D03*
X168055000Y-118845000D03*
X165530000Y-119745000D03*
X165530000Y-118845000D03*
D47*
X126655000Y-75545000D03*
X125755000Y-75545000D03*
X124930000Y-74170000D03*
X124030000Y-74170000D03*
D48*
X126030000Y-73495000D03*
X126030000Y-74395000D03*
D47*
X123230000Y-76570000D03*
X122330000Y-76570000D03*
X122380000Y-75345000D03*
X123280000Y-75345000D03*
D48*
X122755000Y-85145000D03*
X122755000Y-84245000D03*
X121155000Y-85120000D03*
X121155000Y-84220000D03*
X121005000Y-81770000D03*
X121005000Y-82670000D03*
D49*
X118405000Y-96795000D03*
X122505000Y-96795000D03*
X122505000Y-102515000D03*
X118405000Y-102515000D03*
D46*
X143805000Y-92195000D03*
X142705000Y-92195000D03*
D48*
X137805000Y-93845000D03*
X137805000Y-94745000D03*
D47*
X143080000Y-90470000D03*
X142180000Y-90470000D03*
D48*
X137405000Y-97045000D03*
X137405000Y-96145000D03*
D44*
X136680000Y-85570000D03*
X136680000Y-84470000D03*
D46*
X116105000Y-90820000D03*
X115005000Y-90820000D03*
X116130000Y-92145000D03*
X115030000Y-92145000D03*
D44*
X115505000Y-81620000D03*
X115505000Y-80520000D03*
D47*
X113955000Y-92145000D03*
X113055000Y-92145000D03*
X135780000Y-83520000D03*
X136680000Y-83520000D03*
X113055000Y-90845000D03*
X113955000Y-90845000D03*
X117555000Y-79870000D03*
X118455000Y-79870000D03*
X117555000Y-81070000D03*
X116655000Y-81070000D03*
D50*
X145705000Y-93470000D03*
X145705000Y-94740000D03*
X145705000Y-96010000D03*
X145705000Y-97280000D03*
X139355000Y-97280000D03*
X139355000Y-96010000D03*
X139355000Y-94740000D03*
X139355000Y-93470000D03*
D51*
X115405000Y-83620000D03*
X116055000Y-83620000D03*
X116705000Y-83620000D03*
X117355000Y-83620000D03*
X117355000Y-87820000D03*
X116705000Y-87820000D03*
X116055000Y-87820000D03*
X115405000Y-87820000D03*
D52*
X116380000Y-85720000D03*
D53*
X111980000Y-88320000D03*
X111980000Y-95320000D03*
D14*
X131830000Y-121895000D03*
M02*
