G04 #@! TF.FileFunction,Legend,Bot*
%FSLAX46Y46*%
G04 Gerber Fmt 4.6, Leading zero omitted, Abs format (unit mm)*
G04 Created by KiCad (PCBNEW 4.0.0-rc2-stable) date 1/25/2016 6:21:02 PM*
%MOMM*%
G01*
G04 APERTURE LIST*
%ADD10C,0.100000*%
%ADD11C,0.150000*%
%ADD12C,0.300000*%
%ADD13C,0.400000*%
%ADD14C,0.062500*%
G04 APERTURE END LIST*
D10*
D11*
X159400000Y-171900000D02*
X159400000Y-203900000D01*
X267400000Y-203900000D01*
X267400000Y-171900000D01*
X159400000Y-171900000D01*
D10*
D11*
X10000000Y-10000000D02*
X10000000Y-205900000D01*
X269400000Y-205900000D01*
X269400000Y-10000000D01*
X10000000Y-10000000D01*
D10*
D11*
X12000000Y-12000000D02*
X12000000Y-203900000D01*
X267400000Y-203900000D01*
X267400000Y-12000000D01*
X12000000Y-12000000D01*
D10*
D11*
X60000000Y-12000000D02*
X60000000Y-10000000D01*
D10*
D11*
X110000000Y-12000000D02*
X110000000Y-10000000D01*
D10*
D11*
X160000000Y-12000000D02*
X160000000Y-10000000D01*
D10*
D11*
X210000000Y-12000000D02*
X210000000Y-10000000D01*
D10*
D11*
X260000000Y-12000000D02*
X260000000Y-10000000D01*
D10*
D11*
X35990476Y-11588095D02*
X35247619Y-11588095D01*
X35619048Y-11588095D02*
X35619048Y-10288095D01*
X35495238Y-10473810D01*
X35371429Y-10597619D01*
X35247619Y-10659524D01*
D10*
D11*
X85247619Y-10411905D02*
X85309524Y-10350000D01*
X85433333Y-10288095D01*
X85742857Y-10288095D01*
X85866667Y-10350000D01*
X85928571Y-10411905D01*
X85990476Y-10535714D01*
X85990476Y-10659524D01*
X85928571Y-10845238D01*
X85185714Y-11588095D01*
X85990476Y-11588095D01*
D10*
D11*
X135185714Y-10288095D02*
X135990476Y-10288095D01*
X135557143Y-10783333D01*
X135742857Y-10783333D01*
X135866667Y-10845238D01*
X135928571Y-10907143D01*
X135990476Y-11030952D01*
X135990476Y-11340476D01*
X135928571Y-11464286D01*
X135866667Y-11526190D01*
X135742857Y-11588095D01*
X135371429Y-11588095D01*
X135247619Y-11526190D01*
X135185714Y-11464286D01*
D10*
D11*
X185866667Y-10721429D02*
X185866667Y-11588095D01*
X185557143Y-10226190D02*
X185247619Y-11154762D01*
X186052381Y-11154762D01*
D10*
D11*
X235928571Y-10288095D02*
X235309524Y-10288095D01*
X235247619Y-10907143D01*
X235309524Y-10845238D01*
X235433333Y-10783333D01*
X235742857Y-10783333D01*
X235866667Y-10845238D01*
X235928571Y-10907143D01*
X235990476Y-11030952D01*
X235990476Y-11340476D01*
X235928571Y-11464286D01*
X235866667Y-11526190D01*
X235742857Y-11588095D01*
X235433333Y-11588095D01*
X235309524Y-11526190D01*
X235247619Y-11464286D01*
D10*
D11*
X60000000Y-203900000D02*
X60000000Y-205900000D01*
D10*
D11*
X110000000Y-203900000D02*
X110000000Y-205900000D01*
D10*
D11*
X160000000Y-203900000D02*
X160000000Y-205900000D01*
D10*
D11*
X210000000Y-203900000D02*
X210000000Y-205900000D01*
D10*
D11*
X260000000Y-203900000D02*
X260000000Y-205900000D01*
D10*
D11*
X35990476Y-205488095D02*
X35247619Y-205488095D01*
X35619048Y-205488095D02*
X35619048Y-204188095D01*
X35495238Y-204373810D01*
X35371429Y-204497619D01*
X35247619Y-204559524D01*
D10*
D11*
X85247619Y-204311905D02*
X85309524Y-204250000D01*
X85433333Y-204188095D01*
X85742857Y-204188095D01*
X85866667Y-204250000D01*
X85928571Y-204311905D01*
X85990476Y-204435714D01*
X85990476Y-204559524D01*
X85928571Y-204745238D01*
X85185714Y-205488095D01*
X85990476Y-205488095D01*
D10*
D11*
X135185714Y-204188095D02*
X135990476Y-204188095D01*
X135557143Y-204683333D01*
X135742857Y-204683333D01*
X135866667Y-204745238D01*
X135928571Y-204807143D01*
X135990476Y-204930952D01*
X135990476Y-205240476D01*
X135928571Y-205364286D01*
X135866667Y-205426190D01*
X135742857Y-205488095D01*
X135371429Y-205488095D01*
X135247619Y-205426190D01*
X135185714Y-205364286D01*
D10*
D11*
X185866667Y-204621429D02*
X185866667Y-205488095D01*
X185557143Y-204126190D02*
X185247619Y-205054762D01*
X186052381Y-205054762D01*
D10*
D11*
X235928571Y-204188095D02*
X235309524Y-204188095D01*
X235247619Y-204807143D01*
X235309524Y-204745238D01*
X235433333Y-204683333D01*
X235742857Y-204683333D01*
X235866667Y-204745238D01*
X235928571Y-204807143D01*
X235990476Y-204930952D01*
X235990476Y-205240476D01*
X235928571Y-205364286D01*
X235866667Y-205426190D01*
X235742857Y-205488095D01*
X235433333Y-205488095D01*
X235309524Y-205426190D01*
X235247619Y-205364286D01*
D10*
D11*
X10000000Y-60000000D02*
X12000000Y-60000000D01*
D10*
D11*
X10000000Y-110000000D02*
X12000000Y-110000000D01*
D10*
D11*
X10000000Y-160000000D02*
X12000000Y-160000000D01*
D10*
D11*
X10690476Y-35216667D02*
X11309524Y-35216667D01*
X10566667Y-35588095D02*
X11000000Y-34288095D01*
X11433333Y-35588095D01*
D10*
D11*
X11092857Y-84907143D02*
X11278571Y-84969048D01*
X11340476Y-85030952D01*
X11402381Y-85154762D01*
X11402381Y-85340476D01*
X11340476Y-85464286D01*
X11278571Y-85526190D01*
X11154762Y-85588095D01*
X10659524Y-85588095D01*
X10659524Y-84288095D01*
X11092857Y-84288095D01*
X11216667Y-84350000D01*
X11278571Y-84411905D01*
X11340476Y-84535714D01*
X11340476Y-84659524D01*
X11278571Y-84783333D01*
X11216667Y-84845238D01*
X11092857Y-84907143D01*
X10659524Y-84907143D01*
D10*
D11*
X11402381Y-135464286D02*
X11340476Y-135526190D01*
X11154762Y-135588095D01*
X11030952Y-135588095D01*
X10845238Y-135526190D01*
X10721429Y-135402381D01*
X10659524Y-135278571D01*
X10597619Y-135030952D01*
X10597619Y-134845238D01*
X10659524Y-134597619D01*
X10721429Y-134473810D01*
X10845238Y-134350000D01*
X11030952Y-134288095D01*
X11154762Y-134288095D01*
X11340476Y-134350000D01*
X11402381Y-134411905D01*
D10*
D11*
X10659524Y-185588095D02*
X10659524Y-184288095D01*
X10969048Y-184288095D01*
X11154762Y-184350000D01*
X11278571Y-184473810D01*
X11340476Y-184597619D01*
X11402381Y-184845238D01*
X11402381Y-185030952D01*
X11340476Y-185278571D01*
X11278571Y-185402381D01*
X11154762Y-185526190D01*
X10969048Y-185588095D01*
X10659524Y-185588095D01*
D10*
D11*
X269400000Y-60000000D02*
X267400000Y-60000000D01*
D10*
D11*
X269400000Y-110000000D02*
X267400000Y-110000000D01*
D10*
D11*
X269400000Y-160000000D02*
X267400000Y-160000000D01*
D10*
D11*
X268090476Y-35216667D02*
X268709524Y-35216667D01*
X267966667Y-35588095D02*
X268400000Y-34288095D01*
X268833333Y-35588095D01*
D10*
D11*
X268492857Y-84907143D02*
X268678571Y-84969048D01*
X268740476Y-85030952D01*
X268802381Y-85154762D01*
X268802381Y-85340476D01*
X268740476Y-85464286D01*
X268678571Y-85526190D01*
X268554762Y-85588095D01*
X268059524Y-85588095D01*
X268059524Y-84288095D01*
X268492857Y-84288095D01*
X268616667Y-84350000D01*
X268678571Y-84411905D01*
X268740476Y-84535714D01*
X268740476Y-84659524D01*
X268678571Y-84783333D01*
X268616667Y-84845238D01*
X268492857Y-84907143D01*
X268059524Y-84907143D01*
D10*
D11*
X268802381Y-135464286D02*
X268740476Y-135526190D01*
X268554762Y-135588095D01*
X268430952Y-135588095D01*
X268245238Y-135526190D01*
X268121429Y-135402381D01*
X268059524Y-135278571D01*
X267997619Y-135030952D01*
X267997619Y-134845238D01*
X268059524Y-134597619D01*
X268121429Y-134473810D01*
X268245238Y-134350000D01*
X268430952Y-134288095D01*
X268554762Y-134288095D01*
X268740476Y-134350000D01*
X268802381Y-134411905D01*
D10*
D11*
X268059524Y-185588095D02*
X268059524Y-184288095D01*
X268369048Y-184288095D01*
X268554762Y-184350000D01*
X268678571Y-184473810D01*
X268740476Y-184597619D01*
X268802381Y-184845238D01*
X268802381Y-185030952D01*
X268740476Y-185278571D01*
X268678571Y-185402381D01*
X268554762Y-185526190D01*
X268369048Y-185588095D01*
X268059524Y-185588095D01*
D10*
D11*
X182757143Y-199678571D02*
X182757143Y-198178571D01*
X183114286Y-198178571D01*
X183328571Y-198250000D01*
X183471429Y-198392857D01*
X183542857Y-198535714D01*
X183614286Y-198821429D01*
X183614286Y-199035714D01*
X183542857Y-199321429D01*
X183471429Y-199464286D01*
X183328571Y-199607143D01*
X183114286Y-199678571D01*
X182757143Y-199678571D01*
X184900000Y-199678571D02*
X184900000Y-198892857D01*
X184828571Y-198750000D01*
X184685714Y-198678571D01*
X184400000Y-198678571D01*
X184257143Y-198750000D01*
X184900000Y-199607143D02*
X184757143Y-199678571D01*
X184400000Y-199678571D01*
X184257143Y-199607143D01*
X184185714Y-199464286D01*
X184185714Y-199321429D01*
X184257143Y-199178571D01*
X184400000Y-199107143D01*
X184757143Y-199107143D01*
X184900000Y-199035714D01*
X185400000Y-198678571D02*
X185971429Y-198678571D01*
X185614286Y-198178571D02*
X185614286Y-199464286D01*
X185685714Y-199607143D01*
X185828572Y-199678571D01*
X185971429Y-199678571D01*
X187042857Y-199607143D02*
X186900000Y-199678571D01*
X186614286Y-199678571D01*
X186471429Y-199607143D01*
X186400000Y-199464286D01*
X186400000Y-198892857D01*
X186471429Y-198750000D01*
X186614286Y-198678571D01*
X186900000Y-198678571D01*
X187042857Y-198750000D01*
X187114286Y-198892857D01*
X187114286Y-199035714D01*
X186400000Y-199178571D01*
X187757143Y-199535714D02*
X187828571Y-199607143D01*
X187757143Y-199678571D01*
X187685714Y-199607143D01*
X187757143Y-199535714D01*
X187757143Y-199678571D01*
X187757143Y-198750000D02*
X187828571Y-198821429D01*
X187757143Y-198892857D01*
X187685714Y-198821429D01*
X187757143Y-198750000D01*
X187757143Y-198892857D01*
D10*
D11*
X159400000Y-200400000D02*
X267400000Y-200400000D01*
D10*
D11*
X160757143Y-202478571D02*
X160757143Y-200978571D01*
X161614286Y-202478571D02*
X160971429Y-201621429D01*
X161614286Y-200978571D02*
X160757143Y-201835714D01*
X162257143Y-202478571D02*
X162257143Y-201478571D01*
X162257143Y-200978571D02*
X162185714Y-201050000D01*
X162257143Y-201121429D01*
X162328571Y-201050000D01*
X162257143Y-200978571D01*
X162257143Y-201121429D01*
X163828572Y-202335714D02*
X163757143Y-202407143D01*
X163542857Y-202478571D01*
X163400000Y-202478571D01*
X163185715Y-202407143D01*
X163042857Y-202264286D01*
X162971429Y-202121429D01*
X162900000Y-201835714D01*
X162900000Y-201621429D01*
X162971429Y-201335714D01*
X163042857Y-201192857D01*
X163185715Y-201050000D01*
X163400000Y-200978571D01*
X163542857Y-200978571D01*
X163757143Y-201050000D01*
X163828572Y-201121429D01*
X165114286Y-202478571D02*
X165114286Y-201692857D01*
X165042857Y-201550000D01*
X164900000Y-201478571D01*
X164614286Y-201478571D01*
X164471429Y-201550000D01*
X165114286Y-202407143D02*
X164971429Y-202478571D01*
X164614286Y-202478571D01*
X164471429Y-202407143D01*
X164400000Y-202264286D01*
X164400000Y-202121429D01*
X164471429Y-201978571D01*
X164614286Y-201907143D01*
X164971429Y-201907143D01*
X165114286Y-201835714D01*
X166471429Y-202478571D02*
X166471429Y-200978571D01*
X166471429Y-202407143D02*
X166328572Y-202478571D01*
X166042858Y-202478571D01*
X165900000Y-202407143D01*
X165828572Y-202335714D01*
X165757143Y-202192857D01*
X165757143Y-201764286D01*
X165828572Y-201621429D01*
X165900000Y-201550000D01*
X166042858Y-201478571D01*
X166328572Y-201478571D01*
X166471429Y-201550000D01*
X168328572Y-201692857D02*
X168828572Y-201692857D01*
X169042858Y-202478571D02*
X168328572Y-202478571D01*
X168328572Y-200978571D01*
X169042858Y-200978571D01*
X169685715Y-202335714D02*
X169757143Y-202407143D01*
X169685715Y-202478571D01*
X169614286Y-202407143D01*
X169685715Y-202335714D01*
X169685715Y-202478571D01*
X170400001Y-202478571D02*
X170400001Y-200978571D01*
X170757144Y-200978571D01*
X170971429Y-201050000D01*
X171114287Y-201192857D01*
X171185715Y-201335714D01*
X171257144Y-201621429D01*
X171257144Y-201835714D01*
X171185715Y-202121429D01*
X171114287Y-202264286D01*
X170971429Y-202407143D01*
X170757144Y-202478571D01*
X170400001Y-202478571D01*
X171900001Y-202335714D02*
X171971429Y-202407143D01*
X171900001Y-202478571D01*
X171828572Y-202407143D01*
X171900001Y-202335714D01*
X171900001Y-202478571D01*
X172542858Y-202050000D02*
X173257144Y-202050000D01*
X172400001Y-202478571D02*
X172900001Y-200978571D01*
X173400001Y-202478571D01*
X173900001Y-202335714D02*
X173971429Y-202407143D01*
X173900001Y-202478571D01*
X173828572Y-202407143D01*
X173900001Y-202335714D01*
X173900001Y-202478571D01*
X176900001Y-202478571D02*
X176900001Y-200978571D01*
X177042858Y-201907143D02*
X177471429Y-202478571D01*
X177471429Y-201478571D02*
X176900001Y-202050000D01*
X178114287Y-202478571D02*
X178114287Y-201478571D01*
X178114287Y-200978571D02*
X178042858Y-201050000D01*
X178114287Y-201121429D01*
X178185715Y-201050000D01*
X178114287Y-200978571D01*
X178114287Y-201121429D01*
X179471430Y-202407143D02*
X179328573Y-202478571D01*
X179042859Y-202478571D01*
X178900001Y-202407143D01*
X178828573Y-202335714D01*
X178757144Y-202192857D01*
X178757144Y-201764286D01*
X178828573Y-201621429D01*
X178900001Y-201550000D01*
X179042859Y-201478571D01*
X179328573Y-201478571D01*
X179471430Y-201550000D01*
X180757144Y-202478571D02*
X180757144Y-201692857D01*
X180685715Y-201550000D01*
X180542858Y-201478571D01*
X180257144Y-201478571D01*
X180114287Y-201550000D01*
X180757144Y-202407143D02*
X180614287Y-202478571D01*
X180257144Y-202478571D01*
X180114287Y-202407143D01*
X180042858Y-202264286D01*
X180042858Y-202121429D01*
X180114287Y-201978571D01*
X180257144Y-201907143D01*
X180614287Y-201907143D01*
X180757144Y-201835714D01*
X182114287Y-202478571D02*
X182114287Y-200978571D01*
X182114287Y-202407143D02*
X181971430Y-202478571D01*
X181685716Y-202478571D01*
X181542858Y-202407143D01*
X181471430Y-202335714D01*
X181400001Y-202192857D01*
X181400001Y-201764286D01*
X181471430Y-201621429D01*
X181542858Y-201550000D01*
X181685716Y-201478571D01*
X181971430Y-201478571D01*
X182114287Y-201550000D01*
X184614287Y-201478571D02*
X184614287Y-202478571D01*
X184257144Y-200907143D02*
X183900001Y-201978571D01*
X184828573Y-201978571D01*
X185400001Y-202335714D02*
X185471429Y-202407143D01*
X185400001Y-202478571D01*
X185328572Y-202407143D01*
X185400001Y-202335714D01*
X185400001Y-202478571D01*
X186400001Y-200978571D02*
X186542858Y-200978571D01*
X186685715Y-201050000D01*
X186757144Y-201121429D01*
X186828573Y-201264286D01*
X186900001Y-201550000D01*
X186900001Y-201907143D01*
X186828573Y-202192857D01*
X186757144Y-202335714D01*
X186685715Y-202407143D01*
X186542858Y-202478571D01*
X186400001Y-202478571D01*
X186257144Y-202407143D01*
X186185715Y-202335714D01*
X186114287Y-202192857D01*
X186042858Y-201907143D01*
X186042858Y-201550000D01*
X186114287Y-201264286D01*
X186185715Y-201121429D01*
X186257144Y-201050000D01*
X186400001Y-200978571D01*
X187542858Y-202335714D02*
X187614286Y-202407143D01*
X187542858Y-202478571D01*
X187471429Y-202407143D01*
X187542858Y-202335714D01*
X187542858Y-202478571D01*
X188542858Y-200978571D02*
X188685715Y-200978571D01*
X188828572Y-201050000D01*
X188900001Y-201121429D01*
X188971430Y-201264286D01*
X189042858Y-201550000D01*
X189042858Y-201907143D01*
X188971430Y-202192857D01*
X188900001Y-202335714D01*
X188828572Y-202407143D01*
X188685715Y-202478571D01*
X188542858Y-202478571D01*
X188400001Y-202407143D01*
X188328572Y-202335714D01*
X188257144Y-202192857D01*
X188185715Y-201907143D01*
X188185715Y-201550000D01*
X188257144Y-201264286D01*
X188328572Y-201121429D01*
X188400001Y-201050000D01*
X188542858Y-200978571D01*
X189685715Y-201907143D02*
X190828572Y-201907143D01*
X191542858Y-202478571D02*
X191542858Y-201478571D01*
X191542858Y-201764286D02*
X191614286Y-201621429D01*
X191685715Y-201550000D01*
X191828572Y-201478571D01*
X191971429Y-201478571D01*
X193114286Y-202407143D02*
X192971429Y-202478571D01*
X192685715Y-202478571D01*
X192542857Y-202407143D01*
X192471429Y-202335714D01*
X192400000Y-202192857D01*
X192400000Y-201764286D01*
X192471429Y-201621429D01*
X192542857Y-201550000D01*
X192685715Y-201478571D01*
X192971429Y-201478571D01*
X193114286Y-201550000D01*
X193685714Y-201121429D02*
X193757143Y-201050000D01*
X193900000Y-200978571D01*
X194257143Y-200978571D01*
X194400000Y-201050000D01*
X194471429Y-201121429D01*
X194542857Y-201264286D01*
X194542857Y-201407143D01*
X194471429Y-201621429D01*
X193614286Y-202478571D01*
X194542857Y-202478571D01*
X195185714Y-201907143D02*
X196328571Y-201907143D01*
X196971428Y-202407143D02*
X197114285Y-202478571D01*
X197400000Y-202478571D01*
X197542857Y-202407143D01*
X197614285Y-202264286D01*
X197614285Y-202192857D01*
X197542857Y-202050000D01*
X197400000Y-201978571D01*
X197185714Y-201978571D01*
X197042857Y-201907143D01*
X196971428Y-201764286D01*
X196971428Y-201692857D01*
X197042857Y-201550000D01*
X197185714Y-201478571D01*
X197400000Y-201478571D01*
X197542857Y-201550000D01*
X198042857Y-201478571D02*
X198614286Y-201478571D01*
X198257143Y-200978571D02*
X198257143Y-202264286D01*
X198328571Y-202407143D01*
X198471429Y-202478571D01*
X198614286Y-202478571D01*
X199757143Y-202478571D02*
X199757143Y-201692857D01*
X199685714Y-201550000D01*
X199542857Y-201478571D01*
X199257143Y-201478571D01*
X199114286Y-201550000D01*
X199757143Y-202407143D02*
X199614286Y-202478571D01*
X199257143Y-202478571D01*
X199114286Y-202407143D01*
X199042857Y-202264286D01*
X199042857Y-202121429D01*
X199114286Y-201978571D01*
X199257143Y-201907143D01*
X199614286Y-201907143D01*
X199757143Y-201835714D01*
X200471429Y-202478571D02*
X200471429Y-200978571D01*
X200471429Y-201550000D02*
X200614286Y-201478571D01*
X200900000Y-201478571D01*
X201042857Y-201550000D01*
X201114286Y-201621429D01*
X201185715Y-201764286D01*
X201185715Y-202192857D01*
X201114286Y-202335714D01*
X201042857Y-202407143D01*
X200900000Y-202478571D01*
X200614286Y-202478571D01*
X200471429Y-202407143D01*
X202042858Y-202478571D02*
X201900000Y-202407143D01*
X201828572Y-202264286D01*
X201828572Y-200978571D01*
X203185714Y-202407143D02*
X203042857Y-202478571D01*
X202757143Y-202478571D01*
X202614286Y-202407143D01*
X202542857Y-202264286D01*
X202542857Y-201692857D01*
X202614286Y-201550000D01*
X202757143Y-201478571D01*
X203042857Y-201478571D01*
X203185714Y-201550000D01*
X203257143Y-201692857D01*
X203257143Y-201835714D01*
X202542857Y-201978571D01*
D10*
D11*
X159400000Y-197400000D02*
X267400000Y-197400000D01*
D10*
D12*
X246614286Y-199678571D02*
X246114286Y-198964286D01*
X245757143Y-199678571D02*
X245757143Y-198178571D01*
X246328571Y-198178571D01*
X246471429Y-198250000D01*
X246542857Y-198321429D01*
X246614286Y-198464286D01*
X246614286Y-198678571D01*
X246542857Y-198821429D01*
X246471429Y-198892857D01*
X246328571Y-198964286D01*
X245757143Y-198964286D01*
X247828571Y-199607143D02*
X247685714Y-199678571D01*
X247400000Y-199678571D01*
X247257143Y-199607143D01*
X247185714Y-199464286D01*
X247185714Y-198892857D01*
X247257143Y-198750000D01*
X247400000Y-198678571D01*
X247685714Y-198678571D01*
X247828571Y-198750000D01*
X247900000Y-198892857D01*
X247900000Y-199035714D01*
X247185714Y-199178571D01*
X248400000Y-198678571D02*
X248757143Y-199678571D01*
X249114285Y-198678571D01*
X249685714Y-199535714D02*
X249757142Y-199607143D01*
X249685714Y-199678571D01*
X249614285Y-199607143D01*
X249685714Y-199535714D01*
X249685714Y-199678571D01*
X249685714Y-198750000D02*
X249757142Y-198821429D01*
X249685714Y-198892857D01*
X249614285Y-198821429D01*
X249685714Y-198750000D01*
X249685714Y-198892857D01*
D10*
D11*
X160685714Y-199607143D02*
X160900000Y-199678571D01*
X161257143Y-199678571D01*
X161400000Y-199607143D01*
X161471429Y-199535714D01*
X161542857Y-199392857D01*
X161542857Y-199250000D01*
X161471429Y-199107143D01*
X161400000Y-199035714D01*
X161257143Y-198964286D01*
X160971429Y-198892857D01*
X160828571Y-198821429D01*
X160757143Y-198750000D01*
X160685714Y-198607143D01*
X160685714Y-198464286D01*
X160757143Y-198321429D01*
X160828571Y-198250000D01*
X160971429Y-198178571D01*
X161328571Y-198178571D01*
X161542857Y-198250000D01*
X162185714Y-199678571D02*
X162185714Y-198678571D01*
X162185714Y-198178571D02*
X162114285Y-198250000D01*
X162185714Y-198321429D01*
X162257142Y-198250000D01*
X162185714Y-198178571D01*
X162185714Y-198321429D01*
X162757143Y-198678571D02*
X163542857Y-198678571D01*
X162757143Y-199678571D01*
X163542857Y-199678571D01*
X164685714Y-199607143D02*
X164542857Y-199678571D01*
X164257143Y-199678571D01*
X164114286Y-199607143D01*
X164042857Y-199464286D01*
X164042857Y-198892857D01*
X164114286Y-198750000D01*
X164257143Y-198678571D01*
X164542857Y-198678571D01*
X164685714Y-198750000D01*
X164757143Y-198892857D01*
X164757143Y-199035714D01*
X164042857Y-199178571D01*
X165400000Y-199535714D02*
X165471428Y-199607143D01*
X165400000Y-199678571D01*
X165328571Y-199607143D01*
X165400000Y-199535714D01*
X165400000Y-199678571D01*
X165400000Y-198750000D02*
X165471428Y-198821429D01*
X165400000Y-198892857D01*
X165328571Y-198821429D01*
X165400000Y-198750000D01*
X165400000Y-198892857D01*
X167185714Y-199250000D02*
X167900000Y-199250000D01*
X167042857Y-199678571D02*
X167542857Y-198178571D01*
X168042857Y-199678571D01*
D10*
D11*
X245757143Y-202478571D02*
X245757143Y-200978571D01*
X247114286Y-202478571D02*
X247114286Y-200978571D01*
X247114286Y-202407143D02*
X246971429Y-202478571D01*
X246685715Y-202478571D01*
X246542857Y-202407143D01*
X246471429Y-202335714D01*
X246400000Y-202192857D01*
X246400000Y-201764286D01*
X246471429Y-201621429D01*
X246542857Y-201550000D01*
X246685715Y-201478571D01*
X246971429Y-201478571D01*
X247114286Y-201550000D01*
X247828572Y-202335714D02*
X247900000Y-202407143D01*
X247828572Y-202478571D01*
X247757143Y-202407143D01*
X247828572Y-202335714D01*
X247828572Y-202478571D01*
X247828572Y-201550000D02*
X247900000Y-201621429D01*
X247828572Y-201692857D01*
X247757143Y-201621429D01*
X247828572Y-201550000D01*
X247828572Y-201692857D01*
X250471429Y-202478571D02*
X249614286Y-202478571D01*
X250042858Y-202478571D02*
X250042858Y-200978571D01*
X249900001Y-201192857D01*
X249757143Y-201335714D01*
X249614286Y-201407143D01*
X252185714Y-200907143D02*
X250900000Y-202835714D01*
X253471429Y-202478571D02*
X252614286Y-202478571D01*
X253042858Y-202478571D02*
X253042858Y-200978571D01*
X252900001Y-201192857D01*
X252757143Y-201335714D01*
X252614286Y-201407143D01*
D10*
D11*
X159400000Y-193400000D02*
X267400000Y-193400000D01*
D10*
D13*
X160852381Y-194104762D02*
X161995238Y-194104762D01*
X161173810Y-196104762D02*
X161423810Y-194104762D01*
X162411905Y-196104762D02*
X162578571Y-194771429D01*
X162661905Y-194104762D02*
X162554762Y-194200000D01*
X162638095Y-194295238D01*
X162745239Y-194200000D01*
X162661905Y-194104762D01*
X162638095Y-194295238D01*
X163245238Y-194771429D02*
X164007143Y-194771429D01*
X163614286Y-194104762D02*
X163400000Y-195819048D01*
X163471430Y-196009524D01*
X163650001Y-196104762D01*
X163840477Y-196104762D01*
X164792858Y-196104762D02*
X164614287Y-196009524D01*
X164542857Y-195819048D01*
X164757143Y-194104762D01*
X166328572Y-196009524D02*
X166126191Y-196104762D01*
X165745239Y-196104762D01*
X165566667Y-196009524D01*
X165495238Y-195819048D01*
X165590476Y-195057143D01*
X165709524Y-194866667D01*
X165911905Y-194771429D01*
X166292857Y-194771429D01*
X166471429Y-194866667D01*
X166542857Y-195057143D01*
X166519048Y-195247619D01*
X165542857Y-195438095D01*
X167292857Y-195914286D02*
X167376192Y-196009524D01*
X167269048Y-196104762D01*
X167185715Y-196009524D01*
X167292857Y-195914286D01*
X167269048Y-196104762D01*
X167423810Y-194866667D02*
X167507144Y-194961905D01*
X167400000Y-195057143D01*
X167316667Y-194961905D01*
X167423810Y-194866667D01*
X167400000Y-195057143D01*
D10*
D11*
X161257143Y-191492857D02*
X160757143Y-191492857D01*
X160757143Y-192278571D02*
X160757143Y-190778571D01*
X161471429Y-190778571D01*
X162042857Y-192278571D02*
X162042857Y-191278571D01*
X162042857Y-190778571D02*
X161971428Y-190850000D01*
X162042857Y-190921429D01*
X162114285Y-190850000D01*
X162042857Y-190778571D01*
X162042857Y-190921429D01*
X162971429Y-192278571D02*
X162828571Y-192207143D01*
X162757143Y-192064286D01*
X162757143Y-190778571D01*
X164114285Y-192207143D02*
X163971428Y-192278571D01*
X163685714Y-192278571D01*
X163542857Y-192207143D01*
X163471428Y-192064286D01*
X163471428Y-191492857D01*
X163542857Y-191350000D01*
X163685714Y-191278571D01*
X163971428Y-191278571D01*
X164114285Y-191350000D01*
X164185714Y-191492857D01*
X164185714Y-191635714D01*
X163471428Y-191778571D01*
X164828571Y-192135714D02*
X164899999Y-192207143D01*
X164828571Y-192278571D01*
X164757142Y-192207143D01*
X164828571Y-192135714D01*
X164828571Y-192278571D01*
X164828571Y-191350000D02*
X164899999Y-191421429D01*
X164828571Y-191492857D01*
X164757142Y-191421429D01*
X164828571Y-191350000D01*
X164828571Y-191492857D01*
X166542857Y-190778571D02*
X166900000Y-192278571D01*
X167185714Y-191207143D01*
X167471428Y-192278571D01*
X167828571Y-190778571D01*
X168400000Y-192278571D02*
X168400000Y-191278571D01*
X168400000Y-190778571D02*
X168328571Y-190850000D01*
X168400000Y-190921429D01*
X168471428Y-190850000D01*
X168400000Y-190778571D01*
X168400000Y-190921429D01*
X169114286Y-192278571D02*
X169114286Y-191278571D01*
X169114286Y-191564286D02*
X169185714Y-191421429D01*
X169257143Y-191350000D01*
X169400000Y-191278571D01*
X169542857Y-191278571D01*
X170614285Y-192207143D02*
X170471428Y-192278571D01*
X170185714Y-192278571D01*
X170042857Y-192207143D01*
X169971428Y-192064286D01*
X169971428Y-191492857D01*
X170042857Y-191350000D01*
X170185714Y-191278571D01*
X170471428Y-191278571D01*
X170614285Y-191350000D01*
X170685714Y-191492857D01*
X170685714Y-191635714D01*
X169971428Y-191778571D01*
X171542857Y-192278571D02*
X171399999Y-192207143D01*
X171328571Y-192064286D01*
X171328571Y-190778571D01*
X172685713Y-192207143D02*
X172542856Y-192278571D01*
X172257142Y-192278571D01*
X172114285Y-192207143D01*
X172042856Y-192064286D01*
X172042856Y-191492857D01*
X172114285Y-191350000D01*
X172257142Y-191278571D01*
X172542856Y-191278571D01*
X172685713Y-191350000D01*
X172757142Y-191492857D01*
X172757142Y-191635714D01*
X172042856Y-191778571D01*
X173328570Y-192207143D02*
X173471427Y-192278571D01*
X173757142Y-192278571D01*
X173899999Y-192207143D01*
X173971427Y-192064286D01*
X173971427Y-191992857D01*
X173899999Y-191850000D01*
X173757142Y-191778571D01*
X173542856Y-191778571D01*
X173399999Y-191707143D01*
X173328570Y-191564286D01*
X173328570Y-191492857D01*
X173399999Y-191350000D01*
X173542856Y-191278571D01*
X173757142Y-191278571D01*
X173899999Y-191350000D01*
X174542856Y-192207143D02*
X174685713Y-192278571D01*
X174971428Y-192278571D01*
X175114285Y-192207143D01*
X175185713Y-192064286D01*
X175185713Y-191992857D01*
X175114285Y-191850000D01*
X174971428Y-191778571D01*
X174757142Y-191778571D01*
X174614285Y-191707143D01*
X174542856Y-191564286D01*
X174542856Y-191492857D01*
X174614285Y-191350000D01*
X174757142Y-191278571D01*
X174971428Y-191278571D01*
X175114285Y-191350000D01*
X175471428Y-192421429D02*
X176614285Y-192421429D01*
X176828571Y-190778571D02*
X177828571Y-192278571D01*
X177828571Y-190778571D02*
X176828571Y-192278571D01*
X179042856Y-192207143D02*
X178899999Y-192278571D01*
X178614285Y-192278571D01*
X178471427Y-192207143D01*
X178399999Y-192135714D01*
X178328570Y-191992857D01*
X178328570Y-191564286D01*
X178399999Y-191421429D01*
X178471427Y-191350000D01*
X178614285Y-191278571D01*
X178899999Y-191278571D01*
X179042856Y-191350000D01*
X179685713Y-192278571D02*
X179685713Y-191278571D01*
X179685713Y-190778571D02*
X179614284Y-190850000D01*
X179685713Y-190921429D01*
X179757141Y-190850000D01*
X179685713Y-190778571D01*
X179685713Y-190921429D01*
X180971427Y-192207143D02*
X180828570Y-192278571D01*
X180542856Y-192278571D01*
X180399999Y-192207143D01*
X180328570Y-192064286D01*
X180328570Y-191492857D01*
X180399999Y-191350000D01*
X180542856Y-191278571D01*
X180828570Y-191278571D01*
X180971427Y-191350000D01*
X181042856Y-191492857D01*
X181042856Y-191635714D01*
X180328570Y-191778571D01*
X181542856Y-191278571D02*
X181899999Y-192278571D01*
X182257141Y-191278571D01*
X183399998Y-192207143D02*
X183257141Y-192278571D01*
X182971427Y-192278571D01*
X182828570Y-192207143D01*
X182757141Y-192064286D01*
X182757141Y-191492857D01*
X182828570Y-191350000D01*
X182971427Y-191278571D01*
X183257141Y-191278571D01*
X183399998Y-191350000D01*
X183471427Y-191492857D01*
X183471427Y-191635714D01*
X182757141Y-191778571D01*
X184114284Y-192278571D02*
X184114284Y-191278571D01*
X184114284Y-191564286D02*
X184185712Y-191421429D01*
X184257141Y-191350000D01*
X184399998Y-191278571D01*
X184542855Y-191278571D01*
X185042855Y-192135714D02*
X185114283Y-192207143D01*
X185042855Y-192278571D01*
X184971426Y-192207143D01*
X185042855Y-192135714D01*
X185042855Y-192278571D01*
X185757141Y-192278571D02*
X185757141Y-190778571D01*
X185899998Y-191707143D02*
X186328569Y-192278571D01*
X186328569Y-191278571D02*
X185757141Y-191850000D01*
X186971427Y-192278571D02*
X186971427Y-191278571D01*
X186971427Y-190778571D02*
X186899998Y-190850000D01*
X186971427Y-190921429D01*
X187042855Y-190850000D01*
X186971427Y-190778571D01*
X186971427Y-190921429D01*
X188328570Y-192207143D02*
X188185713Y-192278571D01*
X187899999Y-192278571D01*
X187757141Y-192207143D01*
X187685713Y-192135714D01*
X187614284Y-191992857D01*
X187614284Y-191564286D01*
X187685713Y-191421429D01*
X187757141Y-191350000D01*
X187899999Y-191278571D01*
X188185713Y-191278571D01*
X188328570Y-191350000D01*
X189614284Y-192278571D02*
X189614284Y-191492857D01*
X189542855Y-191350000D01*
X189399998Y-191278571D01*
X189114284Y-191278571D01*
X188971427Y-191350000D01*
X189614284Y-192207143D02*
X189471427Y-192278571D01*
X189114284Y-192278571D01*
X188971427Y-192207143D01*
X188899998Y-192064286D01*
X188899998Y-191921429D01*
X188971427Y-191778571D01*
X189114284Y-191707143D01*
X189471427Y-191707143D01*
X189614284Y-191635714D01*
X190971427Y-192278571D02*
X190971427Y-190778571D01*
X190971427Y-192207143D02*
X190828570Y-192278571D01*
X190542856Y-192278571D01*
X190399998Y-192207143D01*
X190328570Y-192135714D01*
X190257141Y-191992857D01*
X190257141Y-191564286D01*
X190328570Y-191421429D01*
X190399998Y-191350000D01*
X190542856Y-191278571D01*
X190828570Y-191278571D01*
X190971427Y-191350000D01*
X191328570Y-192421429D02*
X192471427Y-192421429D01*
X192828570Y-191278571D02*
X192828570Y-192778571D01*
X192828570Y-191350000D02*
X192971427Y-191278571D01*
X193257141Y-191278571D01*
X193399998Y-191350000D01*
X193471427Y-191421429D01*
X193542856Y-191564286D01*
X193542856Y-191992857D01*
X193471427Y-192135714D01*
X193399998Y-192207143D01*
X193257141Y-192278571D01*
X192971427Y-192278571D01*
X192828570Y-192207143D01*
X194828570Y-192207143D02*
X194685713Y-192278571D01*
X194399999Y-192278571D01*
X194257141Y-192207143D01*
X194185713Y-192135714D01*
X194114284Y-191992857D01*
X194114284Y-191564286D01*
X194185713Y-191421429D01*
X194257141Y-191350000D01*
X194399999Y-191278571D01*
X194685713Y-191278571D01*
X194828570Y-191350000D01*
X195471427Y-192278571D02*
X195471427Y-190778571D01*
X195471427Y-191350000D02*
X195614284Y-191278571D01*
X195899998Y-191278571D01*
X196042855Y-191350000D01*
X196114284Y-191421429D01*
X196185713Y-191564286D01*
X196185713Y-191992857D01*
X196114284Y-192135714D01*
X196042855Y-192207143D01*
X195899998Y-192278571D01*
X195614284Y-192278571D01*
X195471427Y-192207143D01*
D10*
D11*
X159400000Y-187400000D02*
X267400000Y-187400000D01*
D10*
D11*
X160685714Y-189507143D02*
X160900000Y-189578571D01*
X161257143Y-189578571D01*
X161400000Y-189507143D01*
X161471429Y-189435714D01*
X161542857Y-189292857D01*
X161542857Y-189150000D01*
X161471429Y-189007143D01*
X161400000Y-188935714D01*
X161257143Y-188864286D01*
X160971429Y-188792857D01*
X160828571Y-188721429D01*
X160757143Y-188650000D01*
X160685714Y-188507143D01*
X160685714Y-188364286D01*
X160757143Y-188221429D01*
X160828571Y-188150000D01*
X160971429Y-188078571D01*
X161328571Y-188078571D01*
X161542857Y-188150000D01*
X162185714Y-189578571D02*
X162185714Y-188078571D01*
X162828571Y-189578571D02*
X162828571Y-188792857D01*
X162757142Y-188650000D01*
X162614285Y-188578571D01*
X162400000Y-188578571D01*
X162257142Y-188650000D01*
X162185714Y-188721429D01*
X164114285Y-189507143D02*
X163971428Y-189578571D01*
X163685714Y-189578571D01*
X163542857Y-189507143D01*
X163471428Y-189364286D01*
X163471428Y-188792857D01*
X163542857Y-188650000D01*
X163685714Y-188578571D01*
X163971428Y-188578571D01*
X164114285Y-188650000D01*
X164185714Y-188792857D01*
X164185714Y-188935714D01*
X163471428Y-189078571D01*
X165399999Y-189507143D02*
X165257142Y-189578571D01*
X164971428Y-189578571D01*
X164828571Y-189507143D01*
X164757142Y-189364286D01*
X164757142Y-188792857D01*
X164828571Y-188650000D01*
X164971428Y-188578571D01*
X165257142Y-188578571D01*
X165399999Y-188650000D01*
X165471428Y-188792857D01*
X165471428Y-188935714D01*
X164757142Y-189078571D01*
X165899999Y-188578571D02*
X166471428Y-188578571D01*
X166114285Y-188078571D02*
X166114285Y-189364286D01*
X166185713Y-189507143D01*
X166328571Y-189578571D01*
X166471428Y-189578571D01*
X166971428Y-189435714D02*
X167042856Y-189507143D01*
X166971428Y-189578571D01*
X166899999Y-189507143D01*
X166971428Y-189435714D01*
X166971428Y-189578571D01*
X166971428Y-188650000D02*
X167042856Y-188721429D01*
X166971428Y-188792857D01*
X166899999Y-188721429D01*
X166971428Y-188650000D01*
X166971428Y-188792857D01*
D10*
D11*
X179400000Y-197400000D02*
X179400000Y-200400000D01*
D10*
D11*
X243400000Y-197400000D02*
X243400000Y-203900000D01*
D12*
X139115714Y-72568571D02*
X139115714Y-71068571D01*
X139472857Y-71068571D01*
X139687142Y-71140000D01*
X139830000Y-71282857D01*
X139901428Y-71425714D01*
X139972857Y-71711429D01*
X139972857Y-71925714D01*
X139901428Y-72211429D01*
X139830000Y-72354286D01*
X139687142Y-72497143D01*
X139472857Y-72568571D01*
X139115714Y-72568571D01*
X140615714Y-72425714D02*
X140687142Y-72497143D01*
X140615714Y-72568571D01*
X140544285Y-72497143D01*
X140615714Y-72425714D01*
X140615714Y-72568571D01*
X141830000Y-71782857D02*
X142044286Y-71854286D01*
X142115714Y-71925714D01*
X142187143Y-72068571D01*
X142187143Y-72282857D01*
X142115714Y-72425714D01*
X142044286Y-72497143D01*
X141901428Y-72568571D01*
X141330000Y-72568571D01*
X141330000Y-71068571D01*
X141830000Y-71068571D01*
X141972857Y-71140000D01*
X142044286Y-71211429D01*
X142115714Y-71354286D01*
X142115714Y-71497143D01*
X142044286Y-71640000D01*
X141972857Y-71711429D01*
X141830000Y-71782857D01*
X141330000Y-71782857D01*
X142830000Y-72425714D02*
X142901428Y-72497143D01*
X142830000Y-72568571D01*
X142758571Y-72497143D01*
X142830000Y-72425714D01*
X142830000Y-72568571D01*
X143544286Y-72425714D02*
X143615714Y-72497143D01*
X143544286Y-72568571D01*
X143472857Y-72497143D01*
X143544286Y-72425714D01*
X143544286Y-72568571D01*
X143544286Y-71640000D02*
X143615714Y-71711429D01*
X143544286Y-71782857D01*
X143472857Y-71711429D01*
X143544286Y-71640000D01*
X143544286Y-71782857D01*
X145830000Y-71068571D02*
X145830000Y-72140000D01*
X145758572Y-72354286D01*
X145615715Y-72497143D01*
X145401429Y-72568571D01*
X145258572Y-72568571D01*
X146972857Y-71068571D02*
X146972857Y-72140000D01*
X146901429Y-72354286D01*
X146758572Y-72497143D01*
X146544286Y-72568571D01*
X146401429Y-72568571D01*
X148187143Y-71782857D02*
X147687143Y-71782857D01*
X147687143Y-72568571D02*
X147687143Y-71068571D01*
X148401429Y-71068571D01*
X149687143Y-72568571D02*
X148972857Y-72568571D01*
X148972857Y-71068571D01*
X150472857Y-71068571D02*
X150758571Y-71068571D01*
X150901429Y-71140000D01*
X151044286Y-71282857D01*
X151115714Y-71568571D01*
X151115714Y-72068571D01*
X151044286Y-72354286D01*
X150901429Y-72497143D01*
X150758571Y-72568571D01*
X150472857Y-72568571D01*
X150330000Y-72497143D01*
X150187143Y-72354286D01*
X150115714Y-72068571D01*
X150115714Y-71568571D01*
X150187143Y-71282857D01*
X150330000Y-71140000D01*
X150472857Y-71068571D01*
X152615715Y-72568571D02*
X152115715Y-71854286D01*
X151758572Y-72568571D02*
X151758572Y-71068571D01*
X152330000Y-71068571D01*
X152472858Y-71140000D01*
X152544286Y-71211429D01*
X152615715Y-71354286D01*
X152615715Y-71568571D01*
X152544286Y-71711429D01*
X152472858Y-71782857D01*
X152330000Y-71854286D01*
X151758572Y-71854286D01*
D11*
X121630880Y-122245640D02*
X112629120Y-122245640D01*
X121630880Y-125745760D02*
X112629120Y-125745760D01*
X112629120Y-125745760D02*
X112629120Y-111244900D01*
X112629120Y-111244900D02*
X121630880Y-111244900D01*
X121630880Y-111244900D02*
X121630880Y-125745760D01*
X115280000Y-105070000D02*
X115280000Y-109570000D01*
X115280000Y-109570000D02*
X121180000Y-109570000D01*
X121180000Y-109570000D02*
X121180000Y-105070000D01*
X121180000Y-105070000D02*
X115280000Y-105070000D01*
X117730000Y-109570000D02*
X117730000Y-109070000D01*
X117730000Y-109070000D02*
X115780000Y-109070000D01*
X115780000Y-109070000D02*
X115780000Y-105570000D01*
X115780000Y-105570000D02*
X120680000Y-105570000D01*
X120680000Y-105570000D02*
X120680000Y-109070000D01*
X120680000Y-109070000D02*
X118730000Y-109070000D01*
X118730000Y-109070000D02*
X118730000Y-109570000D01*
X115280000Y-108370000D02*
X115780000Y-108370000D01*
X115280000Y-107070000D02*
X115780000Y-107070000D01*
X120680000Y-108370000D02*
X121180000Y-108370000D01*
X120680000Y-107070000D02*
X121180000Y-107070000D01*
X116930000Y-109570000D02*
X116930000Y-109770000D01*
X116930000Y-109770000D02*
X116630000Y-109770000D01*
X116630000Y-109770000D02*
X116630000Y-109570000D01*
X116930000Y-109670000D02*
X116630000Y-109670000D01*
X118130000Y-105570000D02*
X118130000Y-106070000D01*
X118130000Y-106070000D02*
X118330000Y-106070000D01*
X118330000Y-106070000D02*
X118330000Y-105570000D01*
X118230000Y-105570000D02*
X118230000Y-106070000D01*
X132630000Y-113795000D02*
X132630000Y-113595000D01*
X132630000Y-107795000D02*
X132630000Y-107995000D01*
X126630000Y-107795000D02*
X126630000Y-107995000D01*
X126630000Y-113795000D02*
X126630000Y-113595000D01*
X126630000Y-111995000D02*
X126630000Y-109595000D01*
X132630000Y-111995000D02*
X132630000Y-109595000D01*
X132630000Y-113795000D02*
X126630000Y-113795000D01*
X126630000Y-107795000D02*
X132630000Y-107795000D01*
X131330000Y-110795000D02*
G75*
G03X131330000Y-110795000I-1700000J0D01*
G01*
X166505000Y-113745000D02*
X166505000Y-113545000D01*
X166505000Y-107745000D02*
X166505000Y-107945000D01*
X160505000Y-107745000D02*
X160505000Y-107945000D01*
X160505000Y-113745000D02*
X160505000Y-113545000D01*
X160505000Y-111945000D02*
X160505000Y-109545000D01*
X166505000Y-111945000D02*
X166505000Y-109545000D01*
X166505000Y-113745000D02*
X160505000Y-113745000D01*
X160505000Y-107745000D02*
X166505000Y-107745000D01*
X165205000Y-110745000D02*
G75*
G03X165205000Y-110745000I-1700000J0D01*
G01*
X149380000Y-117845000D02*
X149380000Y-117645000D01*
X149380000Y-111845000D02*
X149380000Y-112045000D01*
X143380000Y-111845000D02*
X143380000Y-112045000D01*
X143380000Y-117845000D02*
X143380000Y-117645000D01*
X143380000Y-116045000D02*
X143380000Y-113645000D01*
X149380000Y-116045000D02*
X149380000Y-113645000D01*
X149380000Y-117845000D02*
X143380000Y-117845000D01*
X143380000Y-111845000D02*
X149380000Y-111845000D01*
X148080000Y-114845000D02*
G75*
G03X148080000Y-114845000I-1700000J0D01*
G01*
X126210000Y-72805000D02*
X126210000Y-72950000D01*
X122060000Y-72805000D02*
X122060000Y-72950000D01*
X122060000Y-77955000D02*
X122060000Y-77810000D01*
X126210000Y-77955000D02*
X126210000Y-77810000D01*
X126210000Y-72805000D02*
X122060000Y-72805000D01*
X126210000Y-77955000D02*
X122060000Y-77955000D01*
X126210000Y-72950000D02*
X127610000Y-72950000D01*
X130535000Y-73025000D02*
X131675000Y-73025000D01*
X131115000Y-72445000D02*
X131115000Y-73585000D01*
X167229529Y-80053861D02*
X167229529Y-91553861D01*
X137229529Y-80053861D02*
X137229529Y-91553861D01*
X120929529Y-80053861D02*
X167229529Y-80053861D01*
X120929529Y-91553861D02*
X167229529Y-91553861D01*
X149380000Y-109920000D02*
X149380000Y-109720000D01*
X149380000Y-103920000D02*
X149380000Y-104120000D01*
X143380000Y-103920000D02*
X143380000Y-104120000D01*
X143380000Y-109920000D02*
X143380000Y-109720000D01*
X143380000Y-108120000D02*
X143380000Y-105720000D01*
X149380000Y-108120000D02*
X149380000Y-105720000D01*
X149380000Y-109920000D02*
X143380000Y-109920000D01*
X143380000Y-103920000D02*
X149380000Y-103920000D01*
X148080000Y-106920000D02*
G75*
G03X148080000Y-106920000I-1700000J0D01*
G01*
X152580000Y-117395000D02*
X152080000Y-117395000D01*
X152080000Y-116345000D02*
X152580000Y-116345000D01*
X149480000Y-111395000D02*
X148980000Y-111395000D01*
X148980000Y-110345000D02*
X149480000Y-110345000D01*
X132930000Y-115470000D02*
X132430000Y-115470000D01*
X132430000Y-114420000D02*
X132930000Y-114420000D01*
X166105000Y-114270000D02*
X166605000Y-114270000D01*
X166605000Y-115320000D02*
X166105000Y-115320000D01*
X145230000Y-99345000D02*
X144730000Y-99345000D01*
X144730000Y-98395000D02*
X145230000Y-98395000D01*
X141355000Y-99445000D02*
X140855000Y-99445000D01*
X140855000Y-98495000D02*
X141355000Y-98495000D01*
X139930000Y-95770000D02*
X139930000Y-96270000D01*
X138980000Y-96270000D02*
X138980000Y-95770000D01*
X139405000Y-99445000D02*
X138905000Y-99445000D01*
X138905000Y-98395000D02*
X139405000Y-98395000D01*
D14*
X112465714Y-117865909D02*
X112503810Y-117854004D01*
X112541905Y-117818290D01*
X112541905Y-117794480D01*
X112503810Y-117758766D01*
X112427619Y-117734957D01*
X112351429Y-117723052D01*
X112199048Y-117711147D01*
X112084762Y-117711147D01*
X111932381Y-117723052D01*
X111856190Y-117734957D01*
X111780000Y-117758766D01*
X111741905Y-117794480D01*
X111741905Y-117818290D01*
X111780000Y-117854004D01*
X111818095Y-117865909D01*
X111741905Y-118020671D02*
X111741905Y-118068290D01*
X111780000Y-118092099D01*
X111856190Y-118115909D01*
X112008571Y-118127814D01*
X112275238Y-118127814D01*
X112427619Y-118115909D01*
X112503810Y-118092099D01*
X112541905Y-118068290D01*
X112541905Y-118020671D01*
X112503810Y-117996861D01*
X112427619Y-117973052D01*
X112275238Y-117961147D01*
X112008571Y-117961147D01*
X111856190Y-117973052D01*
X111780000Y-117996861D01*
X111741905Y-118020671D01*
X112541905Y-118234957D02*
X111741905Y-118234957D01*
X112541905Y-118377814D01*
X111741905Y-118377814D01*
X112541905Y-118627814D02*
X112541905Y-118484957D01*
X112541905Y-118556386D02*
X111741905Y-118556386D01*
X111856190Y-118532576D01*
X111932381Y-118508767D01*
X111970476Y-118484957D01*
X132966905Y-99916429D02*
X132166905Y-99916429D01*
X132166905Y-99975953D01*
X132205000Y-100011667D01*
X132281190Y-100035476D01*
X132357381Y-100047381D01*
X132509762Y-100059286D01*
X132624048Y-100059286D01*
X132776429Y-100047381D01*
X132852619Y-100035476D01*
X132928810Y-100011667D01*
X132966905Y-99975953D01*
X132966905Y-99916429D01*
X132966905Y-100297381D02*
X132966905Y-100154524D01*
X132966905Y-100225953D02*
X132166905Y-100225953D01*
X132281190Y-100202143D01*
X132357381Y-100178334D01*
X132395476Y-100154524D01*
X132166905Y-100452143D02*
X132166905Y-100475952D01*
X132205000Y-100499762D01*
X132243095Y-100511667D01*
X132319286Y-100523571D01*
X132471667Y-100535476D01*
X132662143Y-100535476D01*
X132814524Y-100523571D01*
X132890714Y-100511667D01*
X132928810Y-100499762D01*
X132966905Y-100475952D01*
X132966905Y-100452143D01*
X132928810Y-100428333D01*
X132890714Y-100416429D01*
X132814524Y-100404524D01*
X132662143Y-100392619D01*
X132471667Y-100392619D01*
X132319286Y-100404524D01*
X132243095Y-100416429D01*
X132205000Y-100428333D01*
X132166905Y-100452143D01*
X118506428Y-104182857D02*
X118470714Y-104220952D01*
X118458809Y-104259048D01*
X118446904Y-104335238D01*
X118446904Y-104449524D01*
X118458809Y-104525714D01*
X118470714Y-104563810D01*
X118494523Y-104601905D01*
X118589761Y-104601905D01*
X118589761Y-103801905D01*
X118506428Y-103801905D01*
X118482618Y-103840000D01*
X118470714Y-103878095D01*
X118458809Y-103954286D01*
X118458809Y-104030476D01*
X118470714Y-104106667D01*
X118482618Y-104144762D01*
X118506428Y-104182857D01*
X118589761Y-104182857D01*
X118375475Y-103801905D02*
X118232618Y-103801905D01*
X118304047Y-104601905D02*
X118304047Y-103801905D01*
X118018333Y-104601905D02*
X118161190Y-104601905D01*
X118089761Y-104601905D02*
X118089761Y-103801905D01*
X118113571Y-103916190D01*
X118137380Y-103992381D01*
X118161190Y-104030476D01*
X129473333Y-114478810D02*
X129437619Y-114516905D01*
X129378095Y-114516905D01*
X129354285Y-114478810D01*
X129342381Y-114440714D01*
X129330476Y-114364524D01*
X129330476Y-114288333D01*
X129342381Y-114212143D01*
X129354285Y-114174048D01*
X129378095Y-114135952D01*
X129425714Y-114097857D01*
X129449523Y-114059762D01*
X129461428Y-114021667D01*
X129473333Y-113945476D01*
X129473333Y-113869286D01*
X129461428Y-113793095D01*
X129449523Y-113755000D01*
X129425714Y-113716905D01*
X129366190Y-113716905D01*
X129330476Y-113755000D01*
X129247143Y-113716905D02*
X129187619Y-114516905D01*
X129140000Y-113945476D01*
X129092381Y-114516905D01*
X129032857Y-113716905D01*
X128830476Y-113983571D02*
X128830476Y-114516905D01*
X128890000Y-113678810D02*
X128949524Y-114250238D01*
X128794762Y-114250238D01*
X165163333Y-114368810D02*
X165127619Y-114406905D01*
X165068095Y-114406905D01*
X165044285Y-114368810D01*
X165032381Y-114330714D01*
X165020476Y-114254524D01*
X165020476Y-114178333D01*
X165032381Y-114102143D01*
X165044285Y-114064048D01*
X165068095Y-114025952D01*
X165115714Y-113987857D01*
X165139523Y-113949762D01*
X165151428Y-113911667D01*
X165163333Y-113835476D01*
X165163333Y-113759286D01*
X165151428Y-113683095D01*
X165139523Y-113645000D01*
X165115714Y-113606905D01*
X165056190Y-113606905D01*
X165020476Y-113645000D01*
X164937143Y-113606905D02*
X164877619Y-114406905D01*
X164830000Y-113835476D01*
X164782381Y-114406905D01*
X164722857Y-113606905D01*
X164508572Y-113606905D02*
X164627619Y-113606905D01*
X164639524Y-113987857D01*
X164627619Y-113949762D01*
X164603810Y-113911667D01*
X164544286Y-113911667D01*
X164520476Y-113949762D01*
X164508572Y-113987857D01*
X164496667Y-114064048D01*
X164496667Y-114254524D01*
X164508572Y-114330714D01*
X164520476Y-114368810D01*
X164544286Y-114406905D01*
X164603810Y-114406905D01*
X164627619Y-114368810D01*
X164639524Y-114330714D01*
X126196905Y-99860477D02*
X125396905Y-99860477D01*
X125396905Y-99920001D01*
X125435000Y-99955715D01*
X125511190Y-99979524D01*
X125587381Y-99991429D01*
X125739762Y-100003334D01*
X125854048Y-100003334D01*
X126006429Y-99991429D01*
X126082619Y-99979524D01*
X126158810Y-99955715D01*
X126196905Y-99920001D01*
X126196905Y-99860477D01*
X126196905Y-100122382D02*
X126196905Y-100170001D01*
X126158810Y-100193810D01*
X126120714Y-100205715D01*
X126006429Y-100229524D01*
X125854048Y-100241429D01*
X125549286Y-100241429D01*
X125473095Y-100229524D01*
X125435000Y-100217620D01*
X125396905Y-100193810D01*
X125396905Y-100146191D01*
X125435000Y-100122382D01*
X125473095Y-100110477D01*
X125549286Y-100098572D01*
X125739762Y-100098572D01*
X125815952Y-100110477D01*
X125854048Y-100122382D01*
X125892143Y-100146191D01*
X125892143Y-100193810D01*
X125854048Y-100217620D01*
X125815952Y-100229524D01*
X125739762Y-100241429D01*
X167491905Y-77035477D02*
X166691905Y-77035477D01*
X166691905Y-77095001D01*
X166730000Y-77130715D01*
X166806190Y-77154524D01*
X166882381Y-77166429D01*
X167034762Y-77178334D01*
X167149048Y-77178334D01*
X167301429Y-77166429D01*
X167377619Y-77154524D01*
X167453810Y-77130715D01*
X167491905Y-77095001D01*
X167491905Y-77035477D01*
X166691905Y-77261667D02*
X166691905Y-77428334D01*
X167491905Y-77321191D01*
X165366905Y-77135477D02*
X164566905Y-77135477D01*
X164566905Y-77195001D01*
X164605000Y-77230715D01*
X164681190Y-77254524D01*
X164757381Y-77266429D01*
X164909762Y-77278334D01*
X165024048Y-77278334D01*
X165176429Y-77266429D01*
X165252619Y-77254524D01*
X165328810Y-77230715D01*
X165366905Y-77195001D01*
X165366905Y-77135477D01*
X164909762Y-77421191D02*
X164871667Y-77397382D01*
X164833571Y-77385477D01*
X164757381Y-77373572D01*
X164719286Y-77373572D01*
X164643095Y-77385477D01*
X164605000Y-77397382D01*
X164566905Y-77421191D01*
X164566905Y-77468810D01*
X164605000Y-77492620D01*
X164643095Y-77504524D01*
X164719286Y-77516429D01*
X164757381Y-77516429D01*
X164833571Y-77504524D01*
X164871667Y-77492620D01*
X164909762Y-77468810D01*
X164909762Y-77421191D01*
X164947857Y-77397382D01*
X164985952Y-77385477D01*
X165062143Y-77373572D01*
X165214524Y-77373572D01*
X165290714Y-77385477D01*
X165328810Y-77397382D01*
X165366905Y-77421191D01*
X165366905Y-77468810D01*
X165328810Y-77492620D01*
X165290714Y-77504524D01*
X165214524Y-77516429D01*
X165062143Y-77516429D01*
X164985952Y-77504524D01*
X164947857Y-77492620D01*
X164909762Y-77468810D01*
X145903333Y-118433810D02*
X145867619Y-118471905D01*
X145808095Y-118471905D01*
X145784285Y-118433810D01*
X145772381Y-118395714D01*
X145760476Y-118319524D01*
X145760476Y-118243333D01*
X145772381Y-118167143D01*
X145784285Y-118129048D01*
X145808095Y-118090952D01*
X145855714Y-118052857D01*
X145879523Y-118014762D01*
X145891428Y-117976667D01*
X145903333Y-117900476D01*
X145903333Y-117824286D01*
X145891428Y-117748095D01*
X145879523Y-117710000D01*
X145855714Y-117671905D01*
X145796190Y-117671905D01*
X145760476Y-117710000D01*
X145677143Y-117671905D02*
X145617619Y-118471905D01*
X145570000Y-117900476D01*
X145522381Y-118471905D01*
X145462857Y-117671905D01*
X145379524Y-117748095D02*
X145367619Y-117710000D01*
X145343810Y-117671905D01*
X145284286Y-117671905D01*
X145260476Y-117710000D01*
X145248572Y-117748095D01*
X145236667Y-117824286D01*
X145236667Y-117900476D01*
X145248572Y-118014762D01*
X145391429Y-118471905D01*
X145236667Y-118471905D01*
X124325476Y-71441905D02*
X124325476Y-72089524D01*
X124313571Y-72165714D01*
X124301667Y-72203810D01*
X124277857Y-72241905D01*
X124230238Y-72241905D01*
X124206429Y-72203810D01*
X124194524Y-72165714D01*
X124182619Y-72089524D01*
X124182619Y-71441905D01*
X123944524Y-71441905D02*
X124063571Y-71441905D01*
X124075476Y-71822857D01*
X124063571Y-71784762D01*
X124039762Y-71746667D01*
X123980238Y-71746667D01*
X123956428Y-71784762D01*
X123944524Y-71822857D01*
X123932619Y-71899048D01*
X123932619Y-72089524D01*
X123944524Y-72165714D01*
X123956428Y-72203810D01*
X123980238Y-72241905D01*
X124039762Y-72241905D01*
X124063571Y-72203810D01*
X124075476Y-72165714D01*
X129743095Y-74796190D02*
X129705000Y-74772381D01*
X129628810Y-74748571D01*
X129514524Y-74712857D01*
X129476429Y-74689048D01*
X129476429Y-74665238D01*
X129666905Y-74677143D02*
X129628810Y-74653333D01*
X129552619Y-74629524D01*
X129400238Y-74617619D01*
X129133571Y-74617619D01*
X128981190Y-74629524D01*
X128905000Y-74653333D01*
X128866905Y-74677143D01*
X128866905Y-74724762D01*
X128905000Y-74748571D01*
X128981190Y-74772381D01*
X129133571Y-74784286D01*
X129400238Y-74784286D01*
X129552619Y-74772381D01*
X129628810Y-74748571D01*
X129666905Y-74724762D01*
X129666905Y-74677143D01*
X129666905Y-75022381D02*
X129666905Y-74879524D01*
X129666905Y-74950953D02*
X128866905Y-74950953D01*
X128981190Y-74927143D01*
X129057381Y-74903334D01*
X129095476Y-74879524D01*
X160751905Y-100766429D02*
X159951905Y-100766429D01*
X159951905Y-100825953D01*
X159990000Y-100861667D01*
X160066190Y-100885476D01*
X160142381Y-100897381D01*
X160294762Y-100909286D01*
X160409048Y-100909286D01*
X160561429Y-100897381D01*
X160637619Y-100885476D01*
X160713810Y-100861667D01*
X160751905Y-100825953D01*
X160751905Y-100766429D01*
X160751905Y-101147381D02*
X160751905Y-101004524D01*
X160751905Y-101075953D02*
X159951905Y-101075953D01*
X160066190Y-101052143D01*
X160142381Y-101028334D01*
X160180476Y-101004524D01*
X160751905Y-101385476D02*
X160751905Y-101242619D01*
X160751905Y-101314048D02*
X159951905Y-101314048D01*
X160066190Y-101290238D01*
X160142381Y-101266429D01*
X160180476Y-101242619D01*
X169251905Y-100821429D02*
X168451905Y-100821429D01*
X168451905Y-100880953D01*
X168490000Y-100916667D01*
X168566190Y-100940476D01*
X168642381Y-100952381D01*
X168794762Y-100964286D01*
X168909048Y-100964286D01*
X169061429Y-100952381D01*
X169137619Y-100940476D01*
X169213810Y-100916667D01*
X169251905Y-100880953D01*
X169251905Y-100821429D01*
X169251905Y-101202381D02*
X169251905Y-101059524D01*
X169251905Y-101130953D02*
X168451905Y-101130953D01*
X168566190Y-101107143D01*
X168642381Y-101083334D01*
X168680476Y-101059524D01*
X168528095Y-101297619D02*
X168490000Y-101309524D01*
X168451905Y-101333333D01*
X168451905Y-101392857D01*
X168490000Y-101416667D01*
X168528095Y-101428571D01*
X168604286Y-101440476D01*
X168680476Y-101440476D01*
X168794762Y-101428571D01*
X169251905Y-101285714D01*
X169251905Y-101440476D01*
X139990476Y-79428810D02*
X139954762Y-79466905D01*
X139895238Y-79466905D01*
X139871428Y-79428810D01*
X139859524Y-79390714D01*
X139847619Y-79314524D01*
X139847619Y-79238333D01*
X139859524Y-79162143D01*
X139871428Y-79124048D01*
X139895238Y-79085952D01*
X139942857Y-79047857D01*
X139966666Y-79009762D01*
X139978571Y-78971667D01*
X139990476Y-78895476D01*
X139990476Y-78819286D01*
X139978571Y-78743095D01*
X139966666Y-78705000D01*
X139942857Y-78666905D01*
X139883333Y-78666905D01*
X139847619Y-78705000D01*
X139740476Y-79466905D02*
X139740476Y-78666905D01*
X139645238Y-78666905D01*
X139621429Y-78705000D01*
X139609524Y-78743095D01*
X139597619Y-78819286D01*
X139597619Y-78933571D01*
X139609524Y-79009762D01*
X139621429Y-79047857D01*
X139645238Y-79085952D01*
X139740476Y-79085952D01*
X139359524Y-79466905D02*
X139502381Y-79466905D01*
X139430952Y-79466905D02*
X139430952Y-78666905D01*
X139454762Y-78781190D01*
X139478571Y-78857381D01*
X139502381Y-78895476D01*
X120728810Y-87329524D02*
X120766905Y-87365238D01*
X120766905Y-87424762D01*
X120728810Y-87448572D01*
X120690714Y-87460476D01*
X120614524Y-87472381D01*
X120538333Y-87472381D01*
X120462143Y-87460476D01*
X120424048Y-87448572D01*
X120385952Y-87424762D01*
X120347857Y-87377143D01*
X120309762Y-87353334D01*
X120271667Y-87341429D01*
X120195476Y-87329524D01*
X120119286Y-87329524D01*
X120043095Y-87341429D01*
X120005000Y-87353334D01*
X119966905Y-87377143D01*
X119966905Y-87436667D01*
X120005000Y-87472381D01*
X120766905Y-87710476D02*
X120766905Y-87567619D01*
X120766905Y-87639048D02*
X119966905Y-87639048D01*
X120081190Y-87615238D01*
X120157381Y-87591429D01*
X120195476Y-87567619D01*
X137839523Y-123061905D02*
X137839523Y-122261905D01*
X137744285Y-122261905D01*
X137720476Y-122300000D01*
X137708571Y-122338095D01*
X137696666Y-122414286D01*
X137696666Y-122528571D01*
X137708571Y-122604762D01*
X137720476Y-122642857D01*
X137744285Y-122680952D01*
X137839523Y-122680952D01*
X137601428Y-122338095D02*
X137589523Y-122300000D01*
X137565714Y-122261905D01*
X137506190Y-122261905D01*
X137482380Y-122300000D01*
X137470476Y-122338095D01*
X137458571Y-122414286D01*
X137458571Y-122490476D01*
X137470476Y-122604762D01*
X137613333Y-123061905D01*
X137458571Y-123061905D01*
X145908333Y-110558810D02*
X145872619Y-110596905D01*
X145813095Y-110596905D01*
X145789285Y-110558810D01*
X145777381Y-110520714D01*
X145765476Y-110444524D01*
X145765476Y-110368333D01*
X145777381Y-110292143D01*
X145789285Y-110254048D01*
X145813095Y-110215952D01*
X145860714Y-110177857D01*
X145884523Y-110139762D01*
X145896428Y-110101667D01*
X145908333Y-110025476D01*
X145908333Y-109949286D01*
X145896428Y-109873095D01*
X145884523Y-109835000D01*
X145860714Y-109796905D01*
X145801190Y-109796905D01*
X145765476Y-109835000D01*
X145682143Y-109796905D02*
X145622619Y-110596905D01*
X145575000Y-110025476D01*
X145527381Y-110596905D01*
X145467857Y-109796905D01*
X145396429Y-109796905D02*
X145241667Y-109796905D01*
X145325000Y-110101667D01*
X145289286Y-110101667D01*
X145265476Y-110139762D01*
X145253572Y-110177857D01*
X145241667Y-110254048D01*
X145241667Y-110444524D01*
X145253572Y-110520714D01*
X145265476Y-110558810D01*
X145289286Y-110596905D01*
X145360714Y-110596905D01*
X145384524Y-110558810D01*
X145396429Y-110520714D01*
X153839523Y-122931905D02*
X153839523Y-122131905D01*
X153744285Y-122131905D01*
X153720476Y-122170000D01*
X153708571Y-122208095D01*
X153696666Y-122284286D01*
X153696666Y-122398571D01*
X153708571Y-122474762D01*
X153720476Y-122512857D01*
X153744285Y-122550952D01*
X153839523Y-122550952D01*
X153482380Y-122398571D02*
X153482380Y-122931905D01*
X153541904Y-122093810D02*
X153601428Y-122665238D01*
X153446666Y-122665238D01*
X164214523Y-122931905D02*
X164214523Y-122131905D01*
X164119285Y-122131905D01*
X164095476Y-122170000D01*
X164083571Y-122208095D01*
X164071666Y-122284286D01*
X164071666Y-122398571D01*
X164083571Y-122474762D01*
X164095476Y-122512857D01*
X164119285Y-122550952D01*
X164214523Y-122550952D01*
X163857380Y-122131905D02*
X163904999Y-122131905D01*
X163928809Y-122170000D01*
X163940714Y-122208095D01*
X163964523Y-122322381D01*
X163976428Y-122474762D01*
X163976428Y-122779524D01*
X163964523Y-122855714D01*
X163952618Y-122893810D01*
X163928809Y-122931905D01*
X163881190Y-122931905D01*
X163857380Y-122893810D01*
X163845476Y-122855714D01*
X163833571Y-122779524D01*
X163833571Y-122589048D01*
X163845476Y-122512857D01*
X163857380Y-122474762D01*
X163881190Y-122436667D01*
X163928809Y-122436667D01*
X163952618Y-122474762D01*
X163964523Y-122512857D01*
X163976428Y-122589048D01*
X151040714Y-117156905D02*
X151124047Y-116775952D01*
X151183571Y-117156905D02*
X151183571Y-116356905D01*
X151088333Y-116356905D01*
X151064524Y-116395000D01*
X151052619Y-116433095D01*
X151040714Y-116509286D01*
X151040714Y-116623571D01*
X151052619Y-116699762D01*
X151064524Y-116737857D01*
X151088333Y-116775952D01*
X151183571Y-116775952D01*
X150957381Y-116356905D02*
X150802619Y-116356905D01*
X150885952Y-116661667D01*
X150850238Y-116661667D01*
X150826428Y-116699762D01*
X150814524Y-116737857D01*
X150802619Y-116814048D01*
X150802619Y-117004524D01*
X150814524Y-117080714D01*
X150826428Y-117118810D01*
X150850238Y-117156905D01*
X150921666Y-117156905D01*
X150945476Y-117118810D01*
X150957381Y-117080714D01*
X150659762Y-116699762D02*
X150683571Y-116661667D01*
X150695476Y-116623571D01*
X150707381Y-116547381D01*
X150707381Y-116509286D01*
X150695476Y-116433095D01*
X150683571Y-116395000D01*
X150659762Y-116356905D01*
X150612143Y-116356905D01*
X150588333Y-116395000D01*
X150576429Y-116433095D01*
X150564524Y-116509286D01*
X150564524Y-116547381D01*
X150576429Y-116623571D01*
X150588333Y-116661667D01*
X150612143Y-116699762D01*
X150659762Y-116699762D01*
X150683571Y-116737857D01*
X150695476Y-116775952D01*
X150707381Y-116852143D01*
X150707381Y-117004524D01*
X150695476Y-117080714D01*
X150683571Y-117118810D01*
X150659762Y-117156905D01*
X150612143Y-117156905D01*
X150588333Y-117118810D01*
X150576429Y-117080714D01*
X150564524Y-117004524D01*
X150564524Y-116852143D01*
X150576429Y-116775952D01*
X150588333Y-116737857D01*
X150612143Y-116699762D01*
X150765714Y-111331905D02*
X150849047Y-110950952D01*
X150908571Y-111331905D02*
X150908571Y-110531905D01*
X150813333Y-110531905D01*
X150789524Y-110570000D01*
X150777619Y-110608095D01*
X150765714Y-110684286D01*
X150765714Y-110798571D01*
X150777619Y-110874762D01*
X150789524Y-110912857D01*
X150813333Y-110950952D01*
X150908571Y-110950952D01*
X150682381Y-110531905D02*
X150527619Y-110531905D01*
X150610952Y-110836667D01*
X150575238Y-110836667D01*
X150551428Y-110874762D01*
X150539524Y-110912857D01*
X150527619Y-110989048D01*
X150527619Y-111179524D01*
X150539524Y-111255714D01*
X150551428Y-111293810D01*
X150575238Y-111331905D01*
X150646666Y-111331905D01*
X150670476Y-111293810D01*
X150682381Y-111255714D01*
X150408571Y-111331905D02*
X150360952Y-111331905D01*
X150337143Y-111293810D01*
X150325238Y-111255714D01*
X150301429Y-111141429D01*
X150289524Y-110989048D01*
X150289524Y-110684286D01*
X150301429Y-110608095D01*
X150313333Y-110570000D01*
X150337143Y-110531905D01*
X150384762Y-110531905D01*
X150408571Y-110570000D01*
X150420476Y-110608095D01*
X150432381Y-110684286D01*
X150432381Y-110874762D01*
X150420476Y-110950952D01*
X150408571Y-110989048D01*
X150384762Y-111027143D01*
X150337143Y-111027143D01*
X150313333Y-110989048D01*
X150301429Y-110950952D01*
X150289524Y-110874762D01*
X131365714Y-115231905D02*
X131449047Y-114850952D01*
X131508571Y-115231905D02*
X131508571Y-114431905D01*
X131413333Y-114431905D01*
X131389524Y-114470000D01*
X131377619Y-114508095D01*
X131365714Y-114584286D01*
X131365714Y-114698571D01*
X131377619Y-114774762D01*
X131389524Y-114812857D01*
X131413333Y-114850952D01*
X131508571Y-114850952D01*
X131151428Y-114698571D02*
X131151428Y-115231905D01*
X131210952Y-114393810D02*
X131270476Y-114965238D01*
X131115714Y-114965238D01*
X130913333Y-114431905D02*
X130960952Y-114431905D01*
X130984762Y-114470000D01*
X130996667Y-114508095D01*
X131020476Y-114622381D01*
X131032381Y-114774762D01*
X131032381Y-115079524D01*
X131020476Y-115155714D01*
X131008571Y-115193810D01*
X130984762Y-115231905D01*
X130937143Y-115231905D01*
X130913333Y-115193810D01*
X130901429Y-115155714D01*
X130889524Y-115079524D01*
X130889524Y-114889048D01*
X130901429Y-114812857D01*
X130913333Y-114774762D01*
X130937143Y-114736667D01*
X130984762Y-114736667D01*
X131008571Y-114774762D01*
X131020476Y-114812857D01*
X131032381Y-114889048D01*
X167915714Y-115206905D02*
X167999047Y-114825952D01*
X168058571Y-115206905D02*
X168058571Y-114406905D01*
X167963333Y-114406905D01*
X167939524Y-114445000D01*
X167927619Y-114483095D01*
X167915714Y-114559286D01*
X167915714Y-114673571D01*
X167927619Y-114749762D01*
X167939524Y-114787857D01*
X167963333Y-114825952D01*
X168058571Y-114825952D01*
X167701428Y-114673571D02*
X167701428Y-115206905D01*
X167760952Y-114368810D02*
X167820476Y-114940238D01*
X167665714Y-114940238D01*
X167594286Y-114406905D02*
X167427619Y-114406905D01*
X167534762Y-115206905D01*
X146690714Y-99230714D02*
X146702619Y-99268810D01*
X146738333Y-99306905D01*
X146762143Y-99306905D01*
X146797857Y-99268810D01*
X146821666Y-99192619D01*
X146833571Y-99116429D01*
X146845476Y-98964048D01*
X146845476Y-98849762D01*
X146833571Y-98697381D01*
X146821666Y-98621190D01*
X146797857Y-98545000D01*
X146762143Y-98506905D01*
X146738333Y-98506905D01*
X146702619Y-98545000D01*
X146690714Y-98583095D01*
X146476428Y-98773571D02*
X146476428Y-99306905D01*
X146535952Y-98468810D02*
X146595476Y-99040238D01*
X146440714Y-99040238D01*
X146297857Y-98506905D02*
X146274048Y-98506905D01*
X146250238Y-98545000D01*
X146238333Y-98583095D01*
X146226429Y-98659286D01*
X146214524Y-98811667D01*
X146214524Y-99002143D01*
X146226429Y-99154524D01*
X146238333Y-99230714D01*
X146250238Y-99268810D01*
X146274048Y-99306905D01*
X146297857Y-99306905D01*
X146321667Y-99268810D01*
X146333571Y-99230714D01*
X146345476Y-99154524D01*
X146357381Y-99002143D01*
X146357381Y-98811667D01*
X146345476Y-98659286D01*
X146333571Y-98583095D01*
X146321667Y-98545000D01*
X146297857Y-98506905D01*
X141215714Y-100280714D02*
X141227619Y-100318810D01*
X141263333Y-100356905D01*
X141287143Y-100356905D01*
X141322857Y-100318810D01*
X141346666Y-100242619D01*
X141358571Y-100166429D01*
X141370476Y-100014048D01*
X141370476Y-99899762D01*
X141358571Y-99747381D01*
X141346666Y-99671190D01*
X141322857Y-99595000D01*
X141287143Y-99556905D01*
X141263333Y-99556905D01*
X141227619Y-99595000D01*
X141215714Y-99633095D01*
X141001428Y-99823571D02*
X141001428Y-100356905D01*
X141060952Y-99518810D02*
X141120476Y-100090238D01*
X140965714Y-100090238D01*
X140739524Y-100356905D02*
X140882381Y-100356905D01*
X140810952Y-100356905D02*
X140810952Y-99556905D01*
X140834762Y-99671190D01*
X140858571Y-99747381D01*
X140882381Y-99785476D01*
X139815714Y-97209286D02*
X139853810Y-97197381D01*
X139891905Y-97161667D01*
X139891905Y-97137857D01*
X139853810Y-97102143D01*
X139777619Y-97078334D01*
X139701429Y-97066429D01*
X139549048Y-97054524D01*
X139434762Y-97054524D01*
X139282381Y-97066429D01*
X139206190Y-97078334D01*
X139130000Y-97102143D01*
X139091905Y-97137857D01*
X139091905Y-97161667D01*
X139130000Y-97197381D01*
X139168095Y-97209286D01*
X139358571Y-97423572D02*
X139891905Y-97423572D01*
X139053810Y-97364048D02*
X139625238Y-97304524D01*
X139625238Y-97459286D01*
X139168095Y-97542619D02*
X139130000Y-97554524D01*
X139091905Y-97578333D01*
X139091905Y-97637857D01*
X139130000Y-97661667D01*
X139168095Y-97673571D01*
X139244286Y-97685476D01*
X139320476Y-97685476D01*
X139434762Y-97673571D01*
X139891905Y-97530714D01*
X139891905Y-97685476D01*
X139315714Y-100406905D02*
X139399047Y-100025952D01*
X139458571Y-100406905D02*
X139458571Y-99606905D01*
X139363333Y-99606905D01*
X139339524Y-99645000D01*
X139327619Y-99683095D01*
X139315714Y-99759286D01*
X139315714Y-99873571D01*
X139327619Y-99949762D01*
X139339524Y-99987857D01*
X139363333Y-100025952D01*
X139458571Y-100025952D01*
X139220476Y-99683095D02*
X139208571Y-99645000D01*
X139184762Y-99606905D01*
X139125238Y-99606905D01*
X139101428Y-99645000D01*
X139089524Y-99683095D01*
X139077619Y-99759286D01*
X139077619Y-99835476D01*
X139089524Y-99949762D01*
X139232381Y-100406905D01*
X139077619Y-100406905D01*
X138982381Y-99683095D02*
X138970476Y-99645000D01*
X138946667Y-99606905D01*
X138887143Y-99606905D01*
X138863333Y-99645000D01*
X138851429Y-99683095D01*
X138839524Y-99759286D01*
X138839524Y-99835476D01*
X138851429Y-99949762D01*
X138994286Y-100406905D01*
X138839524Y-100406905D01*
X139495476Y-95131905D02*
X139495476Y-95779524D01*
X139483571Y-95855714D01*
X139471667Y-95893810D01*
X139447857Y-95931905D01*
X139400238Y-95931905D01*
X139376429Y-95893810D01*
X139364524Y-95855714D01*
X139352619Y-95779524D01*
X139352619Y-95131905D01*
X139197857Y-95474762D02*
X139221666Y-95436667D01*
X139233571Y-95398571D01*
X139245476Y-95322381D01*
X139245476Y-95284286D01*
X139233571Y-95208095D01*
X139221666Y-95170000D01*
X139197857Y-95131905D01*
X139150238Y-95131905D01*
X139126428Y-95170000D01*
X139114524Y-95208095D01*
X139102619Y-95284286D01*
X139102619Y-95322381D01*
X139114524Y-95398571D01*
X139126428Y-95436667D01*
X139150238Y-95474762D01*
X139197857Y-95474762D01*
X139221666Y-95512857D01*
X139233571Y-95550952D01*
X139245476Y-95627143D01*
X139245476Y-95779524D01*
X139233571Y-95855714D01*
X139221666Y-95893810D01*
X139197857Y-95931905D01*
X139150238Y-95931905D01*
X139126428Y-95893810D01*
X139114524Y-95855714D01*
X139102619Y-95779524D01*
X139102619Y-95627143D01*
X139114524Y-95550952D01*
X139126428Y-95512857D01*
X139150238Y-95474762D01*
D11*
X120152381Y-90951905D02*
X119152381Y-90951905D01*
X119152381Y-91332858D01*
X119200000Y-91428096D01*
X119247619Y-91475715D01*
X119342857Y-91523334D01*
X119485714Y-91523334D01*
X119580952Y-91475715D01*
X119628571Y-91428096D01*
X119676190Y-91332858D01*
X119676190Y-90951905D01*
X119152381Y-91856667D02*
X119152381Y-92523334D01*
X120152381Y-92094762D01*
M02*
