G04 #@! TF.FileFunction,Copper,L2,Bot,Signal*
%FSLAX46Y46*%
G04 Gerber Fmt 4.6, Leading zero omitted, Abs format (unit mm)*
G04 Created by KiCad (PCBNEW 4.0.0-rc2-stable) date 1/25/2016 6:21:02 PM*
%MOMM*%
G01*
G04 APERTURE LIST*
%ADD10C,0.100000*%
%ADD11C,0.150000*%
%ADD12C,0.300000*%
%ADD13C,0.400000*%
%ADD14C,4.064000*%
%ADD15R,3.500120X3.500120*%
%ADD16R,1.397000X1.397000*%
%ADD17C,1.397000*%
%ADD18R,2.032000X2.032000*%
%ADD19O,2.032000X2.032000*%
%ADD20C,0.970000*%
%ADD21C,1.000760*%
%ADD22R,0.570000X0.650000*%
%ADD23R,1.200000X1.700000*%
%ADD24O,1.200000X1.700000*%
%ADD25R,2.750000X1.000000*%
%ADD26R,0.800000X0.800000*%
%ADD27R,1.550000X0.600000*%
%ADD28C,1.100000*%
%ADD29R,0.800000X1.100000*%
%ADD30R,0.800100X1.100000*%
%ADD31R,4.000000X3.000000*%
%ADD32R,1.800000X0.350000*%
%ADD33R,0.400000X0.600000*%
%ADD34R,0.600000X0.500000*%
%ADD35R,0.500000X0.600000*%
%ADD36R,1.245000X1.448000*%
%ADD37R,2.800000X2.200000*%
%ADD38C,1.700000*%
%ADD39C,0.450000*%
%ADD40C,0.600000*%
%ADD41C,0.350000*%
%ADD42C,0.250000*%
%ADD43C,0.500000*%
%ADD44C,0.254000*%
G04 APERTURE END LIST*
D10*
D11*
X159400000Y-171900000D02*
X159400000Y-203900000D01*
X267400000Y-203900000D01*
X267400000Y-171900000D01*
X159400000Y-171900000D01*
D10*
D11*
X10000000Y-10000000D02*
X10000000Y-205900000D01*
X269400000Y-205900000D01*
X269400000Y-10000000D01*
X10000000Y-10000000D01*
D10*
D11*
X12000000Y-12000000D02*
X12000000Y-203900000D01*
X267400000Y-203900000D01*
X267400000Y-12000000D01*
X12000000Y-12000000D01*
D10*
D11*
X60000000Y-12000000D02*
X60000000Y-10000000D01*
D10*
D11*
X110000000Y-12000000D02*
X110000000Y-10000000D01*
D10*
D11*
X160000000Y-12000000D02*
X160000000Y-10000000D01*
D10*
D11*
X210000000Y-12000000D02*
X210000000Y-10000000D01*
D10*
D11*
X260000000Y-12000000D02*
X260000000Y-10000000D01*
D10*
D11*
X35990476Y-11588095D02*
X35247619Y-11588095D01*
X35619048Y-11588095D02*
X35619048Y-10288095D01*
X35495238Y-10473810D01*
X35371429Y-10597619D01*
X35247619Y-10659524D01*
D10*
D11*
X85247619Y-10411905D02*
X85309524Y-10350000D01*
X85433333Y-10288095D01*
X85742857Y-10288095D01*
X85866667Y-10350000D01*
X85928571Y-10411905D01*
X85990476Y-10535714D01*
X85990476Y-10659524D01*
X85928571Y-10845238D01*
X85185714Y-11588095D01*
X85990476Y-11588095D01*
D10*
D11*
X135185714Y-10288095D02*
X135990476Y-10288095D01*
X135557143Y-10783333D01*
X135742857Y-10783333D01*
X135866667Y-10845238D01*
X135928571Y-10907143D01*
X135990476Y-11030952D01*
X135990476Y-11340476D01*
X135928571Y-11464286D01*
X135866667Y-11526190D01*
X135742857Y-11588095D01*
X135371429Y-11588095D01*
X135247619Y-11526190D01*
X135185714Y-11464286D01*
D10*
D11*
X185866667Y-10721429D02*
X185866667Y-11588095D01*
X185557143Y-10226190D02*
X185247619Y-11154762D01*
X186052381Y-11154762D01*
D10*
D11*
X235928571Y-10288095D02*
X235309524Y-10288095D01*
X235247619Y-10907143D01*
X235309524Y-10845238D01*
X235433333Y-10783333D01*
X235742857Y-10783333D01*
X235866667Y-10845238D01*
X235928571Y-10907143D01*
X235990476Y-11030952D01*
X235990476Y-11340476D01*
X235928571Y-11464286D01*
X235866667Y-11526190D01*
X235742857Y-11588095D01*
X235433333Y-11588095D01*
X235309524Y-11526190D01*
X235247619Y-11464286D01*
D10*
D11*
X60000000Y-203900000D02*
X60000000Y-205900000D01*
D10*
D11*
X110000000Y-203900000D02*
X110000000Y-205900000D01*
D10*
D11*
X160000000Y-203900000D02*
X160000000Y-205900000D01*
D10*
D11*
X210000000Y-203900000D02*
X210000000Y-205900000D01*
D10*
D11*
X260000000Y-203900000D02*
X260000000Y-205900000D01*
D10*
D11*
X35990476Y-205488095D02*
X35247619Y-205488095D01*
X35619048Y-205488095D02*
X35619048Y-204188095D01*
X35495238Y-204373810D01*
X35371429Y-204497619D01*
X35247619Y-204559524D01*
D10*
D11*
X85247619Y-204311905D02*
X85309524Y-204250000D01*
X85433333Y-204188095D01*
X85742857Y-204188095D01*
X85866667Y-204250000D01*
X85928571Y-204311905D01*
X85990476Y-204435714D01*
X85990476Y-204559524D01*
X85928571Y-204745238D01*
X85185714Y-205488095D01*
X85990476Y-205488095D01*
D10*
D11*
X135185714Y-204188095D02*
X135990476Y-204188095D01*
X135557143Y-204683333D01*
X135742857Y-204683333D01*
X135866667Y-204745238D01*
X135928571Y-204807143D01*
X135990476Y-204930952D01*
X135990476Y-205240476D01*
X135928571Y-205364286D01*
X135866667Y-205426190D01*
X135742857Y-205488095D01*
X135371429Y-205488095D01*
X135247619Y-205426190D01*
X135185714Y-205364286D01*
D10*
D11*
X185866667Y-204621429D02*
X185866667Y-205488095D01*
X185557143Y-204126190D02*
X185247619Y-205054762D01*
X186052381Y-205054762D01*
D10*
D11*
X235928571Y-204188095D02*
X235309524Y-204188095D01*
X235247619Y-204807143D01*
X235309524Y-204745238D01*
X235433333Y-204683333D01*
X235742857Y-204683333D01*
X235866667Y-204745238D01*
X235928571Y-204807143D01*
X235990476Y-204930952D01*
X235990476Y-205240476D01*
X235928571Y-205364286D01*
X235866667Y-205426190D01*
X235742857Y-205488095D01*
X235433333Y-205488095D01*
X235309524Y-205426190D01*
X235247619Y-205364286D01*
D10*
D11*
X10000000Y-60000000D02*
X12000000Y-60000000D01*
D10*
D11*
X10000000Y-110000000D02*
X12000000Y-110000000D01*
D10*
D11*
X10000000Y-160000000D02*
X12000000Y-160000000D01*
D10*
D11*
X10690476Y-35216667D02*
X11309524Y-35216667D01*
X10566667Y-35588095D02*
X11000000Y-34288095D01*
X11433333Y-35588095D01*
D10*
D11*
X11092857Y-84907143D02*
X11278571Y-84969048D01*
X11340476Y-85030952D01*
X11402381Y-85154762D01*
X11402381Y-85340476D01*
X11340476Y-85464286D01*
X11278571Y-85526190D01*
X11154762Y-85588095D01*
X10659524Y-85588095D01*
X10659524Y-84288095D01*
X11092857Y-84288095D01*
X11216667Y-84350000D01*
X11278571Y-84411905D01*
X11340476Y-84535714D01*
X11340476Y-84659524D01*
X11278571Y-84783333D01*
X11216667Y-84845238D01*
X11092857Y-84907143D01*
X10659524Y-84907143D01*
D10*
D11*
X11402381Y-135464286D02*
X11340476Y-135526190D01*
X11154762Y-135588095D01*
X11030952Y-135588095D01*
X10845238Y-135526190D01*
X10721429Y-135402381D01*
X10659524Y-135278571D01*
X10597619Y-135030952D01*
X10597619Y-134845238D01*
X10659524Y-134597619D01*
X10721429Y-134473810D01*
X10845238Y-134350000D01*
X11030952Y-134288095D01*
X11154762Y-134288095D01*
X11340476Y-134350000D01*
X11402381Y-134411905D01*
D10*
D11*
X10659524Y-185588095D02*
X10659524Y-184288095D01*
X10969048Y-184288095D01*
X11154762Y-184350000D01*
X11278571Y-184473810D01*
X11340476Y-184597619D01*
X11402381Y-184845238D01*
X11402381Y-185030952D01*
X11340476Y-185278571D01*
X11278571Y-185402381D01*
X11154762Y-185526190D01*
X10969048Y-185588095D01*
X10659524Y-185588095D01*
D10*
D11*
X269400000Y-60000000D02*
X267400000Y-60000000D01*
D10*
D11*
X269400000Y-110000000D02*
X267400000Y-110000000D01*
D10*
D11*
X269400000Y-160000000D02*
X267400000Y-160000000D01*
D10*
D11*
X268090476Y-35216667D02*
X268709524Y-35216667D01*
X267966667Y-35588095D02*
X268400000Y-34288095D01*
X268833333Y-35588095D01*
D10*
D11*
X268492857Y-84907143D02*
X268678571Y-84969048D01*
X268740476Y-85030952D01*
X268802381Y-85154762D01*
X268802381Y-85340476D01*
X268740476Y-85464286D01*
X268678571Y-85526190D01*
X268554762Y-85588095D01*
X268059524Y-85588095D01*
X268059524Y-84288095D01*
X268492857Y-84288095D01*
X268616667Y-84350000D01*
X268678571Y-84411905D01*
X268740476Y-84535714D01*
X268740476Y-84659524D01*
X268678571Y-84783333D01*
X268616667Y-84845238D01*
X268492857Y-84907143D01*
X268059524Y-84907143D01*
D10*
D11*
X268802381Y-135464286D02*
X268740476Y-135526190D01*
X268554762Y-135588095D01*
X268430952Y-135588095D01*
X268245238Y-135526190D01*
X268121429Y-135402381D01*
X268059524Y-135278571D01*
X267997619Y-135030952D01*
X267997619Y-134845238D01*
X268059524Y-134597619D01*
X268121429Y-134473810D01*
X268245238Y-134350000D01*
X268430952Y-134288095D01*
X268554762Y-134288095D01*
X268740476Y-134350000D01*
X268802381Y-134411905D01*
D10*
D11*
X268059524Y-185588095D02*
X268059524Y-184288095D01*
X268369048Y-184288095D01*
X268554762Y-184350000D01*
X268678571Y-184473810D01*
X268740476Y-184597619D01*
X268802381Y-184845238D01*
X268802381Y-185030952D01*
X268740476Y-185278571D01*
X268678571Y-185402381D01*
X268554762Y-185526190D01*
X268369048Y-185588095D01*
X268059524Y-185588095D01*
D10*
D11*
X182757143Y-199678571D02*
X182757143Y-198178571D01*
X183114286Y-198178571D01*
X183328571Y-198250000D01*
X183471429Y-198392857D01*
X183542857Y-198535714D01*
X183614286Y-198821429D01*
X183614286Y-199035714D01*
X183542857Y-199321429D01*
X183471429Y-199464286D01*
X183328571Y-199607143D01*
X183114286Y-199678571D01*
X182757143Y-199678571D01*
X184900000Y-199678571D02*
X184900000Y-198892857D01*
X184828571Y-198750000D01*
X184685714Y-198678571D01*
X184400000Y-198678571D01*
X184257143Y-198750000D01*
X184900000Y-199607143D02*
X184757143Y-199678571D01*
X184400000Y-199678571D01*
X184257143Y-199607143D01*
X184185714Y-199464286D01*
X184185714Y-199321429D01*
X184257143Y-199178571D01*
X184400000Y-199107143D01*
X184757143Y-199107143D01*
X184900000Y-199035714D01*
X185400000Y-198678571D02*
X185971429Y-198678571D01*
X185614286Y-198178571D02*
X185614286Y-199464286D01*
X185685714Y-199607143D01*
X185828572Y-199678571D01*
X185971429Y-199678571D01*
X187042857Y-199607143D02*
X186900000Y-199678571D01*
X186614286Y-199678571D01*
X186471429Y-199607143D01*
X186400000Y-199464286D01*
X186400000Y-198892857D01*
X186471429Y-198750000D01*
X186614286Y-198678571D01*
X186900000Y-198678571D01*
X187042857Y-198750000D01*
X187114286Y-198892857D01*
X187114286Y-199035714D01*
X186400000Y-199178571D01*
X187757143Y-199535714D02*
X187828571Y-199607143D01*
X187757143Y-199678571D01*
X187685714Y-199607143D01*
X187757143Y-199535714D01*
X187757143Y-199678571D01*
X187757143Y-198750000D02*
X187828571Y-198821429D01*
X187757143Y-198892857D01*
X187685714Y-198821429D01*
X187757143Y-198750000D01*
X187757143Y-198892857D01*
D10*
D11*
X159400000Y-200400000D02*
X267400000Y-200400000D01*
D10*
D11*
X160757143Y-202478571D02*
X160757143Y-200978571D01*
X161614286Y-202478571D02*
X160971429Y-201621429D01*
X161614286Y-200978571D02*
X160757143Y-201835714D01*
X162257143Y-202478571D02*
X162257143Y-201478571D01*
X162257143Y-200978571D02*
X162185714Y-201050000D01*
X162257143Y-201121429D01*
X162328571Y-201050000D01*
X162257143Y-200978571D01*
X162257143Y-201121429D01*
X163828572Y-202335714D02*
X163757143Y-202407143D01*
X163542857Y-202478571D01*
X163400000Y-202478571D01*
X163185715Y-202407143D01*
X163042857Y-202264286D01*
X162971429Y-202121429D01*
X162900000Y-201835714D01*
X162900000Y-201621429D01*
X162971429Y-201335714D01*
X163042857Y-201192857D01*
X163185715Y-201050000D01*
X163400000Y-200978571D01*
X163542857Y-200978571D01*
X163757143Y-201050000D01*
X163828572Y-201121429D01*
X165114286Y-202478571D02*
X165114286Y-201692857D01*
X165042857Y-201550000D01*
X164900000Y-201478571D01*
X164614286Y-201478571D01*
X164471429Y-201550000D01*
X165114286Y-202407143D02*
X164971429Y-202478571D01*
X164614286Y-202478571D01*
X164471429Y-202407143D01*
X164400000Y-202264286D01*
X164400000Y-202121429D01*
X164471429Y-201978571D01*
X164614286Y-201907143D01*
X164971429Y-201907143D01*
X165114286Y-201835714D01*
X166471429Y-202478571D02*
X166471429Y-200978571D01*
X166471429Y-202407143D02*
X166328572Y-202478571D01*
X166042858Y-202478571D01*
X165900000Y-202407143D01*
X165828572Y-202335714D01*
X165757143Y-202192857D01*
X165757143Y-201764286D01*
X165828572Y-201621429D01*
X165900000Y-201550000D01*
X166042858Y-201478571D01*
X166328572Y-201478571D01*
X166471429Y-201550000D01*
X168328572Y-201692857D02*
X168828572Y-201692857D01*
X169042858Y-202478571D02*
X168328572Y-202478571D01*
X168328572Y-200978571D01*
X169042858Y-200978571D01*
X169685715Y-202335714D02*
X169757143Y-202407143D01*
X169685715Y-202478571D01*
X169614286Y-202407143D01*
X169685715Y-202335714D01*
X169685715Y-202478571D01*
X170400001Y-202478571D02*
X170400001Y-200978571D01*
X170757144Y-200978571D01*
X170971429Y-201050000D01*
X171114287Y-201192857D01*
X171185715Y-201335714D01*
X171257144Y-201621429D01*
X171257144Y-201835714D01*
X171185715Y-202121429D01*
X171114287Y-202264286D01*
X170971429Y-202407143D01*
X170757144Y-202478571D01*
X170400001Y-202478571D01*
X171900001Y-202335714D02*
X171971429Y-202407143D01*
X171900001Y-202478571D01*
X171828572Y-202407143D01*
X171900001Y-202335714D01*
X171900001Y-202478571D01*
X172542858Y-202050000D02*
X173257144Y-202050000D01*
X172400001Y-202478571D02*
X172900001Y-200978571D01*
X173400001Y-202478571D01*
X173900001Y-202335714D02*
X173971429Y-202407143D01*
X173900001Y-202478571D01*
X173828572Y-202407143D01*
X173900001Y-202335714D01*
X173900001Y-202478571D01*
X176900001Y-202478571D02*
X176900001Y-200978571D01*
X177042858Y-201907143D02*
X177471429Y-202478571D01*
X177471429Y-201478571D02*
X176900001Y-202050000D01*
X178114287Y-202478571D02*
X178114287Y-201478571D01*
X178114287Y-200978571D02*
X178042858Y-201050000D01*
X178114287Y-201121429D01*
X178185715Y-201050000D01*
X178114287Y-200978571D01*
X178114287Y-201121429D01*
X179471430Y-202407143D02*
X179328573Y-202478571D01*
X179042859Y-202478571D01*
X178900001Y-202407143D01*
X178828573Y-202335714D01*
X178757144Y-202192857D01*
X178757144Y-201764286D01*
X178828573Y-201621429D01*
X178900001Y-201550000D01*
X179042859Y-201478571D01*
X179328573Y-201478571D01*
X179471430Y-201550000D01*
X180757144Y-202478571D02*
X180757144Y-201692857D01*
X180685715Y-201550000D01*
X180542858Y-201478571D01*
X180257144Y-201478571D01*
X180114287Y-201550000D01*
X180757144Y-202407143D02*
X180614287Y-202478571D01*
X180257144Y-202478571D01*
X180114287Y-202407143D01*
X180042858Y-202264286D01*
X180042858Y-202121429D01*
X180114287Y-201978571D01*
X180257144Y-201907143D01*
X180614287Y-201907143D01*
X180757144Y-201835714D01*
X182114287Y-202478571D02*
X182114287Y-200978571D01*
X182114287Y-202407143D02*
X181971430Y-202478571D01*
X181685716Y-202478571D01*
X181542858Y-202407143D01*
X181471430Y-202335714D01*
X181400001Y-202192857D01*
X181400001Y-201764286D01*
X181471430Y-201621429D01*
X181542858Y-201550000D01*
X181685716Y-201478571D01*
X181971430Y-201478571D01*
X182114287Y-201550000D01*
X184614287Y-201478571D02*
X184614287Y-202478571D01*
X184257144Y-200907143D02*
X183900001Y-201978571D01*
X184828573Y-201978571D01*
X185400001Y-202335714D02*
X185471429Y-202407143D01*
X185400001Y-202478571D01*
X185328572Y-202407143D01*
X185400001Y-202335714D01*
X185400001Y-202478571D01*
X186400001Y-200978571D02*
X186542858Y-200978571D01*
X186685715Y-201050000D01*
X186757144Y-201121429D01*
X186828573Y-201264286D01*
X186900001Y-201550000D01*
X186900001Y-201907143D01*
X186828573Y-202192857D01*
X186757144Y-202335714D01*
X186685715Y-202407143D01*
X186542858Y-202478571D01*
X186400001Y-202478571D01*
X186257144Y-202407143D01*
X186185715Y-202335714D01*
X186114287Y-202192857D01*
X186042858Y-201907143D01*
X186042858Y-201550000D01*
X186114287Y-201264286D01*
X186185715Y-201121429D01*
X186257144Y-201050000D01*
X186400001Y-200978571D01*
X187542858Y-202335714D02*
X187614286Y-202407143D01*
X187542858Y-202478571D01*
X187471429Y-202407143D01*
X187542858Y-202335714D01*
X187542858Y-202478571D01*
X188542858Y-200978571D02*
X188685715Y-200978571D01*
X188828572Y-201050000D01*
X188900001Y-201121429D01*
X188971430Y-201264286D01*
X189042858Y-201550000D01*
X189042858Y-201907143D01*
X188971430Y-202192857D01*
X188900001Y-202335714D01*
X188828572Y-202407143D01*
X188685715Y-202478571D01*
X188542858Y-202478571D01*
X188400001Y-202407143D01*
X188328572Y-202335714D01*
X188257144Y-202192857D01*
X188185715Y-201907143D01*
X188185715Y-201550000D01*
X188257144Y-201264286D01*
X188328572Y-201121429D01*
X188400001Y-201050000D01*
X188542858Y-200978571D01*
X189685715Y-201907143D02*
X190828572Y-201907143D01*
X191542858Y-202478571D02*
X191542858Y-201478571D01*
X191542858Y-201764286D02*
X191614286Y-201621429D01*
X191685715Y-201550000D01*
X191828572Y-201478571D01*
X191971429Y-201478571D01*
X193114286Y-202407143D02*
X192971429Y-202478571D01*
X192685715Y-202478571D01*
X192542857Y-202407143D01*
X192471429Y-202335714D01*
X192400000Y-202192857D01*
X192400000Y-201764286D01*
X192471429Y-201621429D01*
X192542857Y-201550000D01*
X192685715Y-201478571D01*
X192971429Y-201478571D01*
X193114286Y-201550000D01*
X193685714Y-201121429D02*
X193757143Y-201050000D01*
X193900000Y-200978571D01*
X194257143Y-200978571D01*
X194400000Y-201050000D01*
X194471429Y-201121429D01*
X194542857Y-201264286D01*
X194542857Y-201407143D01*
X194471429Y-201621429D01*
X193614286Y-202478571D01*
X194542857Y-202478571D01*
X195185714Y-201907143D02*
X196328571Y-201907143D01*
X196971428Y-202407143D02*
X197114285Y-202478571D01*
X197400000Y-202478571D01*
X197542857Y-202407143D01*
X197614285Y-202264286D01*
X197614285Y-202192857D01*
X197542857Y-202050000D01*
X197400000Y-201978571D01*
X197185714Y-201978571D01*
X197042857Y-201907143D01*
X196971428Y-201764286D01*
X196971428Y-201692857D01*
X197042857Y-201550000D01*
X197185714Y-201478571D01*
X197400000Y-201478571D01*
X197542857Y-201550000D01*
X198042857Y-201478571D02*
X198614286Y-201478571D01*
X198257143Y-200978571D02*
X198257143Y-202264286D01*
X198328571Y-202407143D01*
X198471429Y-202478571D01*
X198614286Y-202478571D01*
X199757143Y-202478571D02*
X199757143Y-201692857D01*
X199685714Y-201550000D01*
X199542857Y-201478571D01*
X199257143Y-201478571D01*
X199114286Y-201550000D01*
X199757143Y-202407143D02*
X199614286Y-202478571D01*
X199257143Y-202478571D01*
X199114286Y-202407143D01*
X199042857Y-202264286D01*
X199042857Y-202121429D01*
X199114286Y-201978571D01*
X199257143Y-201907143D01*
X199614286Y-201907143D01*
X199757143Y-201835714D01*
X200471429Y-202478571D02*
X200471429Y-200978571D01*
X200471429Y-201550000D02*
X200614286Y-201478571D01*
X200900000Y-201478571D01*
X201042857Y-201550000D01*
X201114286Y-201621429D01*
X201185715Y-201764286D01*
X201185715Y-202192857D01*
X201114286Y-202335714D01*
X201042857Y-202407143D01*
X200900000Y-202478571D01*
X200614286Y-202478571D01*
X200471429Y-202407143D01*
X202042858Y-202478571D02*
X201900000Y-202407143D01*
X201828572Y-202264286D01*
X201828572Y-200978571D01*
X203185714Y-202407143D02*
X203042857Y-202478571D01*
X202757143Y-202478571D01*
X202614286Y-202407143D01*
X202542857Y-202264286D01*
X202542857Y-201692857D01*
X202614286Y-201550000D01*
X202757143Y-201478571D01*
X203042857Y-201478571D01*
X203185714Y-201550000D01*
X203257143Y-201692857D01*
X203257143Y-201835714D01*
X202542857Y-201978571D01*
D10*
D11*
X159400000Y-197400000D02*
X267400000Y-197400000D01*
D10*
D12*
X246614286Y-199678571D02*
X246114286Y-198964286D01*
X245757143Y-199678571D02*
X245757143Y-198178571D01*
X246328571Y-198178571D01*
X246471429Y-198250000D01*
X246542857Y-198321429D01*
X246614286Y-198464286D01*
X246614286Y-198678571D01*
X246542857Y-198821429D01*
X246471429Y-198892857D01*
X246328571Y-198964286D01*
X245757143Y-198964286D01*
X247828571Y-199607143D02*
X247685714Y-199678571D01*
X247400000Y-199678571D01*
X247257143Y-199607143D01*
X247185714Y-199464286D01*
X247185714Y-198892857D01*
X247257143Y-198750000D01*
X247400000Y-198678571D01*
X247685714Y-198678571D01*
X247828571Y-198750000D01*
X247900000Y-198892857D01*
X247900000Y-199035714D01*
X247185714Y-199178571D01*
X248400000Y-198678571D02*
X248757143Y-199678571D01*
X249114285Y-198678571D01*
X249685714Y-199535714D02*
X249757142Y-199607143D01*
X249685714Y-199678571D01*
X249614285Y-199607143D01*
X249685714Y-199535714D01*
X249685714Y-199678571D01*
X249685714Y-198750000D02*
X249757142Y-198821429D01*
X249685714Y-198892857D01*
X249614285Y-198821429D01*
X249685714Y-198750000D01*
X249685714Y-198892857D01*
D10*
D11*
X160685714Y-199607143D02*
X160900000Y-199678571D01*
X161257143Y-199678571D01*
X161400000Y-199607143D01*
X161471429Y-199535714D01*
X161542857Y-199392857D01*
X161542857Y-199250000D01*
X161471429Y-199107143D01*
X161400000Y-199035714D01*
X161257143Y-198964286D01*
X160971429Y-198892857D01*
X160828571Y-198821429D01*
X160757143Y-198750000D01*
X160685714Y-198607143D01*
X160685714Y-198464286D01*
X160757143Y-198321429D01*
X160828571Y-198250000D01*
X160971429Y-198178571D01*
X161328571Y-198178571D01*
X161542857Y-198250000D01*
X162185714Y-199678571D02*
X162185714Y-198678571D01*
X162185714Y-198178571D02*
X162114285Y-198250000D01*
X162185714Y-198321429D01*
X162257142Y-198250000D01*
X162185714Y-198178571D01*
X162185714Y-198321429D01*
X162757143Y-198678571D02*
X163542857Y-198678571D01*
X162757143Y-199678571D01*
X163542857Y-199678571D01*
X164685714Y-199607143D02*
X164542857Y-199678571D01*
X164257143Y-199678571D01*
X164114286Y-199607143D01*
X164042857Y-199464286D01*
X164042857Y-198892857D01*
X164114286Y-198750000D01*
X164257143Y-198678571D01*
X164542857Y-198678571D01*
X164685714Y-198750000D01*
X164757143Y-198892857D01*
X164757143Y-199035714D01*
X164042857Y-199178571D01*
X165400000Y-199535714D02*
X165471428Y-199607143D01*
X165400000Y-199678571D01*
X165328571Y-199607143D01*
X165400000Y-199535714D01*
X165400000Y-199678571D01*
X165400000Y-198750000D02*
X165471428Y-198821429D01*
X165400000Y-198892857D01*
X165328571Y-198821429D01*
X165400000Y-198750000D01*
X165400000Y-198892857D01*
X167185714Y-199250000D02*
X167900000Y-199250000D01*
X167042857Y-199678571D02*
X167542857Y-198178571D01*
X168042857Y-199678571D01*
D10*
D11*
X245757143Y-202478571D02*
X245757143Y-200978571D01*
X247114286Y-202478571D02*
X247114286Y-200978571D01*
X247114286Y-202407143D02*
X246971429Y-202478571D01*
X246685715Y-202478571D01*
X246542857Y-202407143D01*
X246471429Y-202335714D01*
X246400000Y-202192857D01*
X246400000Y-201764286D01*
X246471429Y-201621429D01*
X246542857Y-201550000D01*
X246685715Y-201478571D01*
X246971429Y-201478571D01*
X247114286Y-201550000D01*
X247828572Y-202335714D02*
X247900000Y-202407143D01*
X247828572Y-202478571D01*
X247757143Y-202407143D01*
X247828572Y-202335714D01*
X247828572Y-202478571D01*
X247828572Y-201550000D02*
X247900000Y-201621429D01*
X247828572Y-201692857D01*
X247757143Y-201621429D01*
X247828572Y-201550000D01*
X247828572Y-201692857D01*
X250471429Y-202478571D02*
X249614286Y-202478571D01*
X250042858Y-202478571D02*
X250042858Y-200978571D01*
X249900001Y-201192857D01*
X249757143Y-201335714D01*
X249614286Y-201407143D01*
X252185714Y-200907143D02*
X250900000Y-202835714D01*
X253471429Y-202478571D02*
X252614286Y-202478571D01*
X253042858Y-202478571D02*
X253042858Y-200978571D01*
X252900001Y-201192857D01*
X252757143Y-201335714D01*
X252614286Y-201407143D01*
D10*
D11*
X159400000Y-193400000D02*
X267400000Y-193400000D01*
D10*
D13*
X160852381Y-194104762D02*
X161995238Y-194104762D01*
X161173810Y-196104762D02*
X161423810Y-194104762D01*
X162411905Y-196104762D02*
X162578571Y-194771429D01*
X162661905Y-194104762D02*
X162554762Y-194200000D01*
X162638095Y-194295238D01*
X162745239Y-194200000D01*
X162661905Y-194104762D01*
X162638095Y-194295238D01*
X163245238Y-194771429D02*
X164007143Y-194771429D01*
X163614286Y-194104762D02*
X163400000Y-195819048D01*
X163471430Y-196009524D01*
X163650001Y-196104762D01*
X163840477Y-196104762D01*
X164792858Y-196104762D02*
X164614287Y-196009524D01*
X164542857Y-195819048D01*
X164757143Y-194104762D01*
X166328572Y-196009524D02*
X166126191Y-196104762D01*
X165745239Y-196104762D01*
X165566667Y-196009524D01*
X165495238Y-195819048D01*
X165590476Y-195057143D01*
X165709524Y-194866667D01*
X165911905Y-194771429D01*
X166292857Y-194771429D01*
X166471429Y-194866667D01*
X166542857Y-195057143D01*
X166519048Y-195247619D01*
X165542857Y-195438095D01*
X167292857Y-195914286D02*
X167376192Y-196009524D01*
X167269048Y-196104762D01*
X167185715Y-196009524D01*
X167292857Y-195914286D01*
X167269048Y-196104762D01*
X167423810Y-194866667D02*
X167507144Y-194961905D01*
X167400000Y-195057143D01*
X167316667Y-194961905D01*
X167423810Y-194866667D01*
X167400000Y-195057143D01*
D10*
D11*
X161257143Y-191492857D02*
X160757143Y-191492857D01*
X160757143Y-192278571D02*
X160757143Y-190778571D01*
X161471429Y-190778571D01*
X162042857Y-192278571D02*
X162042857Y-191278571D01*
X162042857Y-190778571D02*
X161971428Y-190850000D01*
X162042857Y-190921429D01*
X162114285Y-190850000D01*
X162042857Y-190778571D01*
X162042857Y-190921429D01*
X162971429Y-192278571D02*
X162828571Y-192207143D01*
X162757143Y-192064286D01*
X162757143Y-190778571D01*
X164114285Y-192207143D02*
X163971428Y-192278571D01*
X163685714Y-192278571D01*
X163542857Y-192207143D01*
X163471428Y-192064286D01*
X163471428Y-191492857D01*
X163542857Y-191350000D01*
X163685714Y-191278571D01*
X163971428Y-191278571D01*
X164114285Y-191350000D01*
X164185714Y-191492857D01*
X164185714Y-191635714D01*
X163471428Y-191778571D01*
X164828571Y-192135714D02*
X164899999Y-192207143D01*
X164828571Y-192278571D01*
X164757142Y-192207143D01*
X164828571Y-192135714D01*
X164828571Y-192278571D01*
X164828571Y-191350000D02*
X164899999Y-191421429D01*
X164828571Y-191492857D01*
X164757142Y-191421429D01*
X164828571Y-191350000D01*
X164828571Y-191492857D01*
X166542857Y-190778571D02*
X166900000Y-192278571D01*
X167185714Y-191207143D01*
X167471428Y-192278571D01*
X167828571Y-190778571D01*
X168400000Y-192278571D02*
X168400000Y-191278571D01*
X168400000Y-190778571D02*
X168328571Y-190850000D01*
X168400000Y-190921429D01*
X168471428Y-190850000D01*
X168400000Y-190778571D01*
X168400000Y-190921429D01*
X169114286Y-192278571D02*
X169114286Y-191278571D01*
X169114286Y-191564286D02*
X169185714Y-191421429D01*
X169257143Y-191350000D01*
X169400000Y-191278571D01*
X169542857Y-191278571D01*
X170614285Y-192207143D02*
X170471428Y-192278571D01*
X170185714Y-192278571D01*
X170042857Y-192207143D01*
X169971428Y-192064286D01*
X169971428Y-191492857D01*
X170042857Y-191350000D01*
X170185714Y-191278571D01*
X170471428Y-191278571D01*
X170614285Y-191350000D01*
X170685714Y-191492857D01*
X170685714Y-191635714D01*
X169971428Y-191778571D01*
X171542857Y-192278571D02*
X171399999Y-192207143D01*
X171328571Y-192064286D01*
X171328571Y-190778571D01*
X172685713Y-192207143D02*
X172542856Y-192278571D01*
X172257142Y-192278571D01*
X172114285Y-192207143D01*
X172042856Y-192064286D01*
X172042856Y-191492857D01*
X172114285Y-191350000D01*
X172257142Y-191278571D01*
X172542856Y-191278571D01*
X172685713Y-191350000D01*
X172757142Y-191492857D01*
X172757142Y-191635714D01*
X172042856Y-191778571D01*
X173328570Y-192207143D02*
X173471427Y-192278571D01*
X173757142Y-192278571D01*
X173899999Y-192207143D01*
X173971427Y-192064286D01*
X173971427Y-191992857D01*
X173899999Y-191850000D01*
X173757142Y-191778571D01*
X173542856Y-191778571D01*
X173399999Y-191707143D01*
X173328570Y-191564286D01*
X173328570Y-191492857D01*
X173399999Y-191350000D01*
X173542856Y-191278571D01*
X173757142Y-191278571D01*
X173899999Y-191350000D01*
X174542856Y-192207143D02*
X174685713Y-192278571D01*
X174971428Y-192278571D01*
X175114285Y-192207143D01*
X175185713Y-192064286D01*
X175185713Y-191992857D01*
X175114285Y-191850000D01*
X174971428Y-191778571D01*
X174757142Y-191778571D01*
X174614285Y-191707143D01*
X174542856Y-191564286D01*
X174542856Y-191492857D01*
X174614285Y-191350000D01*
X174757142Y-191278571D01*
X174971428Y-191278571D01*
X175114285Y-191350000D01*
X175471428Y-192421429D02*
X176614285Y-192421429D01*
X176828571Y-190778571D02*
X177828571Y-192278571D01*
X177828571Y-190778571D02*
X176828571Y-192278571D01*
X179042856Y-192207143D02*
X178899999Y-192278571D01*
X178614285Y-192278571D01*
X178471427Y-192207143D01*
X178399999Y-192135714D01*
X178328570Y-191992857D01*
X178328570Y-191564286D01*
X178399999Y-191421429D01*
X178471427Y-191350000D01*
X178614285Y-191278571D01*
X178899999Y-191278571D01*
X179042856Y-191350000D01*
X179685713Y-192278571D02*
X179685713Y-191278571D01*
X179685713Y-190778571D02*
X179614284Y-190850000D01*
X179685713Y-190921429D01*
X179757141Y-190850000D01*
X179685713Y-190778571D01*
X179685713Y-190921429D01*
X180971427Y-192207143D02*
X180828570Y-192278571D01*
X180542856Y-192278571D01*
X180399999Y-192207143D01*
X180328570Y-192064286D01*
X180328570Y-191492857D01*
X180399999Y-191350000D01*
X180542856Y-191278571D01*
X180828570Y-191278571D01*
X180971427Y-191350000D01*
X181042856Y-191492857D01*
X181042856Y-191635714D01*
X180328570Y-191778571D01*
X181542856Y-191278571D02*
X181899999Y-192278571D01*
X182257141Y-191278571D01*
X183399998Y-192207143D02*
X183257141Y-192278571D01*
X182971427Y-192278571D01*
X182828570Y-192207143D01*
X182757141Y-192064286D01*
X182757141Y-191492857D01*
X182828570Y-191350000D01*
X182971427Y-191278571D01*
X183257141Y-191278571D01*
X183399998Y-191350000D01*
X183471427Y-191492857D01*
X183471427Y-191635714D01*
X182757141Y-191778571D01*
X184114284Y-192278571D02*
X184114284Y-191278571D01*
X184114284Y-191564286D02*
X184185712Y-191421429D01*
X184257141Y-191350000D01*
X184399998Y-191278571D01*
X184542855Y-191278571D01*
X185042855Y-192135714D02*
X185114283Y-192207143D01*
X185042855Y-192278571D01*
X184971426Y-192207143D01*
X185042855Y-192135714D01*
X185042855Y-192278571D01*
X185757141Y-192278571D02*
X185757141Y-190778571D01*
X185899998Y-191707143D02*
X186328569Y-192278571D01*
X186328569Y-191278571D02*
X185757141Y-191850000D01*
X186971427Y-192278571D02*
X186971427Y-191278571D01*
X186971427Y-190778571D02*
X186899998Y-190850000D01*
X186971427Y-190921429D01*
X187042855Y-190850000D01*
X186971427Y-190778571D01*
X186971427Y-190921429D01*
X188328570Y-192207143D02*
X188185713Y-192278571D01*
X187899999Y-192278571D01*
X187757141Y-192207143D01*
X187685713Y-192135714D01*
X187614284Y-191992857D01*
X187614284Y-191564286D01*
X187685713Y-191421429D01*
X187757141Y-191350000D01*
X187899999Y-191278571D01*
X188185713Y-191278571D01*
X188328570Y-191350000D01*
X189614284Y-192278571D02*
X189614284Y-191492857D01*
X189542855Y-191350000D01*
X189399998Y-191278571D01*
X189114284Y-191278571D01*
X188971427Y-191350000D01*
X189614284Y-192207143D02*
X189471427Y-192278571D01*
X189114284Y-192278571D01*
X188971427Y-192207143D01*
X188899998Y-192064286D01*
X188899998Y-191921429D01*
X188971427Y-191778571D01*
X189114284Y-191707143D01*
X189471427Y-191707143D01*
X189614284Y-191635714D01*
X190971427Y-192278571D02*
X190971427Y-190778571D01*
X190971427Y-192207143D02*
X190828570Y-192278571D01*
X190542856Y-192278571D01*
X190399998Y-192207143D01*
X190328570Y-192135714D01*
X190257141Y-191992857D01*
X190257141Y-191564286D01*
X190328570Y-191421429D01*
X190399998Y-191350000D01*
X190542856Y-191278571D01*
X190828570Y-191278571D01*
X190971427Y-191350000D01*
X191328570Y-192421429D02*
X192471427Y-192421429D01*
X192828570Y-191278571D02*
X192828570Y-192778571D01*
X192828570Y-191350000D02*
X192971427Y-191278571D01*
X193257141Y-191278571D01*
X193399998Y-191350000D01*
X193471427Y-191421429D01*
X193542856Y-191564286D01*
X193542856Y-191992857D01*
X193471427Y-192135714D01*
X193399998Y-192207143D01*
X193257141Y-192278571D01*
X192971427Y-192278571D01*
X192828570Y-192207143D01*
X194828570Y-192207143D02*
X194685713Y-192278571D01*
X194399999Y-192278571D01*
X194257141Y-192207143D01*
X194185713Y-192135714D01*
X194114284Y-191992857D01*
X194114284Y-191564286D01*
X194185713Y-191421429D01*
X194257141Y-191350000D01*
X194399999Y-191278571D01*
X194685713Y-191278571D01*
X194828570Y-191350000D01*
X195471427Y-192278571D02*
X195471427Y-190778571D01*
X195471427Y-191350000D02*
X195614284Y-191278571D01*
X195899998Y-191278571D01*
X196042855Y-191350000D01*
X196114284Y-191421429D01*
X196185713Y-191564286D01*
X196185713Y-191992857D01*
X196114284Y-192135714D01*
X196042855Y-192207143D01*
X195899998Y-192278571D01*
X195614284Y-192278571D01*
X195471427Y-192207143D01*
D10*
D11*
X159400000Y-187400000D02*
X267400000Y-187400000D01*
D10*
D11*
X160685714Y-189507143D02*
X160900000Y-189578571D01*
X161257143Y-189578571D01*
X161400000Y-189507143D01*
X161471429Y-189435714D01*
X161542857Y-189292857D01*
X161542857Y-189150000D01*
X161471429Y-189007143D01*
X161400000Y-188935714D01*
X161257143Y-188864286D01*
X160971429Y-188792857D01*
X160828571Y-188721429D01*
X160757143Y-188650000D01*
X160685714Y-188507143D01*
X160685714Y-188364286D01*
X160757143Y-188221429D01*
X160828571Y-188150000D01*
X160971429Y-188078571D01*
X161328571Y-188078571D01*
X161542857Y-188150000D01*
X162185714Y-189578571D02*
X162185714Y-188078571D01*
X162828571Y-189578571D02*
X162828571Y-188792857D01*
X162757142Y-188650000D01*
X162614285Y-188578571D01*
X162400000Y-188578571D01*
X162257142Y-188650000D01*
X162185714Y-188721429D01*
X164114285Y-189507143D02*
X163971428Y-189578571D01*
X163685714Y-189578571D01*
X163542857Y-189507143D01*
X163471428Y-189364286D01*
X163471428Y-188792857D01*
X163542857Y-188650000D01*
X163685714Y-188578571D01*
X163971428Y-188578571D01*
X164114285Y-188650000D01*
X164185714Y-188792857D01*
X164185714Y-188935714D01*
X163471428Y-189078571D01*
X165399999Y-189507143D02*
X165257142Y-189578571D01*
X164971428Y-189578571D01*
X164828571Y-189507143D01*
X164757142Y-189364286D01*
X164757142Y-188792857D01*
X164828571Y-188650000D01*
X164971428Y-188578571D01*
X165257142Y-188578571D01*
X165399999Y-188650000D01*
X165471428Y-188792857D01*
X165471428Y-188935714D01*
X164757142Y-189078571D01*
X165899999Y-188578571D02*
X166471428Y-188578571D01*
X166114285Y-188078571D02*
X166114285Y-189364286D01*
X166185713Y-189507143D01*
X166328571Y-189578571D01*
X166471428Y-189578571D01*
X166971428Y-189435714D02*
X167042856Y-189507143D01*
X166971428Y-189578571D01*
X166899999Y-189507143D01*
X166971428Y-189435714D01*
X166971428Y-189578571D01*
X166971428Y-188650000D02*
X167042856Y-188721429D01*
X166971428Y-188792857D01*
X166899999Y-188721429D01*
X166971428Y-188650000D01*
X166971428Y-188792857D01*
D10*
D11*
X179400000Y-197400000D02*
X179400000Y-200400000D01*
D10*
D11*
X243400000Y-197400000D02*
X243400000Y-203900000D01*
D14*
X155380000Y-73670000D03*
D15*
X117130000Y-112045000D03*
X117130000Y-118044480D03*
X112431000Y-115044740D03*
D16*
X126920725Y-116492729D03*
D17*
X126920725Y-119032729D03*
X126920725Y-121572729D03*
D18*
X123245725Y-109167729D03*
D19*
X123245725Y-106627729D03*
D20*
X167515000Y-84215000D03*
X167515000Y-80405000D03*
D21*
X144180000Y-81645000D03*
X144180000Y-83143600D03*
D22*
X133360000Y-99795000D03*
X133360000Y-100645000D03*
X134530000Y-100645000D03*
X134530000Y-99795000D03*
D23*
X117230000Y-107870000D03*
D24*
X119230000Y-107870000D03*
D25*
X132505000Y-112795000D03*
X126755000Y-112795000D03*
X126755000Y-108795000D03*
X132505000Y-108795000D03*
X166380000Y-112745000D03*
X160630000Y-112745000D03*
X160630000Y-108745000D03*
X166380000Y-108745000D03*
D22*
X126560000Y-99670000D03*
X126560000Y-100520000D03*
X127730000Y-100520000D03*
X127730000Y-99670000D03*
D26*
X166180000Y-77995000D03*
X166180000Y-76495000D03*
X164105000Y-76480000D03*
X164105000Y-77980000D03*
D25*
X149255000Y-116845000D03*
X143505000Y-116845000D03*
X143505000Y-112845000D03*
X149255000Y-112845000D03*
D27*
X126835000Y-73475000D03*
X126835000Y-74745000D03*
X126835000Y-76015000D03*
X126835000Y-77285000D03*
X121435000Y-77285000D03*
X121435000Y-76015000D03*
X121435000Y-74745000D03*
X121435000Y-73475000D03*
D28*
X168215000Y-98715000D03*
X170755000Y-98715000D03*
X168215000Y-96175000D03*
X170755000Y-96175000D03*
X168215000Y-93635000D03*
X170755000Y-93635000D03*
X168215000Y-91095000D03*
X170755000Y-91095000D03*
D29*
X131275000Y-77315000D03*
X130175000Y-77315000D03*
D30*
X130725000Y-73765000D03*
D22*
X159550000Y-101545000D03*
X159550000Y-100695000D03*
X158380000Y-100695000D03*
X158380000Y-101545000D03*
X168075000Y-101545000D03*
X168075000Y-100695000D03*
X166905000Y-100695000D03*
X166905000Y-101545000D03*
D31*
X145275000Y-75565000D03*
X134475000Y-75565000D03*
D32*
X121829529Y-81253861D03*
X121829529Y-81903861D03*
X121829529Y-83203861D03*
X121829529Y-82553861D03*
X121829529Y-83853861D03*
X121829529Y-84503861D03*
X121829529Y-85153861D03*
X121829529Y-85803861D03*
X121829529Y-86453861D03*
X121829529Y-87103861D03*
X121829529Y-87753861D03*
X121829529Y-88403861D03*
X121829529Y-89053861D03*
X121829529Y-89703861D03*
X121829529Y-90353861D03*
D28*
X146630000Y-121295000D03*
X146630000Y-123835000D03*
X144090000Y-121295000D03*
X144090000Y-123835000D03*
X141550000Y-121295000D03*
X141550000Y-123835000D03*
X139010000Y-121295000D03*
X139010000Y-123835000D03*
D25*
X149255000Y-108920000D03*
X143505000Y-108920000D03*
X143505000Y-104920000D03*
X149255000Y-104920000D03*
D28*
X162650000Y-121290000D03*
X162650000Y-123830000D03*
X160110000Y-121290000D03*
X160110000Y-123830000D03*
X157570000Y-121290000D03*
X157570000Y-123830000D03*
X155030000Y-121290000D03*
X155030000Y-123830000D03*
X173140000Y-121265000D03*
X173140000Y-123805000D03*
X170600000Y-121265000D03*
X170600000Y-123805000D03*
X168060000Y-121265000D03*
X168060000Y-123805000D03*
X165520000Y-121265000D03*
X165520000Y-123805000D03*
D33*
X151880000Y-116870000D03*
X152780000Y-116870000D03*
X148780000Y-110870000D03*
X149680000Y-110870000D03*
X132230000Y-114945000D03*
X133130000Y-114945000D03*
X166805000Y-114795000D03*
X165905000Y-114795000D03*
D34*
X144430000Y-98870000D03*
X145530000Y-98870000D03*
X140555000Y-98970000D03*
X141655000Y-98970000D03*
D35*
X139455000Y-96570000D03*
X139455000Y-95470000D03*
D33*
X138705000Y-98920000D03*
X139605000Y-98920000D03*
D36*
X140970000Y-96817000D03*
X143180000Y-96817000D03*
X140970000Y-93845000D03*
X143180000Y-93845000D03*
D37*
X115680000Y-87120000D03*
X115680000Y-96520000D03*
X111230000Y-100620000D03*
D38*
X111980000Y-88320000D03*
X111980000Y-95320000D03*
D14*
X131830000Y-121895000D03*
D39*
X158304966Y-83509958D03*
X155302526Y-83606441D03*
D40*
X139170336Y-107978765D03*
X150712467Y-97294267D03*
X154248927Y-108905817D03*
X162367154Y-79125503D03*
X174674740Y-100575000D03*
X155038563Y-117775770D03*
X130693257Y-100939003D03*
X126850000Y-78725945D03*
X138970309Y-82618841D03*
X141348719Y-85388921D03*
X135111305Y-114989073D03*
X120196122Y-83240388D03*
X115675000Y-104125000D03*
X141430000Y-77170000D03*
X175100000Y-102675000D03*
X163006856Y-91219667D03*
X168215000Y-98715000D03*
X151957000Y-108858878D03*
X165475000Y-116725000D03*
D39*
X147316611Y-82266579D03*
D40*
X152018718Y-115525020D03*
X160033044Y-117791956D03*
X161650000Y-85725000D03*
X151275000Y-77400000D03*
X124525000Y-85600000D03*
X124225000Y-77450000D03*
X157575000Y-117775000D03*
X162650000Y-117725000D03*
X126425000Y-106900000D03*
X129325000Y-108525000D03*
X137850000Y-104325000D03*
X144234071Y-89237046D03*
X140295621Y-88911993D03*
X137818252Y-98143777D03*
X137390000Y-78010000D03*
X131460000Y-81100000D03*
X136730430Y-87925814D03*
D39*
X149502566Y-86611238D03*
D40*
X141123748Y-88009653D03*
D39*
X145412120Y-89282875D03*
D40*
X145436679Y-91879859D03*
D39*
X138246714Y-95750777D03*
D40*
X132123328Y-79188311D03*
X123425000Y-78500000D03*
X157354746Y-99212608D03*
X129983960Y-88745733D03*
X137967658Y-88639964D03*
X132149337Y-93005161D03*
X126104228Y-106098989D03*
X130030000Y-99080000D03*
X137979111Y-86433177D03*
X140776005Y-91853266D03*
X127466889Y-82290369D03*
X132100009Y-98118001D03*
D39*
X130176677Y-96583639D03*
D40*
X116625000Y-89500000D03*
X124725000Y-89375000D03*
X137825000Y-93000000D03*
X174080021Y-89144333D03*
X120950000Y-116100000D03*
X125040000Y-101320000D03*
X166906792Y-102605456D03*
D39*
X122685890Y-115314110D03*
D40*
X135725000Y-100450000D03*
X128825000Y-100675000D03*
X166675000Y-105725000D03*
D39*
X127050000Y-110700000D03*
D40*
X157125000Y-98438884D03*
X147978710Y-95711452D03*
X153477196Y-99872804D03*
X163090076Y-107152202D03*
X164475000Y-92139992D03*
X148738305Y-114314980D03*
X152900134Y-106611042D03*
X129424998Y-82057514D03*
X131383611Y-93877521D03*
X164438584Y-90128156D03*
X151975000Y-104325000D03*
X150638952Y-101491046D03*
X131575000Y-85950000D03*
X137700000Y-81825000D03*
X141200000Y-83500000D03*
X148924969Y-101491046D03*
X160877549Y-82147469D03*
X173122450Y-88036762D03*
X168100000Y-89800075D03*
X144253348Y-84695241D03*
X169525000Y-85974947D03*
X139525000Y-109650000D03*
X151350000Y-114200000D03*
X159650000Y-78325000D03*
X119575000Y-85925000D03*
X124625000Y-87900000D03*
X125325000Y-76625000D03*
X122900000Y-73500000D03*
X134725000Y-108775000D03*
X144625000Y-103225000D03*
D39*
X153968054Y-110848575D03*
X154346254Y-115753186D03*
X152948033Y-112437406D03*
X150390000Y-111959988D03*
X128658101Y-73415115D03*
X149712549Y-94472128D03*
X155713342Y-114117308D03*
X152458103Y-91604988D03*
X156714979Y-114875000D03*
X152416215Y-85472029D03*
X156834878Y-115706390D03*
X150532767Y-82252271D03*
X156064980Y-116718850D03*
X157307307Y-84529980D03*
X155793727Y-85750066D03*
X156801650Y-86340696D03*
X156576954Y-87310101D03*
X128645000Y-76495000D03*
D41*
X124100000Y-73100000D03*
D39*
X130725000Y-76100000D03*
X125200000Y-73250000D03*
X124169163Y-84838901D03*
X156136153Y-82148831D03*
X157836941Y-87860397D03*
X156314101Y-87884586D03*
X140296609Y-87376411D03*
X151294715Y-87617373D03*
X119253018Y-90138939D03*
X120175000Y-84075000D03*
X150574531Y-84842329D03*
X155161990Y-82503258D03*
X149341781Y-85591217D03*
X158890492Y-96385740D03*
X153739795Y-85063210D03*
X157733232Y-112752721D03*
X158164958Y-93821337D03*
X156785042Y-96766455D03*
X150725671Y-78508117D03*
X156450000Y-90575000D03*
X149678175Y-87924877D03*
X141106457Y-89854551D03*
X140272081Y-90365446D03*
X151283150Y-88490562D03*
X152081940Y-88443620D03*
X129650000Y-91900000D03*
X154054827Y-95203766D03*
X156120450Y-96757474D03*
X155410468Y-95316005D03*
X158722605Y-92476232D03*
X155045020Y-94108088D03*
X156494926Y-95304022D03*
X156497651Y-94000316D03*
X148868006Y-80985559D03*
X132134297Y-94602813D03*
X122834437Y-80359633D03*
X167300000Y-76175000D03*
X119750593Y-77272906D03*
X120425000Y-81100000D03*
X120250000Y-89650000D03*
X120200000Y-88550000D03*
X121550000Y-91425000D03*
X123650000Y-89900000D03*
X162849251Y-77592033D03*
X124378833Y-92316222D03*
X124975020Y-96700000D03*
X125125000Y-94100000D03*
X135124980Y-94694512D03*
X159470121Y-106120121D03*
X158349128Y-111238760D03*
X162331458Y-101499980D03*
X168455231Y-102673738D03*
X146300000Y-73550000D03*
X120100000Y-82325000D03*
X158534586Y-80644570D03*
X157156152Y-81899356D03*
X153754528Y-84244481D03*
X137143616Y-98025000D03*
X137750000Y-91327871D03*
X168664110Y-113964110D03*
X169300000Y-107175000D03*
X160367003Y-94909209D03*
X156175568Y-97854679D03*
D40*
X130650757Y-114300066D03*
X126250000Y-114850000D03*
D39*
X139350000Y-94125000D03*
X147950000Y-91775000D03*
X143925000Y-91300000D03*
X149250959Y-84988004D03*
X140216984Y-86534902D03*
X118168993Y-81878902D03*
X118375000Y-83025000D03*
X116875000Y-78950000D03*
X114364159Y-83861616D03*
X120319071Y-80277094D03*
X114150000Y-84825000D03*
D42*
X155302526Y-83606441D02*
X158208483Y-83606441D01*
X158208483Y-83606441D02*
X158304966Y-83509958D01*
D43*
X135111305Y-114989073D02*
X135111305Y-112037796D01*
X138870337Y-108278764D02*
X139170336Y-107978765D01*
X135111305Y-112037796D02*
X138870337Y-108278764D01*
X152723212Y-105369739D02*
X152723212Y-99305012D01*
X151957000Y-106135951D02*
X152723212Y-105369739D01*
X151957000Y-108858878D02*
X151957000Y-106135951D01*
X151012466Y-97594266D02*
X150712467Y-97294267D01*
X152723212Y-99305012D02*
X151012466Y-97594266D01*
X155038563Y-109695453D02*
X154548926Y-109205816D01*
X155038563Y-117775770D02*
X155038563Y-109695453D01*
X154548926Y-109205816D02*
X154248927Y-108905817D01*
X150975001Y-77699999D02*
X151275000Y-77400000D01*
X141995546Y-80345000D02*
X144640547Y-77699999D01*
X144640547Y-77699999D02*
X150975001Y-77699999D01*
X162067155Y-79425502D02*
X162367154Y-79125503D01*
X161650000Y-79842657D02*
X162067155Y-79425502D01*
X161650000Y-85725000D02*
X161650000Y-79842657D01*
X165475000Y-116725000D02*
X165455288Y-116744712D01*
X165455288Y-116744712D02*
X164276151Y-116744712D01*
X164276151Y-116744712D02*
X163830000Y-116298561D01*
X163830000Y-116298561D02*
X163830000Y-115330000D01*
X164670000Y-115330000D02*
X163830000Y-115330000D01*
X163830000Y-115330000D02*
X162440000Y-115330000D01*
X165905000Y-114795000D02*
X165205000Y-114795000D01*
X165205000Y-114795000D02*
X164670000Y-115330000D01*
X161130000Y-116640000D02*
X162440000Y-115330000D01*
X161130000Y-117766163D02*
X160058837Y-117766163D01*
X162608837Y-117766163D02*
X161130000Y-117766163D01*
X161130000Y-117766163D02*
X161130000Y-116640000D01*
X174674740Y-90799740D02*
X174674740Y-100150736D01*
X162725000Y-86800000D02*
X170675000Y-86800000D01*
X161650000Y-85725000D02*
X162725000Y-86800000D01*
X175100000Y-101000260D02*
X174974739Y-100874999D01*
X175100000Y-102675000D02*
X175100000Y-101000260D01*
X174674740Y-100150736D02*
X174674740Y-100575000D01*
X174974739Y-100874999D02*
X174674740Y-100575000D01*
X170675000Y-86800000D02*
X174674740Y-90799740D01*
X149680000Y-110870000D02*
X149680000Y-110770000D01*
X149680000Y-110770000D02*
X149952968Y-110497032D01*
X149952968Y-110497032D02*
X150318846Y-110497032D01*
X150318846Y-110497032D02*
X151657001Y-109158877D01*
X151657001Y-109158877D02*
X151957000Y-108858878D01*
X168215000Y-98715000D02*
X165902687Y-96402687D01*
X165902687Y-92502692D02*
X164619662Y-91219667D01*
X163431120Y-91219667D02*
X163006856Y-91219667D01*
X165902687Y-96402687D02*
X165902687Y-92502692D01*
X164619662Y-91219667D02*
X163431120Y-91219667D01*
X131630000Y-106220000D02*
X133537887Y-104312113D01*
X133537887Y-104312113D02*
X137837113Y-104312113D01*
X137837113Y-104312113D02*
X137850000Y-104325000D01*
X123245725Y-106627729D02*
X123245725Y-106620388D01*
X123245725Y-106620388D02*
X120778692Y-104153355D01*
X120778692Y-104153355D02*
X115703355Y-104153355D01*
X115703355Y-104153355D02*
X115675000Y-104125000D01*
X162650000Y-117725000D02*
X162608837Y-117766163D01*
X160058837Y-117766163D02*
X160033044Y-117791956D01*
X157575000Y-117775000D02*
X155039333Y-117775000D01*
X155039333Y-117775000D02*
X155038563Y-117775770D01*
X129325000Y-108525000D02*
X131630000Y-106220000D01*
X130693257Y-100939003D02*
X130693257Y-105283257D01*
X130693257Y-105283257D02*
X131630000Y-106220000D01*
X126835000Y-78710945D02*
X126850000Y-78725945D01*
X126835000Y-77285000D02*
X126835000Y-78710945D01*
X141995546Y-80345000D02*
X139721705Y-82618841D01*
X139721705Y-82618841D02*
X139394573Y-82618841D01*
X139394573Y-82618841D02*
X138970309Y-82618841D01*
X147316611Y-84071927D02*
X144938559Y-86449980D01*
X141772983Y-85388921D02*
X141348719Y-85388921D01*
X143674578Y-86449980D02*
X142613519Y-85388921D01*
X144938559Y-86449980D02*
X143674578Y-86449980D01*
X142613519Y-85388921D02*
X141772983Y-85388921D01*
X147316611Y-82266579D02*
X147316611Y-84071927D01*
X141430000Y-77170000D02*
X141430000Y-79779454D01*
X141430000Y-79779454D02*
X141995546Y-80345000D01*
X135067232Y-114945000D02*
X135111305Y-114989073D01*
X133130000Y-114945000D02*
X135067232Y-114945000D01*
X126425000Y-106900000D02*
X123517996Y-106900000D01*
X123517996Y-106900000D02*
X123245725Y-106627729D01*
X124225000Y-77450000D02*
X126670000Y-77450000D01*
X126670000Y-77450000D02*
X126835000Y-77285000D01*
X157575000Y-117775000D02*
X160016088Y-117775000D01*
X160016088Y-117775000D02*
X160033044Y-117791956D01*
X152780000Y-116070000D02*
X152235020Y-115525020D01*
X152780000Y-116870000D02*
X152780000Y-116070000D01*
X152235020Y-115525020D02*
X152018718Y-115525020D01*
D42*
X121829529Y-87103861D02*
X123021139Y-87103861D01*
X123021139Y-87103861D02*
X124525000Y-85600000D01*
D43*
X140595620Y-89211992D02*
X144209017Y-89211992D01*
X144209017Y-89211992D02*
X144234071Y-89237046D01*
X140295621Y-88911993D02*
X140595620Y-89211992D01*
X139309442Y-87925814D02*
X139995622Y-88611994D01*
X136730430Y-87925814D02*
X139309442Y-87925814D01*
X139995622Y-88611994D02*
X140295621Y-88911993D01*
X141750878Y-100749122D02*
X138719122Y-100749122D01*
X137818252Y-98568041D02*
X137818252Y-98143777D01*
X138719122Y-100749122D02*
X137818252Y-99848252D01*
X137818252Y-99848252D02*
X137818252Y-98568041D01*
X144430000Y-98870000D02*
X143630000Y-98870000D01*
X143630000Y-98870000D02*
X141750878Y-100749122D01*
D42*
X139455000Y-96570000D02*
X139455000Y-96520000D01*
X141815927Y-95351427D02*
X143180000Y-96715500D01*
X139455000Y-96520000D02*
X140623573Y-95351427D01*
X140623573Y-95351427D02*
X141815927Y-95351427D01*
X143180000Y-96715500D02*
X143180000Y-96817000D01*
D43*
X131460000Y-81100000D02*
X134300000Y-81100000D01*
X134300000Y-81100000D02*
X137390000Y-78010000D01*
X144430000Y-98870000D02*
X144430000Y-98067000D01*
X144430000Y-98067000D02*
X143180000Y-96817000D01*
D42*
X149277567Y-86836237D02*
X149502566Y-86611238D01*
X145412120Y-89282875D02*
X146830929Y-89282875D01*
X146830929Y-89282875D02*
X149277567Y-86836237D01*
X145412120Y-89282875D02*
X144602155Y-88472910D01*
X141580667Y-88472910D02*
X141123748Y-88015991D01*
X144602155Y-88472910D02*
X141580667Y-88472910D01*
X141123748Y-88015991D02*
X141123748Y-88009653D01*
D43*
X145530000Y-93840000D02*
X145978761Y-93391239D01*
X145978761Y-93391239D02*
X145978761Y-92421941D01*
X145978761Y-92421941D02*
X145436679Y-91879859D01*
X145530000Y-98870000D02*
X145530000Y-98120000D01*
X145530000Y-98120000D02*
X145530000Y-93840000D01*
X144307500Y-93840000D02*
X145530000Y-93840000D01*
X143180000Y-93845000D02*
X144302500Y-93845000D01*
X144302500Y-93845000D02*
X144307500Y-93840000D01*
D42*
X138527491Y-95470000D02*
X138421713Y-95575778D01*
X138421713Y-95575778D02*
X138246714Y-95750777D01*
X139455000Y-95470000D02*
X138527491Y-95470000D01*
D43*
X123425000Y-78500000D02*
X124589782Y-79664782D01*
X124589782Y-79664782D02*
X131678025Y-79664782D01*
X131678025Y-79664782D02*
X132123328Y-79219479D01*
X132123328Y-79219479D02*
X132123328Y-79188311D01*
X132098311Y-79188311D02*
X132123328Y-79188311D01*
X131275000Y-78365000D02*
X132098311Y-79188311D01*
X131275000Y-77315000D02*
X131275000Y-78365000D01*
D42*
X143180000Y-93743500D02*
X143180000Y-93845000D01*
D43*
X140970000Y-93845000D02*
X143180000Y-93845000D01*
X157654745Y-99512607D02*
X157354746Y-99212608D01*
X157720000Y-99680000D02*
X157720000Y-99577862D01*
X157720000Y-99577862D02*
X157654745Y-99512607D01*
X131730000Y-90491773D02*
X130283959Y-89045732D01*
X130283959Y-89045732D02*
X129983960Y-88745733D01*
X131730000Y-90505000D02*
X131730000Y-90491773D01*
X140776005Y-91853266D02*
X137967658Y-89044919D01*
X137967658Y-89044919D02*
X137967658Y-88639964D01*
X131730000Y-90505000D02*
X131730000Y-90523615D01*
X132149337Y-92580897D02*
X132149337Y-93005161D01*
X131730000Y-90523615D02*
X132149337Y-90942952D01*
X132149337Y-90942952D02*
X132149337Y-92580897D01*
X161483784Y-101406216D02*
X162350000Y-100540000D01*
X161483784Y-102110402D02*
X161483784Y-101406216D01*
X166675000Y-105725000D02*
X165098382Y-105725000D01*
X165098382Y-105725000D02*
X161483784Y-102110402D01*
X174080021Y-89144333D02*
X174080021Y-82610021D01*
X174080021Y-82610021D02*
X169465000Y-77995000D01*
X169465000Y-77995000D02*
X166180000Y-77995000D01*
X166180000Y-77995000D02*
X166195240Y-78010240D01*
X127050000Y-110700000D02*
X125692037Y-110700000D01*
X125692037Y-110700000D02*
X122685890Y-113706147D01*
X122685890Y-113706147D02*
X122685890Y-115101978D01*
X122685890Y-115101978D02*
X122685890Y-115314110D01*
X134530000Y-99795000D02*
X134530000Y-98596195D01*
X134530000Y-98596195D02*
X134931195Y-98195000D01*
X134931195Y-98195000D02*
X135725000Y-98195000D01*
X146630000Y-121295000D02*
X143848594Y-118513594D01*
X143848594Y-118513594D02*
X132297056Y-118513594D01*
X132297056Y-118513594D02*
X131533462Y-117750000D01*
X120950000Y-117025000D02*
X120950000Y-116100000D01*
X131533462Y-117750000D02*
X121675000Y-117750000D01*
X121675000Y-117750000D02*
X120950000Y-117025000D01*
X126104228Y-102384228D02*
X126104228Y-105674725D01*
X125040000Y-101320000D02*
X126104228Y-102384228D01*
X126104228Y-105674725D02*
X126104228Y-106098989D01*
X128515000Y-99670000D02*
X129440000Y-99670000D01*
X129440000Y-99670000D02*
X130030000Y-99080000D01*
X127766888Y-81990370D02*
X127466889Y-82290369D01*
X132669489Y-80324793D02*
X129432465Y-80324793D01*
X129432465Y-80324793D02*
X127766888Y-81990370D01*
X134475000Y-75565000D02*
X134475000Y-78519282D01*
X134475000Y-78519282D02*
X132669489Y-80324793D01*
X137554847Y-86433177D02*
X137979111Y-86433177D01*
X135801823Y-86433177D02*
X137554847Y-86433177D01*
X131730000Y-90505000D02*
X135801823Y-86433177D01*
X157720000Y-99680000D02*
X158230000Y-99170000D01*
X158230000Y-99170000D02*
X161678999Y-99170000D01*
X161678999Y-99170000D02*
X162350000Y-99841001D01*
X162350000Y-99841001D02*
X162350000Y-100540000D01*
X131711039Y-98118001D02*
X132100009Y-98118001D01*
X130176677Y-96583639D02*
X131711039Y-98118001D01*
X124725000Y-89375000D02*
X124725000Y-90500000D01*
X124725000Y-90500000D02*
X122930000Y-92295000D01*
X122930000Y-92295000D02*
X119420000Y-92295000D01*
X119420000Y-92295000D02*
X119055000Y-91930000D01*
X119055000Y-91930000D02*
X116625000Y-89500000D01*
X137825000Y-93000000D02*
X135725000Y-95100000D01*
X135725000Y-95100000D02*
X135725000Y-95525000D01*
X135725000Y-95525000D02*
X135725000Y-98195000D01*
X135725000Y-100450000D02*
X135725000Y-98195000D01*
X157030000Y-100370000D02*
X157720000Y-99680000D01*
X162350000Y-100540000D02*
X164940000Y-100540000D01*
X157030000Y-101230000D02*
X157030000Y-100370000D01*
X157345000Y-101545000D02*
X157030000Y-101230000D01*
X158380000Y-101545000D02*
X157345000Y-101545000D01*
X164940000Y-100540000D02*
X165945000Y-101545000D01*
X165945000Y-101545000D02*
X166905000Y-101545000D01*
X166905000Y-102603664D02*
X166906792Y-102605456D01*
X166905000Y-101545000D02*
X166905000Y-102603664D01*
X127730000Y-99670000D02*
X128515000Y-99670000D01*
X128515000Y-99670000D02*
X128825000Y-99980000D01*
X128825000Y-99980000D02*
X128825000Y-100675000D01*
X157549264Y-98438884D02*
X157125000Y-98438884D01*
X164475000Y-92564256D02*
X158600372Y-98438884D01*
X164475000Y-92139992D02*
X164475000Y-92564256D01*
X158600372Y-98438884D02*
X157549264Y-98438884D01*
X148924969Y-101491046D02*
X147978710Y-100544787D01*
X147978710Y-100544787D02*
X147978710Y-95711452D01*
X153477196Y-106033980D02*
X153477196Y-100297068D01*
X152900134Y-106611042D02*
X153477196Y-106033980D01*
X153477196Y-100297068D02*
X153477196Y-99872804D01*
X143505000Y-104920000D02*
X149255000Y-104920000D01*
X169525000Y-85974947D02*
X169525000Y-84270451D01*
X161875000Y-77535000D02*
X161875000Y-77330000D01*
X169525000Y-84270451D02*
X167943054Y-82688505D01*
X167943054Y-82688505D02*
X167028505Y-82688505D01*
X167028505Y-82688505D02*
X161875000Y-77535000D01*
X162725000Y-76480000D02*
X161875000Y-77330000D01*
X161875000Y-77330000D02*
X160880000Y-78325000D01*
X163390075Y-107452201D02*
X163090076Y-107152202D01*
X163530000Y-108745000D02*
X163530000Y-107592126D01*
X163530000Y-107592126D02*
X163390075Y-107452201D01*
X131383611Y-93877521D02*
X131380212Y-93874122D01*
X131380212Y-93874122D02*
X131380212Y-91955212D01*
X131380212Y-91955212D02*
X128230000Y-88805000D01*
X149255000Y-113845000D02*
X148785020Y-114314980D01*
X148785020Y-114314980D02*
X148738305Y-114314980D01*
X149255000Y-112845000D02*
X149255000Y-113845000D01*
X151605000Y-123830000D02*
X151605000Y-121098232D01*
X151605000Y-121098232D02*
X153481777Y-119221455D01*
X152075000Y-114200000D02*
X151774264Y-114200000D01*
X153481777Y-119221455D02*
X153481777Y-115606777D01*
X153481777Y-115606777D02*
X152075000Y-114200000D01*
X151774264Y-114200000D02*
X151350000Y-114200000D01*
X137700000Y-81825000D02*
X137681149Y-81825000D01*
X137681149Y-81825000D02*
X137448635Y-82057514D01*
X137448635Y-82057514D02*
X129849262Y-82057514D01*
X129849262Y-82057514D02*
X129424998Y-82057514D01*
X164105000Y-76480000D02*
X162725000Y-76480000D01*
X166105000Y-91355000D02*
X166102199Y-91355000D01*
X166102199Y-91355000D02*
X164875355Y-90128156D01*
X164875355Y-90128156D02*
X164438584Y-90128156D01*
X119575000Y-86899332D02*
X119575000Y-86545000D01*
X119575000Y-86545000D02*
X119575000Y-85925000D01*
X120103861Y-86453861D02*
X119666139Y-86453861D01*
X119666139Y-86453861D02*
X119575000Y-86545000D01*
X121829529Y-87753861D02*
X120429529Y-87753861D01*
X120429529Y-87753861D02*
X119575000Y-86899332D01*
X151960035Y-103236393D02*
X151960035Y-104310035D01*
X151960035Y-104310035D02*
X151975000Y-104325000D01*
X150638952Y-101915310D02*
X151960035Y-103236393D01*
X150638952Y-101491046D02*
X150638952Y-101915310D01*
X128230000Y-88805000D02*
X127325000Y-87900000D01*
X131575000Y-85950000D02*
X131150736Y-85950000D01*
X131150736Y-85950000D02*
X128295736Y-88805000D01*
X128295736Y-88805000D02*
X128230000Y-88805000D01*
X144253348Y-84695241D02*
X143058107Y-83500000D01*
X143058107Y-83500000D02*
X141200000Y-83500000D01*
X160900000Y-82125018D02*
X160877549Y-82147469D01*
X160900000Y-79695000D02*
X160900000Y-82125018D01*
X160900000Y-79695000D02*
X160900000Y-78345000D01*
X169525000Y-85974947D02*
X171060635Y-85974947D01*
X172822451Y-87736763D02*
X173122450Y-88036762D01*
X171060635Y-85974947D02*
X172822451Y-87736763D01*
X167675736Y-89800075D02*
X168100000Y-89800075D01*
X166105000Y-91355000D02*
X167659925Y-89800075D01*
X167659925Y-89800075D02*
X167675736Y-89800075D01*
X166845001Y-92095001D02*
X166105000Y-91355000D01*
X127325000Y-87900000D02*
X125049264Y-87900000D01*
X125049264Y-87900000D02*
X124625000Y-87900000D01*
X140825000Y-112040000D02*
X140825000Y-109620000D01*
X140825000Y-109620000D02*
X140825000Y-106725000D01*
X139525000Y-109650000D02*
X140795000Y-109650000D01*
X140795000Y-109650000D02*
X140825000Y-109620000D01*
X159650000Y-78325000D02*
X160880000Y-78325000D01*
X160900000Y-78345000D02*
X160880000Y-78325000D01*
X169600000Y-97560000D02*
X169600000Y-93539998D01*
X169600000Y-93539998D02*
X168155003Y-92095001D01*
X168155003Y-92095001D02*
X166845001Y-92095001D01*
X170755000Y-98715000D02*
X169600000Y-97560000D01*
X151605000Y-123830000D02*
X146635000Y-123830000D01*
X155030000Y-123830000D02*
X151605000Y-123830000D01*
X146635000Y-123830000D02*
X146630000Y-123835000D01*
X165520000Y-123805000D02*
X162675000Y-123805000D01*
X162675000Y-123805000D02*
X162650000Y-123830000D01*
X173140000Y-123805000D02*
X170600000Y-123805000D01*
X170600000Y-123805000D02*
X168060000Y-123805000D01*
X165520000Y-123805000D02*
X168060000Y-123805000D01*
X155030000Y-123830000D02*
X157570000Y-123830000D01*
X157570000Y-123830000D02*
X160110000Y-123830000D01*
X162650000Y-123830000D02*
X160110000Y-123830000D01*
X143505000Y-112845000D02*
X141630000Y-112845000D01*
X141630000Y-112845000D02*
X140825000Y-112040000D01*
X140825000Y-106725000D02*
X142630000Y-104920000D01*
X142630000Y-104920000D02*
X143505000Y-104920000D01*
X143505000Y-104920000D02*
X143505000Y-104345000D01*
X143505000Y-104345000D02*
X144625000Y-103225000D01*
D42*
X121829529Y-86453861D02*
X120103861Y-86453861D01*
X121829529Y-87753861D02*
X124478861Y-87753861D01*
X124478861Y-87753861D02*
X124625000Y-87900000D01*
D43*
X121435000Y-73475000D02*
X122875000Y-73475000D01*
X122875000Y-73475000D02*
X122900000Y-73500000D01*
X163530000Y-108745000D02*
X166380000Y-108745000D01*
X162505000Y-108745000D02*
X163530000Y-108745000D01*
X160630000Y-108745000D02*
X162505000Y-108745000D01*
X148380000Y-104920000D02*
X149255000Y-104920000D01*
X143505000Y-104920000D02*
X144470000Y-104920000D01*
X143505000Y-112845000D02*
X145380000Y-112845000D01*
X145380000Y-112845000D02*
X149255000Y-112845000D01*
X132505000Y-108795000D02*
X134705000Y-108795000D01*
X134705000Y-108795000D02*
X134725000Y-108775000D01*
X128735000Y-109900000D02*
X130525000Y-109900000D01*
X130525000Y-109900000D02*
X131630000Y-108795000D01*
X131630000Y-108795000D02*
X132505000Y-108795000D01*
X126755000Y-108795000D02*
X127630000Y-108795000D01*
X127630000Y-108795000D02*
X128735000Y-109900000D01*
D42*
X154193053Y-111073574D02*
X153968054Y-110848575D01*
X154346254Y-111226775D02*
X154193053Y-111073574D01*
X154346254Y-115753186D02*
X154346254Y-111226775D01*
X152723034Y-112212407D02*
X152948033Y-112437406D01*
X150390000Y-111959988D02*
X152470615Y-111959988D01*
X152470615Y-111959988D02*
X152723034Y-112212407D01*
X129007986Y-73765000D02*
X128833100Y-73590114D01*
X128833100Y-73590114D02*
X128658101Y-73415115D01*
X130725000Y-73765000D02*
X129007986Y-73765000D01*
X154774999Y-101917292D02*
X154774999Y-99534578D01*
X154774999Y-99534578D02*
X149937548Y-94697127D01*
X155713342Y-102855635D02*
X154774999Y-101917292D01*
X155713342Y-114117308D02*
X155713342Y-102855635D01*
X149937548Y-94697127D02*
X149712549Y-94472128D01*
X156275000Y-114435021D02*
X156275000Y-102561010D01*
X156714979Y-114875000D02*
X156275000Y-114435021D01*
X156275000Y-102561010D02*
X155386790Y-101672800D01*
X155386790Y-99358238D02*
X152160289Y-96131737D01*
X155386790Y-101672800D02*
X155386790Y-99358238D01*
X152160289Y-96131737D02*
X152160289Y-91902802D01*
X152160289Y-91902802D02*
X152458103Y-91604988D01*
X153932585Y-86988399D02*
X152641214Y-85697028D01*
X155836801Y-99101805D02*
X152570300Y-95835304D01*
X153932585Y-90862842D02*
X153932585Y-86988399D01*
X157224999Y-115316269D02*
X157224999Y-113545609D01*
X156834878Y-115706390D02*
X157224999Y-115316269D01*
X152570300Y-92225127D02*
X153932585Y-90862842D01*
X155836801Y-101486399D02*
X155836801Y-99101805D01*
X156721146Y-113041756D02*
X156721146Y-102370744D01*
X157224999Y-113545609D02*
X156721146Y-113041756D01*
X156721146Y-102370744D02*
X155836801Y-101486399D01*
X152570300Y-95835304D02*
X152570300Y-92225127D01*
X152641214Y-85697028D02*
X152416215Y-85472029D01*
X150532767Y-82866548D02*
X150532767Y-82570469D01*
X156286812Y-101300000D02*
X156286812Y-98862945D01*
X157131157Y-112871924D02*
X157131157Y-102144345D01*
X156286812Y-98862945D02*
X152980311Y-95556444D01*
X157131157Y-102144345D02*
X156286812Y-101300000D01*
X156543695Y-116718850D02*
X157700020Y-115562525D01*
X156064980Y-116718850D02*
X156543695Y-116718850D01*
X152980311Y-92451527D02*
X154351264Y-91080574D01*
X157700020Y-113440787D02*
X157131157Y-112871924D01*
X150532767Y-82570469D02*
X150532767Y-82252271D01*
X157700020Y-115562525D02*
X157700020Y-113440787D01*
X154351264Y-86685045D02*
X150532767Y-82866548D01*
X152980311Y-95556444D02*
X152980311Y-92451527D01*
X154351264Y-91080574D02*
X154351264Y-86685045D01*
X173689999Y-120715001D02*
X173689999Y-90628187D01*
X157625505Y-84529980D02*
X157307307Y-84529980D01*
X170436823Y-87375011D02*
X162250011Y-87375011D01*
X159404980Y-84529980D02*
X157625505Y-84529980D01*
X173140000Y-121265000D02*
X173689999Y-120715001D01*
X162250011Y-87375011D02*
X159404980Y-84529980D01*
X173689999Y-90628187D02*
X170436823Y-87375011D01*
X156018726Y-85525067D02*
X155793727Y-85750066D01*
X161077324Y-87825022D02*
X158362269Y-85109967D01*
X172850000Y-90424598D02*
X170250424Y-87825022D01*
X172850000Y-119015000D02*
X172850000Y-90424598D01*
X170600000Y-121265000D02*
X172850000Y-119015000D01*
X156433826Y-85109967D02*
X156018726Y-85525067D01*
X158362269Y-85109967D02*
X156433826Y-85109967D01*
X170250424Y-87825022D02*
X161077324Y-87825022D01*
X160184087Y-88275033D02*
X158249750Y-86340696D01*
X170064025Y-88275033D02*
X160184087Y-88275033D01*
X172255012Y-90466021D02*
X170064025Y-88275033D01*
X172255012Y-117069988D02*
X172255012Y-90466021D01*
X168060000Y-121265000D02*
X172255012Y-117069988D01*
X157119848Y-86340696D02*
X156801650Y-86340696D01*
X158249750Y-86340696D02*
X157119848Y-86340696D01*
X158321750Y-87310101D02*
X156895152Y-87310101D01*
X169877626Y-88725044D02*
X159736693Y-88725044D01*
X171805001Y-114979999D02*
X171805001Y-90652420D01*
X156895152Y-87310101D02*
X156576954Y-87310101D01*
X165520000Y-121265000D02*
X171805001Y-114979999D01*
X159736693Y-88725044D02*
X158321750Y-87310101D01*
X171805001Y-90652420D02*
X169877626Y-88725044D01*
X128075000Y-75925000D02*
X128645000Y-76495000D01*
X128075000Y-75925000D02*
X126925000Y-75925000D01*
X126925000Y-75925000D02*
X126835000Y-76015000D01*
X124100000Y-73100000D02*
X125745000Y-74745000D01*
X125745000Y-74745000D02*
X126835000Y-74745000D01*
X126835000Y-74745000D02*
X128280000Y-74745000D01*
X130725000Y-76100000D02*
X129635000Y-76100000D01*
X129635000Y-76100000D02*
X128280000Y-74745000D01*
X126630000Y-74950000D02*
X126835000Y-74745000D01*
X125200000Y-73250000D02*
X126610000Y-73250000D01*
X126610000Y-73250000D02*
X126835000Y-73475000D01*
X124169163Y-84838901D02*
X124487361Y-84838901D01*
X143912754Y-85874969D02*
X144756951Y-85874969D01*
X124487361Y-84838901D02*
X124522361Y-84803901D01*
X155911154Y-81923832D02*
X156136153Y-82148831D01*
X124522361Y-84803901D02*
X142841686Y-84803901D01*
X142841686Y-84803901D02*
X143912754Y-85874969D01*
X144756951Y-85874969D02*
X146741600Y-83890321D01*
X146741600Y-83890321D02*
X146741600Y-81494237D01*
X146741600Y-81494237D02*
X147922373Y-80313464D01*
X147922373Y-80313464D02*
X154300786Y-80313464D01*
X154300786Y-80313464D02*
X155911154Y-81923832D01*
X121829529Y-85153861D02*
X123854203Y-85153861D01*
X123854203Y-85153861D02*
X123944164Y-85063900D01*
X123944164Y-85063900D02*
X124169163Y-84838901D01*
X157812752Y-87884586D02*
X157836941Y-87860397D01*
X156314101Y-87884586D02*
X157812752Y-87884586D01*
X151294715Y-87617373D02*
X149778560Y-86101218D01*
X141768227Y-87376411D02*
X140614807Y-87376411D01*
X140614807Y-87376411D02*
X140296609Y-87376411D01*
X142276827Y-87885011D02*
X141768227Y-87376411D01*
X147478625Y-86101218D02*
X145694832Y-87885011D01*
X145694832Y-87885011D02*
X142276827Y-87885011D01*
X149778560Y-86101218D02*
X147478625Y-86101218D01*
X120175000Y-84695000D02*
X119330000Y-84695000D01*
X119330000Y-84695000D02*
X118652037Y-85372963D01*
X119078019Y-89963940D02*
X119253018Y-90138939D01*
X118652037Y-85372963D02*
X118652037Y-89537958D01*
X118652037Y-89537958D02*
X119078019Y-89963940D01*
X120175000Y-84075000D02*
X120175000Y-84695000D01*
X120175000Y-84695000D02*
X120175000Y-85299332D01*
X120175000Y-85299332D02*
X120679529Y-85803861D01*
X120679529Y-85803861D02*
X121829529Y-85803861D01*
X151224887Y-113411524D02*
X152728717Y-113411524D01*
X150799530Y-85067328D02*
X150574531Y-84842329D01*
X153488402Y-87756200D02*
X150799530Y-85067328D01*
X149255000Y-116845000D02*
X149255000Y-115381411D01*
X153488402Y-89819887D02*
X153488402Y-87756200D01*
X154275002Y-107608897D02*
X154275002Y-99843267D01*
X154275002Y-99843267D02*
X149202547Y-94770812D01*
X153458034Y-108425865D02*
X154275002Y-107608897D01*
X153458034Y-112682207D02*
X153458034Y-108425865D01*
X149255000Y-115381411D02*
X151224887Y-113411524D01*
X149202547Y-94770812D02*
X149202547Y-94105742D01*
X152728717Y-113411524D02*
X153458034Y-112682207D01*
X149202547Y-94105742D02*
X153488402Y-89819887D01*
X149255000Y-116845000D02*
X151855000Y-116845000D01*
X151855000Y-116845000D02*
X151880000Y-116870000D01*
X143505000Y-116845000D02*
X145130000Y-116845000D01*
X145130000Y-116845000D02*
X149255000Y-116845000D01*
X150566413Y-81020851D02*
X153679583Y-81020851D01*
X149255000Y-108920000D02*
X149255000Y-108170000D01*
X153679583Y-81020851D02*
X154936991Y-82278259D01*
X148687348Y-94041098D02*
X153036143Y-89692303D01*
X154936991Y-82278259D02*
X155161990Y-82503258D01*
X149674989Y-101834260D02*
X149674989Y-95887320D01*
X153036143Y-89692303D02*
X153036143Y-88052014D01*
X148687348Y-94899679D02*
X148687348Y-94041098D01*
X149255000Y-108170000D02*
X151260025Y-106164975D01*
X151260025Y-106164975D02*
X151260025Y-103419296D01*
X151260025Y-103419296D02*
X149674989Y-101834260D01*
X149674989Y-95887320D02*
X148687348Y-94899679D01*
X153036143Y-88052014D02*
X149617613Y-84633484D01*
X149617613Y-84633484D02*
X149617613Y-81969651D01*
X149617613Y-81969651D02*
X150566413Y-81020851D01*
X148780000Y-110870000D02*
X148780000Y-109395000D01*
X148780000Y-109395000D02*
X149255000Y-108920000D01*
X143505000Y-108920000D02*
X149255000Y-108920000D01*
X132505000Y-112795000D02*
X132505000Y-112045000D01*
X146669633Y-99556209D02*
X146669633Y-95478970D01*
X140415001Y-104134999D02*
X142090843Y-104134999D01*
X149990971Y-85591217D02*
X149659979Y-85591217D01*
X152591960Y-88192206D02*
X149990971Y-85591217D01*
X146669633Y-95478970D02*
X152591960Y-89556643D01*
X142090843Y-104134999D02*
X146669633Y-99556209D01*
X132505000Y-112045000D02*
X140415001Y-104134999D01*
X149659979Y-85591217D02*
X149341781Y-85591217D01*
X152591960Y-89556643D02*
X152591960Y-88192206D01*
X129455000Y-112795000D02*
X132505000Y-112795000D01*
X126755000Y-112795000D02*
X129455000Y-112795000D01*
X132505000Y-112795000D02*
X132505000Y-114670000D01*
X132505000Y-114670000D02*
X132230000Y-114945000D01*
X158665493Y-96610739D02*
X158890492Y-96385740D01*
X154793322Y-86116737D02*
X154793322Y-91274927D01*
X155307109Y-97303399D02*
X157972833Y-97303399D01*
X153390322Y-95386612D02*
X155307109Y-97303399D01*
X153739795Y-85063210D02*
X154793322Y-86116737D01*
X153390322Y-92677927D02*
X153390322Y-95386612D01*
X157972833Y-97303399D02*
X158665493Y-96610739D01*
X154793322Y-91274927D02*
X153390322Y-92677927D01*
X157740953Y-112745000D02*
X157733232Y-112752721D01*
X160630000Y-112745000D02*
X157740953Y-112745000D01*
X166380000Y-112745000D02*
X166805000Y-113170000D01*
X166805000Y-113170000D02*
X166805000Y-114795000D01*
X160630000Y-112745000D02*
X166380000Y-112745000D01*
X158164958Y-95386539D02*
X158164958Y-94139535D01*
X156785042Y-96766455D02*
X158164958Y-95386539D01*
X158164958Y-94139535D02*
X158164958Y-93821337D01*
X159925000Y-80375000D02*
X158058117Y-78508117D01*
X156450000Y-90575000D02*
X155229087Y-89354087D01*
X155229087Y-89354087D02*
X155229087Y-85362359D01*
X155229087Y-85362359D02*
X156571468Y-84019978D01*
X156571468Y-84019978D02*
X159139736Y-84019978D01*
X158058117Y-78508117D02*
X151043869Y-78508117D01*
X159139736Y-84019978D02*
X159925000Y-83234714D01*
X159925000Y-83234714D02*
X159925000Y-80375000D01*
X151043869Y-78508117D02*
X150725671Y-78508117D01*
X149453176Y-88149876D02*
X149678175Y-87924877D01*
X147748501Y-89854551D02*
X149453176Y-88149876D01*
X141106457Y-89854551D02*
X147748501Y-89854551D01*
X140590279Y-90365446D02*
X140272081Y-90365446D01*
X149408266Y-90365446D02*
X140590279Y-90365446D01*
X151283150Y-88490562D02*
X149408266Y-90365446D01*
X141947222Y-92520004D02*
X143691769Y-90775457D01*
X138417847Y-90817851D02*
X140120000Y-92520004D01*
X137398191Y-90817851D02*
X138417847Y-90817851D01*
X132842480Y-95373562D02*
X137398191Y-90817851D01*
X131099054Y-95373562D02*
X132842480Y-95373562D01*
X149750103Y-90775457D02*
X151856941Y-88668619D01*
X129650000Y-93924508D02*
X131099054Y-95373562D01*
X129650000Y-91900000D02*
X129650000Y-93924508D01*
X143691769Y-90775457D02*
X149750103Y-90775457D01*
X151856941Y-88668619D02*
X152081940Y-88443620D01*
X140120000Y-92520004D02*
X141947222Y-92520004D01*
X154279826Y-95428765D02*
X154054827Y-95203766D01*
X156120450Y-96757474D02*
X155608535Y-96757474D01*
X155608535Y-96757474D02*
X154279826Y-95428765D01*
X158722605Y-92476232D02*
X157132619Y-92476232D01*
X157132619Y-92476232D02*
X155895778Y-93713073D01*
X155635467Y-95091006D02*
X155410468Y-95316005D01*
X155895778Y-93713073D02*
X155895778Y-94830695D01*
X155895778Y-94830695D02*
X155635467Y-95091006D01*
X155045020Y-93789890D02*
X155045020Y-94108088D01*
X170755000Y-91095000D02*
X168835055Y-89175055D01*
X155045020Y-93491232D02*
X155045020Y-93789890D01*
X159361197Y-89175055D02*
X155045020Y-93491232D01*
X168835055Y-89175055D02*
X159361197Y-89175055D01*
X156497651Y-95301297D02*
X156494926Y-95304022D01*
X156497651Y-94000316D02*
X156497651Y-95301297D01*
X139732102Y-85973922D02*
X142385332Y-85973922D01*
X142385332Y-85973922D02*
X143426399Y-87014989D01*
X133485368Y-90089632D02*
X136420670Y-87154330D01*
X133485368Y-93251742D02*
X133485368Y-90089632D01*
X138551694Y-87154330D02*
X139732102Y-85973922D01*
X136420670Y-87154330D02*
X138551694Y-87154330D01*
X145130169Y-87014989D02*
X148868006Y-83277152D01*
X148868006Y-83277152D02*
X148868006Y-81303757D01*
X148868006Y-81303757D02*
X148868006Y-80985559D01*
X132134297Y-94602813D02*
X133485368Y-93251742D01*
X143426399Y-87014989D02*
X145130169Y-87014989D01*
X122298757Y-80359633D02*
X122516239Y-80359633D01*
X121829529Y-81253861D02*
X121829529Y-80828861D01*
X122516239Y-80359633D02*
X122834437Y-80359633D01*
X121829529Y-80828861D02*
X122298757Y-80359633D01*
X167300000Y-76175000D02*
X166500000Y-76175000D01*
X166500000Y-76175000D02*
X166180000Y-76495000D01*
X119762687Y-77285000D02*
X119750593Y-77272906D01*
X121435000Y-77285000D02*
X119762687Y-77285000D01*
X121435000Y-76015000D02*
X121435000Y-74745000D01*
X121435000Y-76015000D02*
X121435000Y-77285000D01*
X120425000Y-81100000D02*
X120425000Y-81649332D01*
X120425000Y-81649332D02*
X120679529Y-81903861D01*
X120679529Y-81903861D02*
X121829529Y-81903861D01*
X120250000Y-89650000D02*
X120846139Y-89053861D01*
X120846139Y-89053861D02*
X121829529Y-89053861D01*
X120200000Y-88550000D02*
X121683390Y-88550000D01*
X121683390Y-88550000D02*
X121829529Y-88403861D01*
X121550000Y-91425000D02*
X121550000Y-90633390D01*
X121550000Y-90633390D02*
X121829529Y-90353861D01*
X123650000Y-89900000D02*
X123453861Y-89703861D01*
X123453861Y-89703861D02*
X121829529Y-89703861D01*
X163024250Y-77767032D02*
X162849251Y-77592033D01*
X163237218Y-77980000D02*
X163024250Y-77767032D01*
X164105000Y-77980000D02*
X163237218Y-77980000D01*
X126560000Y-100520000D02*
X125570907Y-100520000D01*
X125570907Y-100520000D02*
X124378833Y-99327926D01*
X124378833Y-99327926D02*
X124378833Y-92563709D01*
X124378833Y-92563709D02*
X124378833Y-92316222D01*
X125125019Y-96849999D02*
X124975020Y-96700000D01*
X126560000Y-98284980D02*
X125125019Y-96849999D01*
X126560000Y-99670000D02*
X126560000Y-98284980D01*
X133360000Y-100645000D02*
X132578480Y-100645000D01*
X132578480Y-100645000D02*
X126033480Y-94100000D01*
X126033480Y-94100000D02*
X125125000Y-94100000D01*
X133360000Y-99795000D02*
X133360000Y-96459492D01*
X133360000Y-96459492D02*
X134974981Y-94844511D01*
X134974981Y-94844511D02*
X135124980Y-94694512D01*
X159550000Y-100695000D02*
X160085000Y-100695000D01*
X160085000Y-100695000D02*
X160381252Y-100991252D01*
X160381252Y-100991252D02*
X160381252Y-105208990D01*
X160381252Y-105208990D02*
X159620120Y-105970122D01*
X159620120Y-105970122D02*
X159470121Y-106120121D01*
X159550000Y-101545000D02*
X159550000Y-103716341D01*
X159550000Y-103716341D02*
X158349128Y-104917213D01*
X158349128Y-104917213D02*
X158349128Y-111026628D01*
X158349128Y-111026628D02*
X158349128Y-111238760D01*
X168075000Y-100695000D02*
X168747282Y-100695000D01*
X164802229Y-103970751D02*
X162335725Y-101504247D01*
X168747282Y-100695000D02*
X169116700Y-101064418D01*
X169116700Y-101064418D02*
X169116700Y-102736268D01*
X169116700Y-102736268D02*
X167882217Y-103970751D01*
X167882217Y-103970751D02*
X164802229Y-103970751D01*
X162335725Y-101504247D02*
X162331458Y-101499980D01*
X168075000Y-102293507D02*
X168280232Y-102498739D01*
X168280232Y-102498739D02*
X168455231Y-102673738D01*
X168075000Y-101545000D02*
X168075000Y-102293507D01*
X146300000Y-73550000D02*
X146300000Y-74540000D01*
X146300000Y-74540000D02*
X145275000Y-75565000D01*
X120100000Y-82325000D02*
X120328861Y-82553861D01*
X120328861Y-82553861D02*
X121829529Y-82553861D01*
X139934724Y-83203861D02*
X144113585Y-79025000D01*
X144113585Y-79025000D02*
X156915016Y-79025000D01*
X158309587Y-80419571D02*
X158534586Y-80644570D01*
X121829529Y-83203861D02*
X139934724Y-83203861D01*
X156915016Y-79025000D02*
X158309587Y-80419571D01*
X155038408Y-79463414D02*
X157156152Y-81581158D01*
X144304334Y-79470662D02*
X147189759Y-79470662D01*
X147197007Y-79463414D02*
X155038408Y-79463414D01*
X147189759Y-79470662D02*
X147197007Y-79463414D01*
X157156152Y-81581158D02*
X157156152Y-81899356D01*
X139921135Y-83853861D02*
X144304334Y-79470662D01*
X121829529Y-83853861D02*
X139921135Y-83853861D01*
X143003077Y-84328881D02*
X144099154Y-85424958D01*
X146291589Y-80948675D02*
X147366839Y-79873425D01*
X156026526Y-83013260D02*
X154985749Y-83013260D01*
X121829529Y-84503861D02*
X122979529Y-84503861D01*
X146291589Y-83760490D02*
X146291589Y-80948675D01*
X123154509Y-84328881D02*
X143003077Y-84328881D01*
X122979529Y-84503861D02*
X123154509Y-84328881D01*
X144099154Y-85424958D02*
X144627120Y-85424958D01*
X144627120Y-85424958D02*
X146291589Y-83760490D01*
X154985749Y-83013260D02*
X153979527Y-84019482D01*
X147366839Y-79873425D02*
X154615549Y-79873425D01*
X154615549Y-79873425D02*
X156646154Y-81904030D01*
X156646154Y-81904030D02*
X156646154Y-82393632D01*
X156646154Y-82393632D02*
X156026526Y-83013260D01*
X153979527Y-84019482D02*
X153754528Y-84244481D01*
X127730000Y-100560000D02*
X128519990Y-101349990D01*
X130411651Y-100353983D02*
X131667171Y-100353983D01*
X137143616Y-98343198D02*
X137143616Y-98025000D01*
X128519990Y-101349990D02*
X129415644Y-101349990D01*
X127730000Y-100520000D02*
X127730000Y-100560000D01*
X133275293Y-101962105D02*
X136131551Y-101962105D01*
X136131551Y-101962105D02*
X137143616Y-100950040D01*
X131667171Y-100353983D02*
X133275293Y-101962105D01*
X129415644Y-101349990D02*
X130411651Y-100353983D01*
X137143616Y-100950040D02*
X137143616Y-98343198D01*
X134530000Y-100645000D02*
X135065000Y-100645000D01*
X135065000Y-100645000D02*
X135640000Y-101220000D01*
X138675002Y-93145156D02*
X138675002Y-92252873D01*
X137974999Y-91552870D02*
X137750000Y-91327871D01*
X136633596Y-95186562D02*
X138675002Y-93145156D01*
X138675002Y-92252873D02*
X137974999Y-91552870D01*
X135640000Y-101220000D02*
X136293813Y-101220000D01*
X136633596Y-100880217D02*
X136633596Y-95186562D01*
X136293813Y-101220000D02*
X136633596Y-100880217D01*
X158380000Y-100695000D02*
X159219413Y-99855587D01*
X159219413Y-99855587D02*
X160238696Y-99855587D01*
X160805192Y-100422083D02*
X160805192Y-102188428D01*
X166634557Y-106415767D02*
X168700000Y-108481210D01*
X160238696Y-99855587D02*
X160805192Y-100422083D01*
X160805192Y-102188428D02*
X165032531Y-106415767D01*
X165032531Y-106415767D02*
X166634557Y-106415767D01*
X168700000Y-108481210D02*
X168700000Y-113928220D01*
X168700000Y-113928220D02*
X168664110Y-113964110D01*
X166905000Y-100695000D02*
X166905000Y-100655000D01*
X166905000Y-100655000D02*
X167593878Y-99966122D01*
X167593878Y-99966122D02*
X168775501Y-99966122D01*
X168775501Y-99966122D02*
X169700000Y-100890621D01*
X169700000Y-100890621D02*
X169700000Y-106775000D01*
X169700000Y-106775000D02*
X169474999Y-107000001D01*
X169474999Y-107000001D02*
X169300000Y-107175000D01*
X160367003Y-95664033D02*
X160367003Y-95227407D01*
X158177172Y-97853864D02*
X160367003Y-95664033D01*
X156494581Y-97853864D02*
X158177172Y-97853864D01*
X156493766Y-97854679D02*
X156494581Y-97853864D01*
X156175568Y-97854679D02*
X156493766Y-97854679D01*
X160367003Y-95227407D02*
X160367003Y-94909209D01*
D43*
X126250000Y-114850000D02*
X126224606Y-114850000D01*
X124899606Y-116175000D02*
X122300000Y-116175000D01*
X126224606Y-114850000D02*
X124899606Y-116175000D01*
X122300000Y-116175000D02*
X120275000Y-114150000D01*
X120275000Y-114150000D02*
X120275000Y-112090756D01*
X120275000Y-112090756D02*
X123198027Y-109167729D01*
X123198027Y-109167729D02*
X123245725Y-109167729D01*
X130350758Y-114600065D02*
X130650757Y-114300066D01*
X126250000Y-114850000D02*
X130100823Y-114850000D01*
X130100823Y-114850000D02*
X130350758Y-114600065D01*
D42*
X140555000Y-98970000D02*
X140555000Y-97232000D01*
X140555000Y-97232000D02*
X140970000Y-96817000D01*
X141655000Y-98970000D02*
X141655000Y-99470000D01*
X141655000Y-99470000D02*
X141234742Y-99890258D01*
X141234742Y-99890258D02*
X140025258Y-99890258D01*
X140025258Y-99890258D02*
X139605000Y-99470000D01*
X139605000Y-99470000D02*
X139605000Y-98920000D01*
X138705000Y-98920000D02*
X138705000Y-97593903D01*
X138705000Y-97593903D02*
X137645000Y-96533903D01*
X137645000Y-96533903D02*
X137645000Y-95267836D01*
X137645000Y-95267836D02*
X138787836Y-94125000D01*
X138787836Y-94125000D02*
X139350000Y-94125000D01*
X143930161Y-91294839D02*
X143925000Y-91300000D01*
X147944150Y-91775000D02*
X147463989Y-91294839D01*
X147950000Y-91775000D02*
X147944150Y-91775000D01*
X147463989Y-91294839D02*
X143930161Y-91294839D01*
X141934902Y-86534902D02*
X142825000Y-87425000D01*
X140216984Y-86534902D02*
X141934902Y-86534902D01*
X147836996Y-84988004D02*
X148932761Y-84988004D01*
X145400000Y-87425000D02*
X147836996Y-84988004D01*
X142825000Y-87425000D02*
X145400000Y-87425000D01*
X148932761Y-84988004D02*
X149250959Y-84988004D01*
X118375000Y-83025000D02*
X118375000Y-82084909D01*
X118375000Y-82084909D02*
X118168993Y-81878902D01*
X115680000Y-96520000D02*
X112863113Y-96520000D01*
X112863113Y-96520000D02*
X111230000Y-98153113D01*
X111230000Y-98153113D02*
X111230000Y-98838950D01*
X111230000Y-98838950D02*
X111230000Y-100620000D01*
X115680000Y-96520000D02*
X115680000Y-90770000D01*
X115680000Y-90770000D02*
X113455000Y-88545000D01*
X113730000Y-82095000D02*
X116875000Y-78950000D01*
X113455000Y-88545000D02*
X113455000Y-87645000D01*
X113455000Y-87645000D02*
X112780000Y-86970000D01*
X112780000Y-86970000D02*
X112780000Y-83045000D01*
X112780000Y-83045000D02*
X113730000Y-82095000D01*
X114139160Y-84086615D02*
X114364159Y-83861616D01*
X113451498Y-84774277D02*
X114139160Y-84086615D01*
X115680000Y-87120000D02*
X115380000Y-87120000D01*
X113451498Y-85191498D02*
X113451498Y-84774277D01*
X115380000Y-87120000D02*
X113451498Y-85191498D01*
X120094072Y-80502093D02*
X120319071Y-80277094D01*
X114150000Y-84825000D02*
X117925000Y-84825000D01*
X119150000Y-83600000D02*
X119150000Y-81446165D01*
X117925000Y-84825000D02*
X119150000Y-83600000D01*
X119150000Y-81446165D02*
X120094072Y-80502093D01*
D44*
G36*
X147415910Y-117796441D02*
X147628110Y-117941431D01*
X147880000Y-117992440D01*
X150630000Y-117992440D01*
X150865317Y-117948162D01*
X151081441Y-117809090D01*
X151212877Y-117616727D01*
X151215910Y-117621441D01*
X151428110Y-117766431D01*
X151680000Y-117817440D01*
X152080000Y-117817440D01*
X152315317Y-117773162D01*
X152339406Y-117757661D01*
X152453691Y-117805000D01*
X152521250Y-117805000D01*
X152596777Y-117729473D01*
X152596777Y-118854876D01*
X150979210Y-120472442D01*
X150787367Y-120759557D01*
X150787367Y-120759558D01*
X150719999Y-121098232D01*
X150720000Y-121098237D01*
X150720000Y-122945000D01*
X147415935Y-122945000D01*
X147302125Y-122830991D01*
X146866745Y-122650206D01*
X146395323Y-122649794D01*
X145959628Y-122829820D01*
X145625991Y-123162875D01*
X145445206Y-123598255D01*
X145444794Y-124069677D01*
X145587272Y-124414500D01*
X145132470Y-124414500D01*
X145274794Y-124071745D01*
X145275206Y-123600323D01*
X145095180Y-123164628D01*
X144762125Y-122830991D01*
X144326745Y-122650206D01*
X143855323Y-122649794D01*
X143419628Y-122829820D01*
X143085991Y-123162875D01*
X142905206Y-123598255D01*
X142904794Y-124069677D01*
X143047272Y-124414500D01*
X142592470Y-124414500D01*
X142734794Y-124071745D01*
X142735206Y-123600323D01*
X142555180Y-123164628D01*
X142222125Y-122830991D01*
X141786745Y-122650206D01*
X141315323Y-122649794D01*
X140879628Y-122829820D01*
X140545991Y-123162875D01*
X140365206Y-123598255D01*
X140364794Y-124069677D01*
X140507272Y-124414500D01*
X140064829Y-124414500D01*
X140207972Y-123991999D01*
X140176863Y-123521604D01*
X140056701Y-123231508D01*
X139836433Y-123188172D01*
X139189605Y-123835000D01*
X139203748Y-123849143D01*
X139024143Y-124028748D01*
X139010000Y-124014605D01*
X138995858Y-124028748D01*
X138816253Y-123849143D01*
X138830395Y-123835000D01*
X138183567Y-123188172D01*
X137963299Y-123231508D01*
X137812028Y-123678001D01*
X137843137Y-124148396D01*
X137953361Y-124414500D01*
X132716267Y-124414500D01*
X133338761Y-124157291D01*
X134089655Y-123407707D01*
X134255392Y-123008567D01*
X138363172Y-123008567D01*
X139010000Y-123655395D01*
X139656828Y-123008567D01*
X139613492Y-122788299D01*
X139166999Y-122637028D01*
X138696604Y-122668137D01*
X138406508Y-122788299D01*
X138363172Y-123008567D01*
X134255392Y-123008567D01*
X134496536Y-122427827D01*
X134496803Y-122121433D01*
X138363172Y-122121433D01*
X138406508Y-122341701D01*
X138853001Y-122492972D01*
X139323396Y-122461863D01*
X139613492Y-122341701D01*
X139656828Y-122121433D01*
X139010000Y-121474605D01*
X138363172Y-122121433D01*
X134496803Y-122121433D01*
X134497462Y-121366828D01*
X134402913Y-121138001D01*
X137812028Y-121138001D01*
X137843137Y-121608396D01*
X137963299Y-121898492D01*
X138183567Y-121941828D01*
X138830395Y-121295000D01*
X139189605Y-121295000D01*
X139836433Y-121941828D01*
X140056701Y-121898492D01*
X140181654Y-121529677D01*
X140364794Y-121529677D01*
X140544820Y-121965372D01*
X140877875Y-122299009D01*
X141313255Y-122479794D01*
X141784677Y-122480206D01*
X142220372Y-122300180D01*
X142554009Y-121967125D01*
X142734794Y-121531745D01*
X142735206Y-121060323D01*
X142555180Y-120624628D01*
X142222125Y-120290991D01*
X141786745Y-120110206D01*
X141315323Y-120109794D01*
X140879628Y-120289820D01*
X140545991Y-120622875D01*
X140365206Y-121058255D01*
X140364794Y-121529677D01*
X140181654Y-121529677D01*
X140207972Y-121451999D01*
X140176863Y-120981604D01*
X140056701Y-120691508D01*
X139836433Y-120648172D01*
X139189605Y-121295000D01*
X138830395Y-121295000D01*
X138183567Y-120648172D01*
X137963299Y-120691508D01*
X137812028Y-121138001D01*
X134402913Y-121138001D01*
X134126309Y-120468567D01*
X138363172Y-120468567D01*
X139010000Y-121115395D01*
X139656828Y-120468567D01*
X139613492Y-120248299D01*
X139166999Y-120097028D01*
X138696604Y-120128137D01*
X138406508Y-120248299D01*
X138363172Y-120468567D01*
X134126309Y-120468567D01*
X134092291Y-120386239D01*
X133342707Y-119635345D01*
X132772546Y-119398594D01*
X143482014Y-119398594D01*
X144193510Y-120110090D01*
X143855323Y-120109794D01*
X143419628Y-120289820D01*
X143085991Y-120622875D01*
X142905206Y-121058255D01*
X142904794Y-121529677D01*
X143084820Y-121965372D01*
X143417875Y-122299009D01*
X143853255Y-122479794D01*
X144324677Y-122480206D01*
X144760372Y-122300180D01*
X145094009Y-121967125D01*
X145274794Y-121531745D01*
X145275091Y-121191670D01*
X145444941Y-121361520D01*
X145444794Y-121529677D01*
X145624820Y-121965372D01*
X145957875Y-122299009D01*
X146393255Y-122479794D01*
X146864677Y-122480206D01*
X147300372Y-122300180D01*
X147634009Y-121967125D01*
X147814794Y-121531745D01*
X147815206Y-121060323D01*
X147635180Y-120624628D01*
X147302125Y-120290991D01*
X146866745Y-120110206D01*
X146696637Y-120110057D01*
X144579020Y-117992440D01*
X144880000Y-117992440D01*
X145115317Y-117948162D01*
X145331441Y-117809090D01*
X145470890Y-117605000D01*
X147292721Y-117605000D01*
X147415910Y-117796441D01*
X147415910Y-117796441D01*
G37*
X147415910Y-117796441D02*
X147628110Y-117941431D01*
X147880000Y-117992440D01*
X150630000Y-117992440D01*
X150865317Y-117948162D01*
X151081441Y-117809090D01*
X151212877Y-117616727D01*
X151215910Y-117621441D01*
X151428110Y-117766431D01*
X151680000Y-117817440D01*
X152080000Y-117817440D01*
X152315317Y-117773162D01*
X152339406Y-117757661D01*
X152453691Y-117805000D01*
X152521250Y-117805000D01*
X152596777Y-117729473D01*
X152596777Y-118854876D01*
X150979210Y-120472442D01*
X150787367Y-120759557D01*
X150787367Y-120759558D01*
X150719999Y-121098232D01*
X150720000Y-121098237D01*
X150720000Y-122945000D01*
X147415935Y-122945000D01*
X147302125Y-122830991D01*
X146866745Y-122650206D01*
X146395323Y-122649794D01*
X145959628Y-122829820D01*
X145625991Y-123162875D01*
X145445206Y-123598255D01*
X145444794Y-124069677D01*
X145587272Y-124414500D01*
X145132470Y-124414500D01*
X145274794Y-124071745D01*
X145275206Y-123600323D01*
X145095180Y-123164628D01*
X144762125Y-122830991D01*
X144326745Y-122650206D01*
X143855323Y-122649794D01*
X143419628Y-122829820D01*
X143085991Y-123162875D01*
X142905206Y-123598255D01*
X142904794Y-124069677D01*
X143047272Y-124414500D01*
X142592470Y-124414500D01*
X142734794Y-124071745D01*
X142735206Y-123600323D01*
X142555180Y-123164628D01*
X142222125Y-122830991D01*
X141786745Y-122650206D01*
X141315323Y-122649794D01*
X140879628Y-122829820D01*
X140545991Y-123162875D01*
X140365206Y-123598255D01*
X140364794Y-124069677D01*
X140507272Y-124414500D01*
X140064829Y-124414500D01*
X140207972Y-123991999D01*
X140176863Y-123521604D01*
X140056701Y-123231508D01*
X139836433Y-123188172D01*
X139189605Y-123835000D01*
X139203748Y-123849143D01*
X139024143Y-124028748D01*
X139010000Y-124014605D01*
X138995858Y-124028748D01*
X138816253Y-123849143D01*
X138830395Y-123835000D01*
X138183567Y-123188172D01*
X137963299Y-123231508D01*
X137812028Y-123678001D01*
X137843137Y-124148396D01*
X137953361Y-124414500D01*
X132716267Y-124414500D01*
X133338761Y-124157291D01*
X134089655Y-123407707D01*
X134255392Y-123008567D01*
X138363172Y-123008567D01*
X139010000Y-123655395D01*
X139656828Y-123008567D01*
X139613492Y-122788299D01*
X139166999Y-122637028D01*
X138696604Y-122668137D01*
X138406508Y-122788299D01*
X138363172Y-123008567D01*
X134255392Y-123008567D01*
X134496536Y-122427827D01*
X134496803Y-122121433D01*
X138363172Y-122121433D01*
X138406508Y-122341701D01*
X138853001Y-122492972D01*
X139323396Y-122461863D01*
X139613492Y-122341701D01*
X139656828Y-122121433D01*
X139010000Y-121474605D01*
X138363172Y-122121433D01*
X134496803Y-122121433D01*
X134497462Y-121366828D01*
X134402913Y-121138001D01*
X137812028Y-121138001D01*
X137843137Y-121608396D01*
X137963299Y-121898492D01*
X138183567Y-121941828D01*
X138830395Y-121295000D01*
X139189605Y-121295000D01*
X139836433Y-121941828D01*
X140056701Y-121898492D01*
X140181654Y-121529677D01*
X140364794Y-121529677D01*
X140544820Y-121965372D01*
X140877875Y-122299009D01*
X141313255Y-122479794D01*
X141784677Y-122480206D01*
X142220372Y-122300180D01*
X142554009Y-121967125D01*
X142734794Y-121531745D01*
X142735206Y-121060323D01*
X142555180Y-120624628D01*
X142222125Y-120290991D01*
X141786745Y-120110206D01*
X141315323Y-120109794D01*
X140879628Y-120289820D01*
X140545991Y-120622875D01*
X140365206Y-121058255D01*
X140364794Y-121529677D01*
X140181654Y-121529677D01*
X140207972Y-121451999D01*
X140176863Y-120981604D01*
X140056701Y-120691508D01*
X139836433Y-120648172D01*
X139189605Y-121295000D01*
X138830395Y-121295000D01*
X138183567Y-120648172D01*
X137963299Y-120691508D01*
X137812028Y-121138001D01*
X134402913Y-121138001D01*
X134126309Y-120468567D01*
X138363172Y-120468567D01*
X139010000Y-121115395D01*
X139656828Y-120468567D01*
X139613492Y-120248299D01*
X139166999Y-120097028D01*
X138696604Y-120128137D01*
X138406508Y-120248299D01*
X138363172Y-120468567D01*
X134126309Y-120468567D01*
X134092291Y-120386239D01*
X133342707Y-119635345D01*
X132772546Y-119398594D01*
X143482014Y-119398594D01*
X144193510Y-120110090D01*
X143855323Y-120109794D01*
X143419628Y-120289820D01*
X143085991Y-120622875D01*
X142905206Y-121058255D01*
X142904794Y-121529677D01*
X143084820Y-121965372D01*
X143417875Y-122299009D01*
X143853255Y-122479794D01*
X144324677Y-122480206D01*
X144760372Y-122300180D01*
X145094009Y-121967125D01*
X145274794Y-121531745D01*
X145275091Y-121191670D01*
X145444941Y-121361520D01*
X145444794Y-121529677D01*
X145624820Y-121965372D01*
X145957875Y-122299009D01*
X146393255Y-122479794D01*
X146864677Y-122480206D01*
X147300372Y-122300180D01*
X147634009Y-121967125D01*
X147814794Y-121531745D01*
X147815206Y-121060323D01*
X147635180Y-120624628D01*
X147302125Y-120290991D01*
X146866745Y-120110206D01*
X146696637Y-120110057D01*
X144579020Y-117992440D01*
X144880000Y-117992440D01*
X145115317Y-117948162D01*
X145331441Y-117809090D01*
X145470890Y-117605000D01*
X147292721Y-117605000D01*
X147415910Y-117796441D01*
G36*
X153871239Y-71407709D02*
X153120345Y-72157293D01*
X152713464Y-73137173D01*
X152712538Y-74198172D01*
X153117709Y-75178761D01*
X153867293Y-75929655D01*
X154847173Y-76336536D01*
X155908172Y-76337462D01*
X156888761Y-75932291D01*
X157639655Y-75182707D01*
X158046536Y-74202827D01*
X158047462Y-73141828D01*
X157642291Y-72161239D01*
X156892707Y-71410345D01*
X156038144Y-71055500D01*
X165699917Y-71055500D01*
X177294500Y-80717652D01*
X177294500Y-121382135D01*
X177036114Y-122586226D01*
X176370310Y-123550954D01*
X175386000Y-124187454D01*
X174173298Y-124409777D01*
X174171987Y-124409745D01*
X174324794Y-124041745D01*
X174325206Y-123570323D01*
X174145180Y-123134628D01*
X173812125Y-122800991D01*
X173376745Y-122620206D01*
X172905323Y-122619794D01*
X172469628Y-122799820D01*
X172349238Y-122920000D01*
X171390926Y-122920000D01*
X171272125Y-122800991D01*
X170836745Y-122620206D01*
X170365323Y-122619794D01*
X169929628Y-122799820D01*
X169809238Y-122920000D01*
X168850926Y-122920000D01*
X168732125Y-122800991D01*
X168296745Y-122620206D01*
X167825323Y-122619794D01*
X167389628Y-122799820D01*
X167269238Y-122920000D01*
X166310926Y-122920000D01*
X166192125Y-122800991D01*
X165756745Y-122620206D01*
X165285323Y-122619794D01*
X164849628Y-122799820D01*
X164729238Y-122920000D01*
X163415970Y-122920000D01*
X163322125Y-122825991D01*
X162886745Y-122645206D01*
X162415323Y-122644794D01*
X161979628Y-122824820D01*
X161859238Y-122945000D01*
X160900926Y-122945000D01*
X160782125Y-122825991D01*
X160346745Y-122645206D01*
X159875323Y-122644794D01*
X159439628Y-122824820D01*
X159319238Y-122945000D01*
X158360926Y-122945000D01*
X158242125Y-122825991D01*
X157806745Y-122645206D01*
X157335323Y-122644794D01*
X156899628Y-122824820D01*
X156779238Y-122945000D01*
X155820926Y-122945000D01*
X155702125Y-122825991D01*
X155266745Y-122645206D01*
X154795323Y-122644794D01*
X154359628Y-122824820D01*
X154239238Y-122945000D01*
X152490000Y-122945000D01*
X152490000Y-121524677D01*
X153844794Y-121524677D01*
X154024820Y-121960372D01*
X154357875Y-122294009D01*
X154793255Y-122474794D01*
X155264677Y-122475206D01*
X155700372Y-122295180D01*
X156034009Y-121962125D01*
X156214794Y-121526745D01*
X156214795Y-121524677D01*
X156384794Y-121524677D01*
X156564820Y-121960372D01*
X156897875Y-122294009D01*
X157333255Y-122474794D01*
X157804677Y-122475206D01*
X158240372Y-122295180D01*
X158574009Y-121962125D01*
X158754794Y-121526745D01*
X158754795Y-121524677D01*
X158924794Y-121524677D01*
X159104820Y-121960372D01*
X159437875Y-122294009D01*
X159873255Y-122474794D01*
X160344677Y-122475206D01*
X160780372Y-122295180D01*
X161114009Y-121962125D01*
X161294794Y-121526745D01*
X161294795Y-121524677D01*
X161464794Y-121524677D01*
X161644820Y-121960372D01*
X161977875Y-122294009D01*
X162413255Y-122474794D01*
X162884677Y-122475206D01*
X163320372Y-122295180D01*
X163654009Y-121962125D01*
X163834794Y-121526745D01*
X163835206Y-121055323D01*
X163655180Y-120619628D01*
X163322125Y-120285991D01*
X162886745Y-120105206D01*
X162415323Y-120104794D01*
X161979628Y-120284820D01*
X161645991Y-120617875D01*
X161465206Y-121053255D01*
X161464794Y-121524677D01*
X161294795Y-121524677D01*
X161295206Y-121055323D01*
X161115180Y-120619628D01*
X160782125Y-120285991D01*
X160346745Y-120105206D01*
X159875323Y-120104794D01*
X159439628Y-120284820D01*
X159105991Y-120617875D01*
X158925206Y-121053255D01*
X158924794Y-121524677D01*
X158754795Y-121524677D01*
X158755206Y-121055323D01*
X158575180Y-120619628D01*
X158242125Y-120285991D01*
X157806745Y-120105206D01*
X157335323Y-120104794D01*
X156899628Y-120284820D01*
X156565991Y-120617875D01*
X156385206Y-121053255D01*
X156384794Y-121524677D01*
X156214795Y-121524677D01*
X156215206Y-121055323D01*
X156035180Y-120619628D01*
X155702125Y-120285991D01*
X155266745Y-120105206D01*
X154795323Y-120104794D01*
X154359628Y-120284820D01*
X154025991Y-120617875D01*
X153845206Y-121053255D01*
X153844794Y-121524677D01*
X152490000Y-121524677D01*
X152490000Y-121464812D01*
X154107564Y-119847247D01*
X154107567Y-119847245D01*
X154299410Y-119560130D01*
X154366777Y-119221455D01*
X154366777Y-116613204D01*
X154516568Y-116613335D01*
X154832768Y-116482683D01*
X155074901Y-116240973D01*
X155206104Y-115925001D01*
X155206403Y-115582872D01*
X155106254Y-115340494D01*
X155106254Y-114726445D01*
X155225555Y-114845955D01*
X155541527Y-114977158D01*
X155742511Y-114977334D01*
X155886051Y-115120874D01*
X155985482Y-115361514D01*
X156028850Y-115404958D01*
X155975028Y-115534575D01*
X155974745Y-115858771D01*
X155894666Y-115858701D01*
X155578466Y-115989353D01*
X155336333Y-116231063D01*
X155205130Y-116547035D01*
X155204831Y-116889164D01*
X155335483Y-117205364D01*
X155577193Y-117447497D01*
X155893165Y-117578700D01*
X156235294Y-117578999D01*
X156477672Y-117478850D01*
X156543695Y-117478850D01*
X156834534Y-117420998D01*
X157081096Y-117256251D01*
X158237421Y-116099927D01*
X158362186Y-115913201D01*
X158402168Y-115853364D01*
X158460020Y-115562525D01*
X158460020Y-115080750D01*
X165070000Y-115080750D01*
X165070000Y-115221310D01*
X165166673Y-115454699D01*
X165345302Y-115633327D01*
X165578691Y-115730000D01*
X165646250Y-115730000D01*
X165805000Y-115571250D01*
X165805000Y-114922000D01*
X165228750Y-114922000D01*
X165070000Y-115080750D01*
X158460020Y-115080750D01*
X158460020Y-113505000D01*
X158667721Y-113505000D01*
X158790910Y-113696441D01*
X159003110Y-113841431D01*
X159255000Y-113892440D01*
X162005000Y-113892440D01*
X162240317Y-113848162D01*
X162456441Y-113709090D01*
X162595890Y-113505000D01*
X164417721Y-113505000D01*
X164540910Y-113696441D01*
X164753110Y-113841431D01*
X165005000Y-113892440D01*
X165500374Y-113892440D01*
X165345302Y-113956673D01*
X165166673Y-114135301D01*
X165070000Y-114368690D01*
X165070000Y-114509250D01*
X165228750Y-114668000D01*
X165805000Y-114668000D01*
X165805000Y-114648000D01*
X165957560Y-114648000D01*
X165957560Y-115095000D01*
X166001838Y-115330317D01*
X166005000Y-115335231D01*
X166005000Y-115571250D01*
X166163750Y-115730000D01*
X166231309Y-115730000D01*
X166342283Y-115684033D01*
X166353110Y-115691431D01*
X166605000Y-115742440D01*
X167005000Y-115742440D01*
X167240317Y-115698162D01*
X167456441Y-115559090D01*
X167601431Y-115346890D01*
X167652440Y-115095000D01*
X167652440Y-114495000D01*
X167608162Y-114259683D01*
X167565000Y-114192607D01*
X167565000Y-113892440D01*
X167755000Y-113892440D01*
X167804181Y-113883186D01*
X167803961Y-114134424D01*
X167934613Y-114450624D01*
X168176323Y-114692757D01*
X168492295Y-114823960D01*
X168834424Y-114824259D01*
X169150624Y-114693607D01*
X169392757Y-114451897D01*
X169523960Y-114135925D01*
X169524259Y-113793796D01*
X169460000Y-113638278D01*
X169460000Y-108481210D01*
X169402148Y-108190371D01*
X169387274Y-108168110D01*
X169298332Y-108034999D01*
X169470314Y-108035149D01*
X169786514Y-107904497D01*
X170028647Y-107662787D01*
X170129219Y-107420583D01*
X170237401Y-107312401D01*
X170402148Y-107065840D01*
X170419228Y-106979971D01*
X170460000Y-106775000D01*
X170460000Y-100890621D01*
X170402148Y-100599782D01*
X170237401Y-100353220D01*
X169312902Y-99428721D01*
X169173811Y-99335784D01*
X169261701Y-99318492D01*
X169412972Y-98871999D01*
X169395448Y-98607028D01*
X169569941Y-98781520D01*
X169569794Y-98949677D01*
X169749820Y-99385372D01*
X170082875Y-99719009D01*
X170518255Y-99899794D01*
X170989677Y-99900206D01*
X171045001Y-99877347D01*
X171045001Y-114665197D01*
X165630103Y-120080095D01*
X165285323Y-120079794D01*
X164849628Y-120259820D01*
X164515991Y-120592875D01*
X164335206Y-121028255D01*
X164334794Y-121499677D01*
X164514820Y-121935372D01*
X164847875Y-122269009D01*
X165283255Y-122449794D01*
X165754677Y-122450206D01*
X166190372Y-122270180D01*
X166524009Y-121937125D01*
X166704794Y-121501745D01*
X166705097Y-121154705D01*
X166906208Y-120953594D01*
X166875206Y-121028255D01*
X166874794Y-121499677D01*
X167054820Y-121935372D01*
X167387875Y-122269009D01*
X167823255Y-122449794D01*
X168294677Y-122450206D01*
X168730372Y-122270180D01*
X169064009Y-121937125D01*
X169244794Y-121501745D01*
X169245097Y-121154705D01*
X169446208Y-120953594D01*
X169415206Y-121028255D01*
X169414794Y-121499677D01*
X169594820Y-121935372D01*
X169927875Y-122269009D01*
X170363255Y-122449794D01*
X170834677Y-122450206D01*
X171270372Y-122270180D01*
X171604009Y-121937125D01*
X171784794Y-121501745D01*
X171785097Y-121154705D01*
X171986208Y-120953594D01*
X171955206Y-121028255D01*
X171954794Y-121499677D01*
X172134820Y-121935372D01*
X172467875Y-122269009D01*
X172903255Y-122449794D01*
X173374677Y-122450206D01*
X173810372Y-122270180D01*
X174144009Y-121937125D01*
X174324794Y-121501745D01*
X174325140Y-121106124D01*
X174392147Y-121005840D01*
X174449999Y-120715001D01*
X174449999Y-90628187D01*
X174392147Y-90337348D01*
X174227400Y-90090786D01*
X174216066Y-90079452D01*
X174265188Y-90079495D01*
X174608964Y-89937450D01*
X174872213Y-89674660D01*
X175014859Y-89331132D01*
X175015183Y-88959166D01*
X174965021Y-88837764D01*
X174965021Y-82610026D01*
X174965022Y-82610021D01*
X174897654Y-82271346D01*
X174885569Y-82253260D01*
X174705811Y-81984231D01*
X174705808Y-81984229D01*
X170090790Y-77369210D01*
X170069299Y-77354850D01*
X169803675Y-77177367D01*
X169747484Y-77166190D01*
X169465000Y-77109999D01*
X169464995Y-77110000D01*
X167183901Y-77110000D01*
X167199107Y-77034912D01*
X167470314Y-77035149D01*
X167786514Y-76904497D01*
X168028647Y-76662787D01*
X168159850Y-76346815D01*
X168160149Y-76004686D01*
X168029497Y-75688486D01*
X167787787Y-75446353D01*
X167471815Y-75315150D01*
X167129686Y-75314851D01*
X166887308Y-75415000D01*
X166500000Y-75415000D01*
X166336311Y-75447560D01*
X165780000Y-75447560D01*
X165544683Y-75491838D01*
X165328559Y-75630910D01*
X165183569Y-75843110D01*
X165144328Y-76036888D01*
X165108162Y-75844683D01*
X164969090Y-75628559D01*
X164756890Y-75483569D01*
X164505000Y-75432560D01*
X163705000Y-75432560D01*
X163469683Y-75476838D01*
X163286054Y-75595000D01*
X162725005Y-75595000D01*
X162725000Y-75594999D01*
X162386326Y-75662366D01*
X162341317Y-75692440D01*
X162099210Y-75854210D01*
X162099208Y-75854213D01*
X161249210Y-76704210D01*
X161249208Y-76704213D01*
X160513420Y-77440000D01*
X159956822Y-77440000D01*
X159836799Y-77390162D01*
X159464833Y-77389838D01*
X159121057Y-77531883D01*
X158857808Y-77794673D01*
X158729199Y-78104397D01*
X158595518Y-77970716D01*
X158348956Y-77805969D01*
X158058117Y-77748117D01*
X151137952Y-77748117D01*
X150897486Y-77648267D01*
X150555357Y-77647968D01*
X150239157Y-77778620D01*
X149997024Y-78020330D01*
X149895428Y-78265000D01*
X144113585Y-78265000D01*
X143822746Y-78322852D01*
X143576184Y-78487599D01*
X139619922Y-82443861D01*
X138403503Y-82443861D01*
X138492192Y-82355327D01*
X138634838Y-82011799D01*
X138635162Y-81639833D01*
X138493117Y-81296057D01*
X138230327Y-81032808D01*
X137886799Y-80890162D01*
X137514833Y-80889838D01*
X137171057Y-81031883D01*
X137030180Y-81172514D01*
X135479066Y-81172514D01*
X137798834Y-78852745D01*
X137918943Y-78803117D01*
X138182192Y-78540327D01*
X138324838Y-78196799D01*
X138325162Y-77824833D01*
X138183117Y-77481057D01*
X137920327Y-77217808D01*
X137576799Y-77075162D01*
X137204833Y-77074838D01*
X137112742Y-77112889D01*
X137122440Y-77065000D01*
X137122440Y-74065000D01*
X142627560Y-74065000D01*
X142627560Y-77065000D01*
X142671838Y-77300317D01*
X142810910Y-77516441D01*
X143023110Y-77661431D01*
X143275000Y-77712440D01*
X147275000Y-77712440D01*
X147510317Y-77668162D01*
X147726441Y-77529090D01*
X147871431Y-77316890D01*
X147922440Y-77065000D01*
X147922440Y-74065000D01*
X147878162Y-73829683D01*
X147739090Y-73613559D01*
X147526890Y-73468569D01*
X147275000Y-73417560D01*
X147160116Y-73417560D01*
X147160149Y-73379686D01*
X147029497Y-73063486D01*
X146787787Y-72821353D01*
X146471815Y-72690150D01*
X146129686Y-72689851D01*
X145813486Y-72820503D01*
X145571353Y-73062213D01*
X145440150Y-73378185D01*
X145440116Y-73417560D01*
X143275000Y-73417560D01*
X143039683Y-73461838D01*
X142823559Y-73600910D01*
X142678569Y-73813110D01*
X142627560Y-74065000D01*
X137122440Y-74065000D01*
X137078162Y-73829683D01*
X136939090Y-73613559D01*
X136726890Y-73468569D01*
X136475000Y-73417560D01*
X132475000Y-73417560D01*
X132239683Y-73461838D01*
X132023559Y-73600910D01*
X131878569Y-73813110D01*
X131827560Y-74065000D01*
X131827560Y-76148454D01*
X131675000Y-76117560D01*
X131584985Y-76117560D01*
X131585149Y-75929686D01*
X131454497Y-75613486D01*
X131212787Y-75371353D01*
X130896815Y-75240150D01*
X130554686Y-75239851D01*
X130312308Y-75340000D01*
X129949802Y-75340000D01*
X129134802Y-74525000D01*
X129717024Y-74525000D01*
X129721788Y-74550317D01*
X129860860Y-74766441D01*
X130073060Y-74911431D01*
X130324950Y-74962440D01*
X131125050Y-74962440D01*
X131360367Y-74918162D01*
X131576491Y-74779090D01*
X131721481Y-74566890D01*
X131772490Y-74315000D01*
X131772490Y-73215000D01*
X131728212Y-72979683D01*
X131589140Y-72763559D01*
X131376940Y-72618569D01*
X131125050Y-72567560D01*
X130324950Y-72567560D01*
X130089633Y-72611838D01*
X129873509Y-72750910D01*
X129728519Y-72963110D01*
X129720036Y-73005000D01*
X129419166Y-73005000D01*
X129387598Y-72928601D01*
X129145888Y-72686468D01*
X128829916Y-72555265D01*
X128487787Y-72554966D01*
X128171587Y-72685618D01*
X128097358Y-72759718D01*
X128074090Y-72723559D01*
X127861890Y-72578569D01*
X127610000Y-72527560D01*
X126798825Y-72527560D01*
X126610000Y-72490000D01*
X125612281Y-72490000D01*
X125371815Y-72390150D01*
X125029686Y-72389851D01*
X124713486Y-72520503D01*
X124689716Y-72544232D01*
X124559427Y-72413716D01*
X124261826Y-72290141D01*
X123939588Y-72289860D01*
X123641771Y-72412915D01*
X123413716Y-72640573D01*
X123392346Y-72692037D01*
X123086799Y-72565162D01*
X122714833Y-72564838D01*
X122653936Y-72590000D01*
X122478620Y-72590000D01*
X122461890Y-72578569D01*
X122210000Y-72527560D01*
X120660000Y-72527560D01*
X120424683Y-72571838D01*
X120208559Y-72710910D01*
X120063569Y-72923110D01*
X120012560Y-73175000D01*
X120012560Y-73775000D01*
X120056838Y-74010317D01*
X120120678Y-74109528D01*
X120063569Y-74193110D01*
X120012560Y-74445000D01*
X120012560Y-75045000D01*
X120056838Y-75280317D01*
X120120678Y-75379528D01*
X120063569Y-75463110D01*
X120012560Y-75715000D01*
X120012560Y-76315000D01*
X120040215Y-76461974D01*
X119922408Y-76413056D01*
X119580279Y-76412757D01*
X119264079Y-76543409D01*
X119021946Y-76785119D01*
X118890743Y-77101091D01*
X118890444Y-77443220D01*
X119021096Y-77759420D01*
X119262806Y-78001553D01*
X119578778Y-78132756D01*
X119920907Y-78133055D01*
X120134015Y-78045000D01*
X120208437Y-78045000D01*
X120408110Y-78181431D01*
X120660000Y-78232440D01*
X122210000Y-78232440D01*
X122445317Y-78188162D01*
X122577366Y-78103191D01*
X122490162Y-78313201D01*
X122489838Y-78685167D01*
X122631883Y-79028943D01*
X122894673Y-79292192D01*
X123015986Y-79342566D01*
X123291754Y-79618334D01*
X123006252Y-79499783D01*
X122664123Y-79499484D01*
X122421745Y-79599633D01*
X122298757Y-79599633D01*
X122007918Y-79657485D01*
X121761356Y-79822232D01*
X121292128Y-80291460D01*
X121198609Y-80431421D01*
X121178936Y-80431421D01*
X121179220Y-80106780D01*
X121048568Y-79790580D01*
X120806858Y-79548447D01*
X120490886Y-79417244D01*
X120148757Y-79416945D01*
X119832557Y-79547597D01*
X119590424Y-79789307D01*
X119489852Y-80031511D01*
X118612599Y-80908764D01*
X118495882Y-81083444D01*
X118340808Y-81019052D01*
X117998679Y-81018753D01*
X117682479Y-81149405D01*
X117440346Y-81391115D01*
X117309143Y-81707087D01*
X117308844Y-82049216D01*
X117439496Y-82365416D01*
X117615000Y-82541227D01*
X117615000Y-82612719D01*
X117515150Y-82853185D01*
X117514851Y-83195314D01*
X117645503Y-83511514D01*
X117887213Y-83753647D01*
X117911476Y-83763722D01*
X117610198Y-84065000D01*
X115210900Y-84065000D01*
X115224009Y-84033431D01*
X115224308Y-83691302D01*
X115093656Y-83375102D01*
X114851946Y-83132969D01*
X114535974Y-83001766D01*
X114193845Y-83001467D01*
X113877645Y-83132119D01*
X113635512Y-83373829D01*
X113540000Y-83603848D01*
X113540000Y-83359802D01*
X117120874Y-79778928D01*
X117361514Y-79679497D01*
X117603647Y-79437787D01*
X117734850Y-79121815D01*
X117735149Y-78779686D01*
X117604497Y-78463486D01*
X117362787Y-78221353D01*
X117046815Y-78090150D01*
X116704686Y-78089851D01*
X116388486Y-78220503D01*
X116146353Y-78462213D01*
X116045781Y-78704417D01*
X112242599Y-82507599D01*
X112077852Y-82754161D01*
X112020000Y-83045000D01*
X112020000Y-86835034D01*
X111685911Y-86834743D01*
X111139914Y-87060344D01*
X110721812Y-87477717D01*
X110495258Y-88023319D01*
X110494743Y-88614089D01*
X110720344Y-89160086D01*
X111137717Y-89578188D01*
X111683319Y-89804742D01*
X112274089Y-89805257D01*
X112820086Y-89579656D01*
X113117729Y-89282531D01*
X114920000Y-91084802D01*
X114920000Y-94772560D01*
X114280000Y-94772560D01*
X114044683Y-94816838D01*
X113828559Y-94955910D01*
X113683569Y-95168110D01*
X113632560Y-95420000D01*
X113632560Y-95760000D01*
X113405231Y-95760000D01*
X113464742Y-95616681D01*
X113465257Y-95025911D01*
X113239656Y-94479914D01*
X112822283Y-94061812D01*
X112276681Y-93835258D01*
X111685911Y-93834743D01*
X111139914Y-94060344D01*
X110721812Y-94477717D01*
X110495258Y-95023319D01*
X110494743Y-95614089D01*
X110720344Y-96160086D01*
X111137717Y-96578188D01*
X111556308Y-96752003D01*
X110692599Y-97615712D01*
X110527852Y-97862274D01*
X110470000Y-98153113D01*
X110470000Y-98872560D01*
X109830000Y-98872560D01*
X109594683Y-98916838D01*
X109378559Y-99055910D01*
X109233569Y-99268110D01*
X109182560Y-99520000D01*
X109182560Y-101720000D01*
X109226838Y-101955317D01*
X109365910Y-102171441D01*
X109578110Y-102316431D01*
X109830000Y-102367440D01*
X112630000Y-102367440D01*
X112865317Y-102323162D01*
X113081441Y-102184090D01*
X113226431Y-101971890D01*
X113277440Y-101720000D01*
X113277440Y-99520000D01*
X113233162Y-99284683D01*
X113094090Y-99068559D01*
X112881890Y-98923569D01*
X112630000Y-98872560D01*
X111990000Y-98872560D01*
X111990000Y-98467915D01*
X113177915Y-97280000D01*
X113632560Y-97280000D01*
X113632560Y-97620000D01*
X113676838Y-97855317D01*
X113815910Y-98071441D01*
X114028110Y-98216431D01*
X114280000Y-98267440D01*
X117080000Y-98267440D01*
X117315317Y-98223162D01*
X117531441Y-98084090D01*
X117676431Y-97871890D01*
X117727440Y-97620000D01*
X117727440Y-95420000D01*
X117683162Y-95184683D01*
X117544090Y-94968559D01*
X117331890Y-94823569D01*
X117080000Y-94772560D01*
X116440000Y-94772560D01*
X116440000Y-90770000D01*
X116438528Y-90762599D01*
X116389490Y-90516070D01*
X118429208Y-92555787D01*
X118429210Y-92555790D01*
X118794208Y-92920787D01*
X118794210Y-92920790D01*
X119081325Y-93112633D01*
X119114284Y-93119189D01*
X119420000Y-93180001D01*
X119420005Y-93180000D01*
X122929995Y-93180000D01*
X122930000Y-93180001D01*
X123235716Y-93119189D01*
X123268675Y-93112633D01*
X123555790Y-92920790D01*
X123618833Y-92857747D01*
X123618833Y-99327926D01*
X123676685Y-99618765D01*
X123841432Y-99865327D01*
X124507019Y-100530914D01*
X124247808Y-100789673D01*
X124105162Y-101133201D01*
X124104838Y-101505167D01*
X124246883Y-101848943D01*
X124509673Y-102112192D01*
X124630986Y-102162566D01*
X125219228Y-102750807D01*
X125219228Y-105792167D01*
X125169390Y-105912190D01*
X125169066Y-106284156D01*
X125311111Y-106627932D01*
X125573901Y-106891181D01*
X125917429Y-107033827D01*
X126289395Y-107034151D01*
X126633171Y-106892106D01*
X126896420Y-106629316D01*
X127039066Y-106285788D01*
X127039390Y-105913822D01*
X126989228Y-105792420D01*
X126989228Y-102384233D01*
X126989229Y-102384228D01*
X126921861Y-102045554D01*
X126921861Y-102045553D01*
X126730018Y-101758438D01*
X126730015Y-101758436D01*
X126464019Y-101492440D01*
X126845000Y-101492440D01*
X127080317Y-101448162D01*
X127143478Y-101407519D01*
X127193110Y-101441431D01*
X127445000Y-101492440D01*
X127587638Y-101492440D01*
X127982589Y-101887391D01*
X128229151Y-102052138D01*
X128519990Y-102109990D01*
X129415644Y-102109990D01*
X129706483Y-102052138D01*
X129953045Y-101887391D01*
X130726453Y-101113983D01*
X131352369Y-101113983D01*
X132737892Y-102499506D01*
X132984454Y-102664253D01*
X133275293Y-102722105D01*
X136131551Y-102722105D01*
X136422390Y-102664253D01*
X136668952Y-102499506D01*
X137681017Y-101487441D01*
X137845764Y-101240879D01*
X137864601Y-101146180D01*
X138093330Y-101374909D01*
X138093332Y-101374912D01*
X138257511Y-101484612D01*
X138380448Y-101566756D01*
X138719122Y-101634123D01*
X138719127Y-101634122D01*
X141750873Y-101634122D01*
X141750878Y-101634123D01*
X142057343Y-101573162D01*
X142089553Y-101566755D01*
X142376668Y-101374912D01*
X143996579Y-99755000D01*
X144068569Y-99755000D01*
X144130000Y-99767440D01*
X144730000Y-99767440D01*
X144965317Y-99723162D01*
X144976979Y-99715658D01*
X144978110Y-99716431D01*
X145230000Y-99767440D01*
X145383600Y-99767440D01*
X141776041Y-103374999D01*
X140415001Y-103374999D01*
X140124162Y-103432851D01*
X139877600Y-103597598D01*
X135373755Y-108101443D01*
X135255327Y-107982808D01*
X134911799Y-107840162D01*
X134539833Y-107839838D01*
X134383312Y-107904511D01*
X134344090Y-107843559D01*
X134131890Y-107698569D01*
X133880000Y-107647560D01*
X131130000Y-107647560D01*
X130894683Y-107691838D01*
X130678559Y-107830910D01*
X130533569Y-108043110D01*
X130482560Y-108295000D01*
X130482560Y-108690861D01*
X130158420Y-109015000D01*
X129101579Y-109015000D01*
X128777440Y-108690860D01*
X128777440Y-108295000D01*
X128733162Y-108059683D01*
X128594090Y-107843559D01*
X128381890Y-107698569D01*
X128130000Y-107647560D01*
X125380000Y-107647560D01*
X125144683Y-107691838D01*
X124928559Y-107830910D01*
X124866021Y-107922438D01*
X124864887Y-107916412D01*
X124725815Y-107700288D01*
X124562777Y-107588889D01*
X124652110Y-107492547D01*
X124851700Y-107010673D01*
X124732561Y-106754729D01*
X123372725Y-106754729D01*
X123372725Y-106774729D01*
X123118725Y-106774729D01*
X123118725Y-106754729D01*
X121758889Y-106754729D01*
X121639750Y-107010673D01*
X121839340Y-107492547D01*
X121929822Y-107590127D01*
X121778284Y-107687639D01*
X121633294Y-107899839D01*
X121582285Y-108151729D01*
X121582285Y-109531892D01*
X119649210Y-111464966D01*
X119527500Y-111647119D01*
X119527500Y-110294940D01*
X119483222Y-110059623D01*
X119344150Y-109843499D01*
X119131950Y-109698509D01*
X118880060Y-109647500D01*
X115379940Y-109647500D01*
X115144623Y-109691778D01*
X114928499Y-109830850D01*
X114783509Y-110043050D01*
X114732500Y-110294940D01*
X114732500Y-112978985D01*
X114645150Y-112843239D01*
X114432950Y-112698249D01*
X114181060Y-112647240D01*
X110680940Y-112647240D01*
X110445623Y-112691518D01*
X110229499Y-112830590D01*
X110084509Y-113042790D01*
X110033500Y-113294680D01*
X110033500Y-116794800D01*
X110077778Y-117030117D01*
X110216850Y-117246241D01*
X110429050Y-117391231D01*
X110680940Y-117442240D01*
X114181060Y-117442240D01*
X114416377Y-117397962D01*
X114632501Y-117258890D01*
X114732500Y-117112537D01*
X114732500Y-119794540D01*
X114776778Y-120029857D01*
X114915850Y-120245981D01*
X115128050Y-120390971D01*
X115379940Y-120441980D01*
X118880060Y-120441980D01*
X119115377Y-120397702D01*
X119331501Y-120258630D01*
X119476491Y-120046430D01*
X119527500Y-119794540D01*
X119527500Y-116294420D01*
X119483222Y-116059103D01*
X119344150Y-115842979D01*
X119131950Y-115697989D01*
X118880060Y-115646980D01*
X115379940Y-115646980D01*
X115144623Y-115691258D01*
X114928499Y-115830330D01*
X114828500Y-115976683D01*
X114828500Y-114110755D01*
X114915850Y-114246501D01*
X115128050Y-114391491D01*
X115379940Y-114442500D01*
X118880060Y-114442500D01*
X119115377Y-114398222D01*
X119331501Y-114259150D01*
X119393625Y-114168229D01*
X119427316Y-114337599D01*
X119457367Y-114488675D01*
X119600697Y-114703185D01*
X119649210Y-114775790D01*
X120300575Y-115427155D01*
X120157808Y-115569673D01*
X120015162Y-115913201D01*
X120014838Y-116285167D01*
X120065000Y-116406569D01*
X120065000Y-117024995D01*
X120064999Y-117025000D01*
X120101130Y-117206637D01*
X120132367Y-117363675D01*
X120318784Y-117642670D01*
X120324210Y-117650790D01*
X121049208Y-118375787D01*
X121049210Y-118375790D01*
X121336325Y-118567633D01*
X121392516Y-118578810D01*
X121675000Y-118635001D01*
X121675005Y-118635000D01*
X125641984Y-118635000D01*
X125587457Y-118766316D01*
X125586994Y-119296815D01*
X125789579Y-119787109D01*
X126164372Y-120162556D01*
X126502171Y-120302823D01*
X126166345Y-120441583D01*
X125790898Y-120816376D01*
X125587457Y-121306316D01*
X125586994Y-121836815D01*
X125789579Y-122327109D01*
X126164372Y-122702556D01*
X126654312Y-122905997D01*
X127184811Y-122906460D01*
X127675105Y-122703875D01*
X128050552Y-122329082D01*
X128253993Y-121839142D01*
X128254456Y-121308643D01*
X128051871Y-120818349D01*
X127677078Y-120442902D01*
X127339279Y-120302635D01*
X127675105Y-120163875D01*
X128050552Y-119789082D01*
X128253993Y-119299142D01*
X128254456Y-118768643D01*
X128199236Y-118635000D01*
X131166882Y-118635000D01*
X131671264Y-119139381D01*
X131671266Y-119139384D01*
X131803854Y-119227976D01*
X131301828Y-119227538D01*
X130321239Y-119632709D01*
X129570345Y-120382293D01*
X129163464Y-121362173D01*
X129162538Y-122423172D01*
X129567709Y-123403761D01*
X130317293Y-124154655D01*
X130943070Y-124414500D01*
X112253574Y-124414500D01*
X111022812Y-124213207D01*
X110026466Y-123595720D01*
X109342263Y-122643952D01*
X109060500Y-121443728D01*
X109060500Y-107020000D01*
X115982560Y-107020000D01*
X115982560Y-108720000D01*
X116026838Y-108955317D01*
X116165910Y-109171441D01*
X116378110Y-109316431D01*
X116630000Y-109367440D01*
X117830000Y-109367440D01*
X118065317Y-109323162D01*
X118281441Y-109184090D01*
X118380901Y-109038525D01*
X118757386Y-109290084D01*
X119230000Y-109384093D01*
X119702614Y-109290084D01*
X120103277Y-109022370D01*
X120370991Y-108621707D01*
X120465000Y-108149093D01*
X120465000Y-107590907D01*
X120370991Y-107118293D01*
X120103277Y-106717630D01*
X119702614Y-106449916D01*
X119230000Y-106355907D01*
X118757386Y-106449916D01*
X118380004Y-106702074D01*
X118294090Y-106568559D01*
X118081890Y-106423569D01*
X117830000Y-106372560D01*
X116630000Y-106372560D01*
X116394683Y-106416838D01*
X116178559Y-106555910D01*
X116033569Y-106768110D01*
X115982560Y-107020000D01*
X109060500Y-107020000D01*
X109060500Y-106244785D01*
X121639750Y-106244785D01*
X121758889Y-106500729D01*
X123118725Y-106500729D01*
X123118725Y-105140362D01*
X123372725Y-105140362D01*
X123372725Y-106500729D01*
X124732561Y-106500729D01*
X124851700Y-106244785D01*
X124652110Y-105762911D01*
X124214104Y-105290541D01*
X123628671Y-105021746D01*
X123372725Y-105140362D01*
X123118725Y-105140362D01*
X122862779Y-105021746D01*
X122277346Y-105290541D01*
X121839340Y-105762911D01*
X121639750Y-106244785D01*
X109060500Y-106244785D01*
X109060500Y-80721819D01*
X120660083Y-71055500D01*
X154723650Y-71055500D01*
X153871239Y-71407709D01*
X153871239Y-71407709D01*
G37*
X153871239Y-71407709D02*
X153120345Y-72157293D01*
X152713464Y-73137173D01*
X152712538Y-74198172D01*
X153117709Y-75178761D01*
X153867293Y-75929655D01*
X154847173Y-76336536D01*
X155908172Y-76337462D01*
X156888761Y-75932291D01*
X157639655Y-75182707D01*
X158046536Y-74202827D01*
X158047462Y-73141828D01*
X157642291Y-72161239D01*
X156892707Y-71410345D01*
X156038144Y-71055500D01*
X165699917Y-71055500D01*
X177294500Y-80717652D01*
X177294500Y-121382135D01*
X177036114Y-122586226D01*
X176370310Y-123550954D01*
X175386000Y-124187454D01*
X174173298Y-124409777D01*
X174171987Y-124409745D01*
X174324794Y-124041745D01*
X174325206Y-123570323D01*
X174145180Y-123134628D01*
X173812125Y-122800991D01*
X173376745Y-122620206D01*
X172905323Y-122619794D01*
X172469628Y-122799820D01*
X172349238Y-122920000D01*
X171390926Y-122920000D01*
X171272125Y-122800991D01*
X170836745Y-122620206D01*
X170365323Y-122619794D01*
X169929628Y-122799820D01*
X169809238Y-122920000D01*
X168850926Y-122920000D01*
X168732125Y-122800991D01*
X168296745Y-122620206D01*
X167825323Y-122619794D01*
X167389628Y-122799820D01*
X167269238Y-122920000D01*
X166310926Y-122920000D01*
X166192125Y-122800991D01*
X165756745Y-122620206D01*
X165285323Y-122619794D01*
X164849628Y-122799820D01*
X164729238Y-122920000D01*
X163415970Y-122920000D01*
X163322125Y-122825991D01*
X162886745Y-122645206D01*
X162415323Y-122644794D01*
X161979628Y-122824820D01*
X161859238Y-122945000D01*
X160900926Y-122945000D01*
X160782125Y-122825991D01*
X160346745Y-122645206D01*
X159875323Y-122644794D01*
X159439628Y-122824820D01*
X159319238Y-122945000D01*
X158360926Y-122945000D01*
X158242125Y-122825991D01*
X157806745Y-122645206D01*
X157335323Y-122644794D01*
X156899628Y-122824820D01*
X156779238Y-122945000D01*
X155820926Y-122945000D01*
X155702125Y-122825991D01*
X155266745Y-122645206D01*
X154795323Y-122644794D01*
X154359628Y-122824820D01*
X154239238Y-122945000D01*
X152490000Y-122945000D01*
X152490000Y-121524677D01*
X153844794Y-121524677D01*
X154024820Y-121960372D01*
X154357875Y-122294009D01*
X154793255Y-122474794D01*
X155264677Y-122475206D01*
X155700372Y-122295180D01*
X156034009Y-121962125D01*
X156214794Y-121526745D01*
X156214795Y-121524677D01*
X156384794Y-121524677D01*
X156564820Y-121960372D01*
X156897875Y-122294009D01*
X157333255Y-122474794D01*
X157804677Y-122475206D01*
X158240372Y-122295180D01*
X158574009Y-121962125D01*
X158754794Y-121526745D01*
X158754795Y-121524677D01*
X158924794Y-121524677D01*
X159104820Y-121960372D01*
X159437875Y-122294009D01*
X159873255Y-122474794D01*
X160344677Y-122475206D01*
X160780372Y-122295180D01*
X161114009Y-121962125D01*
X161294794Y-121526745D01*
X161294795Y-121524677D01*
X161464794Y-121524677D01*
X161644820Y-121960372D01*
X161977875Y-122294009D01*
X162413255Y-122474794D01*
X162884677Y-122475206D01*
X163320372Y-122295180D01*
X163654009Y-121962125D01*
X163834794Y-121526745D01*
X163835206Y-121055323D01*
X163655180Y-120619628D01*
X163322125Y-120285991D01*
X162886745Y-120105206D01*
X162415323Y-120104794D01*
X161979628Y-120284820D01*
X161645991Y-120617875D01*
X161465206Y-121053255D01*
X161464794Y-121524677D01*
X161294795Y-121524677D01*
X161295206Y-121055323D01*
X161115180Y-120619628D01*
X160782125Y-120285991D01*
X160346745Y-120105206D01*
X159875323Y-120104794D01*
X159439628Y-120284820D01*
X159105991Y-120617875D01*
X158925206Y-121053255D01*
X158924794Y-121524677D01*
X158754795Y-121524677D01*
X158755206Y-121055323D01*
X158575180Y-120619628D01*
X158242125Y-120285991D01*
X157806745Y-120105206D01*
X157335323Y-120104794D01*
X156899628Y-120284820D01*
X156565991Y-120617875D01*
X156385206Y-121053255D01*
X156384794Y-121524677D01*
X156214795Y-121524677D01*
X156215206Y-121055323D01*
X156035180Y-120619628D01*
X155702125Y-120285991D01*
X155266745Y-120105206D01*
X154795323Y-120104794D01*
X154359628Y-120284820D01*
X154025991Y-120617875D01*
X153845206Y-121053255D01*
X153844794Y-121524677D01*
X152490000Y-121524677D01*
X152490000Y-121464812D01*
X154107564Y-119847247D01*
X154107567Y-119847245D01*
X154299410Y-119560130D01*
X154366777Y-119221455D01*
X154366777Y-116613204D01*
X154516568Y-116613335D01*
X154832768Y-116482683D01*
X155074901Y-116240973D01*
X155206104Y-115925001D01*
X155206403Y-115582872D01*
X155106254Y-115340494D01*
X155106254Y-114726445D01*
X155225555Y-114845955D01*
X155541527Y-114977158D01*
X155742511Y-114977334D01*
X155886051Y-115120874D01*
X155985482Y-115361514D01*
X156028850Y-115404958D01*
X155975028Y-115534575D01*
X155974745Y-115858771D01*
X155894666Y-115858701D01*
X155578466Y-115989353D01*
X155336333Y-116231063D01*
X155205130Y-116547035D01*
X155204831Y-116889164D01*
X155335483Y-117205364D01*
X155577193Y-117447497D01*
X155893165Y-117578700D01*
X156235294Y-117578999D01*
X156477672Y-117478850D01*
X156543695Y-117478850D01*
X156834534Y-117420998D01*
X157081096Y-117256251D01*
X158237421Y-116099927D01*
X158362186Y-115913201D01*
X158402168Y-115853364D01*
X158460020Y-115562525D01*
X158460020Y-115080750D01*
X165070000Y-115080750D01*
X165070000Y-115221310D01*
X165166673Y-115454699D01*
X165345302Y-115633327D01*
X165578691Y-115730000D01*
X165646250Y-115730000D01*
X165805000Y-115571250D01*
X165805000Y-114922000D01*
X165228750Y-114922000D01*
X165070000Y-115080750D01*
X158460020Y-115080750D01*
X158460020Y-113505000D01*
X158667721Y-113505000D01*
X158790910Y-113696441D01*
X159003110Y-113841431D01*
X159255000Y-113892440D01*
X162005000Y-113892440D01*
X162240317Y-113848162D01*
X162456441Y-113709090D01*
X162595890Y-113505000D01*
X164417721Y-113505000D01*
X164540910Y-113696441D01*
X164753110Y-113841431D01*
X165005000Y-113892440D01*
X165500374Y-113892440D01*
X165345302Y-113956673D01*
X165166673Y-114135301D01*
X165070000Y-114368690D01*
X165070000Y-114509250D01*
X165228750Y-114668000D01*
X165805000Y-114668000D01*
X165805000Y-114648000D01*
X165957560Y-114648000D01*
X165957560Y-115095000D01*
X166001838Y-115330317D01*
X166005000Y-115335231D01*
X166005000Y-115571250D01*
X166163750Y-115730000D01*
X166231309Y-115730000D01*
X166342283Y-115684033D01*
X166353110Y-115691431D01*
X166605000Y-115742440D01*
X167005000Y-115742440D01*
X167240317Y-115698162D01*
X167456441Y-115559090D01*
X167601431Y-115346890D01*
X167652440Y-115095000D01*
X167652440Y-114495000D01*
X167608162Y-114259683D01*
X167565000Y-114192607D01*
X167565000Y-113892440D01*
X167755000Y-113892440D01*
X167804181Y-113883186D01*
X167803961Y-114134424D01*
X167934613Y-114450624D01*
X168176323Y-114692757D01*
X168492295Y-114823960D01*
X168834424Y-114824259D01*
X169150624Y-114693607D01*
X169392757Y-114451897D01*
X169523960Y-114135925D01*
X169524259Y-113793796D01*
X169460000Y-113638278D01*
X169460000Y-108481210D01*
X169402148Y-108190371D01*
X169387274Y-108168110D01*
X169298332Y-108034999D01*
X169470314Y-108035149D01*
X169786514Y-107904497D01*
X170028647Y-107662787D01*
X170129219Y-107420583D01*
X170237401Y-107312401D01*
X170402148Y-107065840D01*
X170419228Y-106979971D01*
X170460000Y-106775000D01*
X170460000Y-100890621D01*
X170402148Y-100599782D01*
X170237401Y-100353220D01*
X169312902Y-99428721D01*
X169173811Y-99335784D01*
X169261701Y-99318492D01*
X169412972Y-98871999D01*
X169395448Y-98607028D01*
X169569941Y-98781520D01*
X169569794Y-98949677D01*
X169749820Y-99385372D01*
X170082875Y-99719009D01*
X170518255Y-99899794D01*
X170989677Y-99900206D01*
X171045001Y-99877347D01*
X171045001Y-114665197D01*
X165630103Y-120080095D01*
X165285323Y-120079794D01*
X164849628Y-120259820D01*
X164515991Y-120592875D01*
X164335206Y-121028255D01*
X164334794Y-121499677D01*
X164514820Y-121935372D01*
X164847875Y-122269009D01*
X165283255Y-122449794D01*
X165754677Y-122450206D01*
X166190372Y-122270180D01*
X166524009Y-121937125D01*
X166704794Y-121501745D01*
X166705097Y-121154705D01*
X166906208Y-120953594D01*
X166875206Y-121028255D01*
X166874794Y-121499677D01*
X167054820Y-121935372D01*
X167387875Y-122269009D01*
X167823255Y-122449794D01*
X168294677Y-122450206D01*
X168730372Y-122270180D01*
X169064009Y-121937125D01*
X169244794Y-121501745D01*
X169245097Y-121154705D01*
X169446208Y-120953594D01*
X169415206Y-121028255D01*
X169414794Y-121499677D01*
X169594820Y-121935372D01*
X169927875Y-122269009D01*
X170363255Y-122449794D01*
X170834677Y-122450206D01*
X171270372Y-122270180D01*
X171604009Y-121937125D01*
X171784794Y-121501745D01*
X171785097Y-121154705D01*
X171986208Y-120953594D01*
X171955206Y-121028255D01*
X171954794Y-121499677D01*
X172134820Y-121935372D01*
X172467875Y-122269009D01*
X172903255Y-122449794D01*
X173374677Y-122450206D01*
X173810372Y-122270180D01*
X174144009Y-121937125D01*
X174324794Y-121501745D01*
X174325140Y-121106124D01*
X174392147Y-121005840D01*
X174449999Y-120715001D01*
X174449999Y-90628187D01*
X174392147Y-90337348D01*
X174227400Y-90090786D01*
X174216066Y-90079452D01*
X174265188Y-90079495D01*
X174608964Y-89937450D01*
X174872213Y-89674660D01*
X175014859Y-89331132D01*
X175015183Y-88959166D01*
X174965021Y-88837764D01*
X174965021Y-82610026D01*
X174965022Y-82610021D01*
X174897654Y-82271346D01*
X174885569Y-82253260D01*
X174705811Y-81984231D01*
X174705808Y-81984229D01*
X170090790Y-77369210D01*
X170069299Y-77354850D01*
X169803675Y-77177367D01*
X169747484Y-77166190D01*
X169465000Y-77109999D01*
X169464995Y-77110000D01*
X167183901Y-77110000D01*
X167199107Y-77034912D01*
X167470314Y-77035149D01*
X167786514Y-76904497D01*
X168028647Y-76662787D01*
X168159850Y-76346815D01*
X168160149Y-76004686D01*
X168029497Y-75688486D01*
X167787787Y-75446353D01*
X167471815Y-75315150D01*
X167129686Y-75314851D01*
X166887308Y-75415000D01*
X166500000Y-75415000D01*
X166336311Y-75447560D01*
X165780000Y-75447560D01*
X165544683Y-75491838D01*
X165328559Y-75630910D01*
X165183569Y-75843110D01*
X165144328Y-76036888D01*
X165108162Y-75844683D01*
X164969090Y-75628559D01*
X164756890Y-75483569D01*
X164505000Y-75432560D01*
X163705000Y-75432560D01*
X163469683Y-75476838D01*
X163286054Y-75595000D01*
X162725005Y-75595000D01*
X162725000Y-75594999D01*
X162386326Y-75662366D01*
X162341317Y-75692440D01*
X162099210Y-75854210D01*
X162099208Y-75854213D01*
X161249210Y-76704210D01*
X161249208Y-76704213D01*
X160513420Y-77440000D01*
X159956822Y-77440000D01*
X159836799Y-77390162D01*
X159464833Y-77389838D01*
X159121057Y-77531883D01*
X158857808Y-77794673D01*
X158729199Y-78104397D01*
X158595518Y-77970716D01*
X158348956Y-77805969D01*
X158058117Y-77748117D01*
X151137952Y-77748117D01*
X150897486Y-77648267D01*
X150555357Y-77647968D01*
X150239157Y-77778620D01*
X149997024Y-78020330D01*
X149895428Y-78265000D01*
X144113585Y-78265000D01*
X143822746Y-78322852D01*
X143576184Y-78487599D01*
X139619922Y-82443861D01*
X138403503Y-82443861D01*
X138492192Y-82355327D01*
X138634838Y-82011799D01*
X138635162Y-81639833D01*
X138493117Y-81296057D01*
X138230327Y-81032808D01*
X137886799Y-80890162D01*
X137514833Y-80889838D01*
X137171057Y-81031883D01*
X137030180Y-81172514D01*
X135479066Y-81172514D01*
X137798834Y-78852745D01*
X137918943Y-78803117D01*
X138182192Y-78540327D01*
X138324838Y-78196799D01*
X138325162Y-77824833D01*
X138183117Y-77481057D01*
X137920327Y-77217808D01*
X137576799Y-77075162D01*
X137204833Y-77074838D01*
X137112742Y-77112889D01*
X137122440Y-77065000D01*
X137122440Y-74065000D01*
X142627560Y-74065000D01*
X142627560Y-77065000D01*
X142671838Y-77300317D01*
X142810910Y-77516441D01*
X143023110Y-77661431D01*
X143275000Y-77712440D01*
X147275000Y-77712440D01*
X147510317Y-77668162D01*
X147726441Y-77529090D01*
X147871431Y-77316890D01*
X147922440Y-77065000D01*
X147922440Y-74065000D01*
X147878162Y-73829683D01*
X147739090Y-73613559D01*
X147526890Y-73468569D01*
X147275000Y-73417560D01*
X147160116Y-73417560D01*
X147160149Y-73379686D01*
X147029497Y-73063486D01*
X146787787Y-72821353D01*
X146471815Y-72690150D01*
X146129686Y-72689851D01*
X145813486Y-72820503D01*
X145571353Y-73062213D01*
X145440150Y-73378185D01*
X145440116Y-73417560D01*
X143275000Y-73417560D01*
X143039683Y-73461838D01*
X142823559Y-73600910D01*
X142678569Y-73813110D01*
X142627560Y-74065000D01*
X137122440Y-74065000D01*
X137078162Y-73829683D01*
X136939090Y-73613559D01*
X136726890Y-73468569D01*
X136475000Y-73417560D01*
X132475000Y-73417560D01*
X132239683Y-73461838D01*
X132023559Y-73600910D01*
X131878569Y-73813110D01*
X131827560Y-74065000D01*
X131827560Y-76148454D01*
X131675000Y-76117560D01*
X131584985Y-76117560D01*
X131585149Y-75929686D01*
X131454497Y-75613486D01*
X131212787Y-75371353D01*
X130896815Y-75240150D01*
X130554686Y-75239851D01*
X130312308Y-75340000D01*
X129949802Y-75340000D01*
X129134802Y-74525000D01*
X129717024Y-74525000D01*
X129721788Y-74550317D01*
X129860860Y-74766441D01*
X130073060Y-74911431D01*
X130324950Y-74962440D01*
X131125050Y-74962440D01*
X131360367Y-74918162D01*
X131576491Y-74779090D01*
X131721481Y-74566890D01*
X131772490Y-74315000D01*
X131772490Y-73215000D01*
X131728212Y-72979683D01*
X131589140Y-72763559D01*
X131376940Y-72618569D01*
X131125050Y-72567560D01*
X130324950Y-72567560D01*
X130089633Y-72611838D01*
X129873509Y-72750910D01*
X129728519Y-72963110D01*
X129720036Y-73005000D01*
X129419166Y-73005000D01*
X129387598Y-72928601D01*
X129145888Y-72686468D01*
X128829916Y-72555265D01*
X128487787Y-72554966D01*
X128171587Y-72685618D01*
X128097358Y-72759718D01*
X128074090Y-72723559D01*
X127861890Y-72578569D01*
X127610000Y-72527560D01*
X126798825Y-72527560D01*
X126610000Y-72490000D01*
X125612281Y-72490000D01*
X125371815Y-72390150D01*
X125029686Y-72389851D01*
X124713486Y-72520503D01*
X124689716Y-72544232D01*
X124559427Y-72413716D01*
X124261826Y-72290141D01*
X123939588Y-72289860D01*
X123641771Y-72412915D01*
X123413716Y-72640573D01*
X123392346Y-72692037D01*
X123086799Y-72565162D01*
X122714833Y-72564838D01*
X122653936Y-72590000D01*
X122478620Y-72590000D01*
X122461890Y-72578569D01*
X122210000Y-72527560D01*
X120660000Y-72527560D01*
X120424683Y-72571838D01*
X120208559Y-72710910D01*
X120063569Y-72923110D01*
X120012560Y-73175000D01*
X120012560Y-73775000D01*
X120056838Y-74010317D01*
X120120678Y-74109528D01*
X120063569Y-74193110D01*
X120012560Y-74445000D01*
X120012560Y-75045000D01*
X120056838Y-75280317D01*
X120120678Y-75379528D01*
X120063569Y-75463110D01*
X120012560Y-75715000D01*
X120012560Y-76315000D01*
X120040215Y-76461974D01*
X119922408Y-76413056D01*
X119580279Y-76412757D01*
X119264079Y-76543409D01*
X119021946Y-76785119D01*
X118890743Y-77101091D01*
X118890444Y-77443220D01*
X119021096Y-77759420D01*
X119262806Y-78001553D01*
X119578778Y-78132756D01*
X119920907Y-78133055D01*
X120134015Y-78045000D01*
X120208437Y-78045000D01*
X120408110Y-78181431D01*
X120660000Y-78232440D01*
X122210000Y-78232440D01*
X122445317Y-78188162D01*
X122577366Y-78103191D01*
X122490162Y-78313201D01*
X122489838Y-78685167D01*
X122631883Y-79028943D01*
X122894673Y-79292192D01*
X123015986Y-79342566D01*
X123291754Y-79618334D01*
X123006252Y-79499783D01*
X122664123Y-79499484D01*
X122421745Y-79599633D01*
X122298757Y-79599633D01*
X122007918Y-79657485D01*
X121761356Y-79822232D01*
X121292128Y-80291460D01*
X121198609Y-80431421D01*
X121178936Y-80431421D01*
X121179220Y-80106780D01*
X121048568Y-79790580D01*
X120806858Y-79548447D01*
X120490886Y-79417244D01*
X120148757Y-79416945D01*
X119832557Y-79547597D01*
X119590424Y-79789307D01*
X119489852Y-80031511D01*
X118612599Y-80908764D01*
X118495882Y-81083444D01*
X118340808Y-81019052D01*
X117998679Y-81018753D01*
X117682479Y-81149405D01*
X117440346Y-81391115D01*
X117309143Y-81707087D01*
X117308844Y-82049216D01*
X117439496Y-82365416D01*
X117615000Y-82541227D01*
X117615000Y-82612719D01*
X117515150Y-82853185D01*
X117514851Y-83195314D01*
X117645503Y-83511514D01*
X117887213Y-83753647D01*
X117911476Y-83763722D01*
X117610198Y-84065000D01*
X115210900Y-84065000D01*
X115224009Y-84033431D01*
X115224308Y-83691302D01*
X115093656Y-83375102D01*
X114851946Y-83132969D01*
X114535974Y-83001766D01*
X114193845Y-83001467D01*
X113877645Y-83132119D01*
X113635512Y-83373829D01*
X113540000Y-83603848D01*
X113540000Y-83359802D01*
X117120874Y-79778928D01*
X117361514Y-79679497D01*
X117603647Y-79437787D01*
X117734850Y-79121815D01*
X117735149Y-78779686D01*
X117604497Y-78463486D01*
X117362787Y-78221353D01*
X117046815Y-78090150D01*
X116704686Y-78089851D01*
X116388486Y-78220503D01*
X116146353Y-78462213D01*
X116045781Y-78704417D01*
X112242599Y-82507599D01*
X112077852Y-82754161D01*
X112020000Y-83045000D01*
X112020000Y-86835034D01*
X111685911Y-86834743D01*
X111139914Y-87060344D01*
X110721812Y-87477717D01*
X110495258Y-88023319D01*
X110494743Y-88614089D01*
X110720344Y-89160086D01*
X111137717Y-89578188D01*
X111683319Y-89804742D01*
X112274089Y-89805257D01*
X112820086Y-89579656D01*
X113117729Y-89282531D01*
X114920000Y-91084802D01*
X114920000Y-94772560D01*
X114280000Y-94772560D01*
X114044683Y-94816838D01*
X113828559Y-94955910D01*
X113683569Y-95168110D01*
X113632560Y-95420000D01*
X113632560Y-95760000D01*
X113405231Y-95760000D01*
X113464742Y-95616681D01*
X113465257Y-95025911D01*
X113239656Y-94479914D01*
X112822283Y-94061812D01*
X112276681Y-93835258D01*
X111685911Y-93834743D01*
X111139914Y-94060344D01*
X110721812Y-94477717D01*
X110495258Y-95023319D01*
X110494743Y-95614089D01*
X110720344Y-96160086D01*
X111137717Y-96578188D01*
X111556308Y-96752003D01*
X110692599Y-97615712D01*
X110527852Y-97862274D01*
X110470000Y-98153113D01*
X110470000Y-98872560D01*
X109830000Y-98872560D01*
X109594683Y-98916838D01*
X109378559Y-99055910D01*
X109233569Y-99268110D01*
X109182560Y-99520000D01*
X109182560Y-101720000D01*
X109226838Y-101955317D01*
X109365910Y-102171441D01*
X109578110Y-102316431D01*
X109830000Y-102367440D01*
X112630000Y-102367440D01*
X112865317Y-102323162D01*
X113081441Y-102184090D01*
X113226431Y-101971890D01*
X113277440Y-101720000D01*
X113277440Y-99520000D01*
X113233162Y-99284683D01*
X113094090Y-99068559D01*
X112881890Y-98923569D01*
X112630000Y-98872560D01*
X111990000Y-98872560D01*
X111990000Y-98467915D01*
X113177915Y-97280000D01*
X113632560Y-97280000D01*
X113632560Y-97620000D01*
X113676838Y-97855317D01*
X113815910Y-98071441D01*
X114028110Y-98216431D01*
X114280000Y-98267440D01*
X117080000Y-98267440D01*
X117315317Y-98223162D01*
X117531441Y-98084090D01*
X117676431Y-97871890D01*
X117727440Y-97620000D01*
X117727440Y-95420000D01*
X117683162Y-95184683D01*
X117544090Y-94968559D01*
X117331890Y-94823569D01*
X117080000Y-94772560D01*
X116440000Y-94772560D01*
X116440000Y-90770000D01*
X116438528Y-90762599D01*
X116389490Y-90516070D01*
X118429208Y-92555787D01*
X118429210Y-92555790D01*
X118794208Y-92920787D01*
X118794210Y-92920790D01*
X119081325Y-93112633D01*
X119114284Y-93119189D01*
X119420000Y-93180001D01*
X119420005Y-93180000D01*
X122929995Y-93180000D01*
X122930000Y-93180001D01*
X123235716Y-93119189D01*
X123268675Y-93112633D01*
X123555790Y-92920790D01*
X123618833Y-92857747D01*
X123618833Y-99327926D01*
X123676685Y-99618765D01*
X123841432Y-99865327D01*
X124507019Y-100530914D01*
X124247808Y-100789673D01*
X124105162Y-101133201D01*
X124104838Y-101505167D01*
X124246883Y-101848943D01*
X124509673Y-102112192D01*
X124630986Y-102162566D01*
X125219228Y-102750807D01*
X125219228Y-105792167D01*
X125169390Y-105912190D01*
X125169066Y-106284156D01*
X125311111Y-106627932D01*
X125573901Y-106891181D01*
X125917429Y-107033827D01*
X126289395Y-107034151D01*
X126633171Y-106892106D01*
X126896420Y-106629316D01*
X127039066Y-106285788D01*
X127039390Y-105913822D01*
X126989228Y-105792420D01*
X126989228Y-102384233D01*
X126989229Y-102384228D01*
X126921861Y-102045554D01*
X126921861Y-102045553D01*
X126730018Y-101758438D01*
X126730015Y-101758436D01*
X126464019Y-101492440D01*
X126845000Y-101492440D01*
X127080317Y-101448162D01*
X127143478Y-101407519D01*
X127193110Y-101441431D01*
X127445000Y-101492440D01*
X127587638Y-101492440D01*
X127982589Y-101887391D01*
X128229151Y-102052138D01*
X128519990Y-102109990D01*
X129415644Y-102109990D01*
X129706483Y-102052138D01*
X129953045Y-101887391D01*
X130726453Y-101113983D01*
X131352369Y-101113983D01*
X132737892Y-102499506D01*
X132984454Y-102664253D01*
X133275293Y-102722105D01*
X136131551Y-102722105D01*
X136422390Y-102664253D01*
X136668952Y-102499506D01*
X137681017Y-101487441D01*
X137845764Y-101240879D01*
X137864601Y-101146180D01*
X138093330Y-101374909D01*
X138093332Y-101374912D01*
X138257511Y-101484612D01*
X138380448Y-101566756D01*
X138719122Y-101634123D01*
X138719127Y-101634122D01*
X141750873Y-101634122D01*
X141750878Y-101634123D01*
X142057343Y-101573162D01*
X142089553Y-101566755D01*
X142376668Y-101374912D01*
X143996579Y-99755000D01*
X144068569Y-99755000D01*
X144130000Y-99767440D01*
X144730000Y-99767440D01*
X144965317Y-99723162D01*
X144976979Y-99715658D01*
X144978110Y-99716431D01*
X145230000Y-99767440D01*
X145383600Y-99767440D01*
X141776041Y-103374999D01*
X140415001Y-103374999D01*
X140124162Y-103432851D01*
X139877600Y-103597598D01*
X135373755Y-108101443D01*
X135255327Y-107982808D01*
X134911799Y-107840162D01*
X134539833Y-107839838D01*
X134383312Y-107904511D01*
X134344090Y-107843559D01*
X134131890Y-107698569D01*
X133880000Y-107647560D01*
X131130000Y-107647560D01*
X130894683Y-107691838D01*
X130678559Y-107830910D01*
X130533569Y-108043110D01*
X130482560Y-108295000D01*
X130482560Y-108690861D01*
X130158420Y-109015000D01*
X129101579Y-109015000D01*
X128777440Y-108690860D01*
X128777440Y-108295000D01*
X128733162Y-108059683D01*
X128594090Y-107843559D01*
X128381890Y-107698569D01*
X128130000Y-107647560D01*
X125380000Y-107647560D01*
X125144683Y-107691838D01*
X124928559Y-107830910D01*
X124866021Y-107922438D01*
X124864887Y-107916412D01*
X124725815Y-107700288D01*
X124562777Y-107588889D01*
X124652110Y-107492547D01*
X124851700Y-107010673D01*
X124732561Y-106754729D01*
X123372725Y-106754729D01*
X123372725Y-106774729D01*
X123118725Y-106774729D01*
X123118725Y-106754729D01*
X121758889Y-106754729D01*
X121639750Y-107010673D01*
X121839340Y-107492547D01*
X121929822Y-107590127D01*
X121778284Y-107687639D01*
X121633294Y-107899839D01*
X121582285Y-108151729D01*
X121582285Y-109531892D01*
X119649210Y-111464966D01*
X119527500Y-111647119D01*
X119527500Y-110294940D01*
X119483222Y-110059623D01*
X119344150Y-109843499D01*
X119131950Y-109698509D01*
X118880060Y-109647500D01*
X115379940Y-109647500D01*
X115144623Y-109691778D01*
X114928499Y-109830850D01*
X114783509Y-110043050D01*
X114732500Y-110294940D01*
X114732500Y-112978985D01*
X114645150Y-112843239D01*
X114432950Y-112698249D01*
X114181060Y-112647240D01*
X110680940Y-112647240D01*
X110445623Y-112691518D01*
X110229499Y-112830590D01*
X110084509Y-113042790D01*
X110033500Y-113294680D01*
X110033500Y-116794800D01*
X110077778Y-117030117D01*
X110216850Y-117246241D01*
X110429050Y-117391231D01*
X110680940Y-117442240D01*
X114181060Y-117442240D01*
X114416377Y-117397962D01*
X114632501Y-117258890D01*
X114732500Y-117112537D01*
X114732500Y-119794540D01*
X114776778Y-120029857D01*
X114915850Y-120245981D01*
X115128050Y-120390971D01*
X115379940Y-120441980D01*
X118880060Y-120441980D01*
X119115377Y-120397702D01*
X119331501Y-120258630D01*
X119476491Y-120046430D01*
X119527500Y-119794540D01*
X119527500Y-116294420D01*
X119483222Y-116059103D01*
X119344150Y-115842979D01*
X119131950Y-115697989D01*
X118880060Y-115646980D01*
X115379940Y-115646980D01*
X115144623Y-115691258D01*
X114928499Y-115830330D01*
X114828500Y-115976683D01*
X114828500Y-114110755D01*
X114915850Y-114246501D01*
X115128050Y-114391491D01*
X115379940Y-114442500D01*
X118880060Y-114442500D01*
X119115377Y-114398222D01*
X119331501Y-114259150D01*
X119393625Y-114168229D01*
X119427316Y-114337599D01*
X119457367Y-114488675D01*
X119600697Y-114703185D01*
X119649210Y-114775790D01*
X120300575Y-115427155D01*
X120157808Y-115569673D01*
X120015162Y-115913201D01*
X120014838Y-116285167D01*
X120065000Y-116406569D01*
X120065000Y-117024995D01*
X120064999Y-117025000D01*
X120101130Y-117206637D01*
X120132367Y-117363675D01*
X120318784Y-117642670D01*
X120324210Y-117650790D01*
X121049208Y-118375787D01*
X121049210Y-118375790D01*
X121336325Y-118567633D01*
X121392516Y-118578810D01*
X121675000Y-118635001D01*
X121675005Y-118635000D01*
X125641984Y-118635000D01*
X125587457Y-118766316D01*
X125586994Y-119296815D01*
X125789579Y-119787109D01*
X126164372Y-120162556D01*
X126502171Y-120302823D01*
X126166345Y-120441583D01*
X125790898Y-120816376D01*
X125587457Y-121306316D01*
X125586994Y-121836815D01*
X125789579Y-122327109D01*
X126164372Y-122702556D01*
X126654312Y-122905997D01*
X127184811Y-122906460D01*
X127675105Y-122703875D01*
X128050552Y-122329082D01*
X128253993Y-121839142D01*
X128254456Y-121308643D01*
X128051871Y-120818349D01*
X127677078Y-120442902D01*
X127339279Y-120302635D01*
X127675105Y-120163875D01*
X128050552Y-119789082D01*
X128253993Y-119299142D01*
X128254456Y-118768643D01*
X128199236Y-118635000D01*
X131166882Y-118635000D01*
X131671264Y-119139381D01*
X131671266Y-119139384D01*
X131803854Y-119227976D01*
X131301828Y-119227538D01*
X130321239Y-119632709D01*
X129570345Y-120382293D01*
X129163464Y-121362173D01*
X129162538Y-122423172D01*
X129567709Y-123403761D01*
X130317293Y-124154655D01*
X130943070Y-124414500D01*
X112253574Y-124414500D01*
X111022812Y-124213207D01*
X110026466Y-123595720D01*
X109342263Y-122643952D01*
X109060500Y-121443728D01*
X109060500Y-107020000D01*
X115982560Y-107020000D01*
X115982560Y-108720000D01*
X116026838Y-108955317D01*
X116165910Y-109171441D01*
X116378110Y-109316431D01*
X116630000Y-109367440D01*
X117830000Y-109367440D01*
X118065317Y-109323162D01*
X118281441Y-109184090D01*
X118380901Y-109038525D01*
X118757386Y-109290084D01*
X119230000Y-109384093D01*
X119702614Y-109290084D01*
X120103277Y-109022370D01*
X120370991Y-108621707D01*
X120465000Y-108149093D01*
X120465000Y-107590907D01*
X120370991Y-107118293D01*
X120103277Y-106717630D01*
X119702614Y-106449916D01*
X119230000Y-106355907D01*
X118757386Y-106449916D01*
X118380004Y-106702074D01*
X118294090Y-106568559D01*
X118081890Y-106423569D01*
X117830000Y-106372560D01*
X116630000Y-106372560D01*
X116394683Y-106416838D01*
X116178559Y-106555910D01*
X116033569Y-106768110D01*
X115982560Y-107020000D01*
X109060500Y-107020000D01*
X109060500Y-106244785D01*
X121639750Y-106244785D01*
X121758889Y-106500729D01*
X123118725Y-106500729D01*
X123118725Y-105140362D01*
X123372725Y-105140362D01*
X123372725Y-106500729D01*
X124732561Y-106500729D01*
X124851700Y-106244785D01*
X124652110Y-105762911D01*
X124214104Y-105290541D01*
X123628671Y-105021746D01*
X123372725Y-105140362D01*
X123118725Y-105140362D01*
X122862779Y-105021746D01*
X122277346Y-105290541D01*
X121839340Y-105762911D01*
X121639750Y-106244785D01*
X109060500Y-106244785D01*
X109060500Y-80721819D01*
X120660083Y-71055500D01*
X154723650Y-71055500D01*
X153871239Y-71407709D01*
G36*
X140199210Y-106099210D02*
X140007367Y-106386325D01*
X140007367Y-106386326D01*
X139939999Y-106725000D01*
X139940000Y-106725005D01*
X139940000Y-108765000D01*
X139831822Y-108765000D01*
X139711799Y-108715162D01*
X139339833Y-108714838D01*
X138996057Y-108856883D01*
X138732808Y-109119673D01*
X138590162Y-109463201D01*
X138589838Y-109835167D01*
X138731883Y-110178943D01*
X138994673Y-110442192D01*
X139338201Y-110584838D01*
X139710167Y-110585162D01*
X139831569Y-110535000D01*
X139940000Y-110535000D01*
X139940000Y-112039995D01*
X139939999Y-112040000D01*
X139990723Y-112295000D01*
X140007367Y-112378675D01*
X140142493Y-112580906D01*
X140199210Y-112665790D01*
X141004208Y-113470787D01*
X141004210Y-113470790D01*
X141291325Y-113662633D01*
X141333675Y-113671057D01*
X141622153Y-113728440D01*
X141665910Y-113796441D01*
X141878110Y-113941431D01*
X142130000Y-113992440D01*
X144880000Y-113992440D01*
X145115317Y-113948162D01*
X145331441Y-113809090D01*
X145385481Y-113730000D01*
X147373156Y-113730000D01*
X147415910Y-113796441D01*
X147628110Y-113941431D01*
X147861396Y-113988673D01*
X147803467Y-114128181D01*
X147803143Y-114500147D01*
X147945188Y-114843923D01*
X148207978Y-115107172D01*
X148523490Y-115238185D01*
X148495000Y-115381411D01*
X148495000Y-115697560D01*
X147880000Y-115697560D01*
X147644683Y-115741838D01*
X147428559Y-115880910D01*
X147289110Y-116085000D01*
X145467279Y-116085000D01*
X145344090Y-115893559D01*
X145131890Y-115748569D01*
X144880000Y-115697560D01*
X142130000Y-115697560D01*
X141894683Y-115741838D01*
X141678559Y-115880910D01*
X141533569Y-116093110D01*
X141482560Y-116345000D01*
X141482560Y-117345000D01*
X141526838Y-117580317D01*
X141557903Y-117628594D01*
X132663635Y-117628594D01*
X132159252Y-117124210D01*
X131872137Y-116932367D01*
X131815946Y-116921190D01*
X131533462Y-116864999D01*
X131533457Y-116865000D01*
X128266665Y-116865000D01*
X128266665Y-115794229D01*
X128255520Y-115735000D01*
X130100818Y-115735000D01*
X130100823Y-115735001D01*
X130383307Y-115678810D01*
X130439498Y-115667633D01*
X130726613Y-115475790D01*
X130726614Y-115475789D01*
X130976545Y-115225857D01*
X130976548Y-115225855D01*
X131059592Y-115142810D01*
X131179700Y-115093183D01*
X131382560Y-114890677D01*
X131382560Y-115245000D01*
X131426838Y-115480317D01*
X131565910Y-115696441D01*
X131778110Y-115841431D01*
X132030000Y-115892440D01*
X132430000Y-115892440D01*
X132665317Y-115848162D01*
X132689406Y-115832661D01*
X132803691Y-115880000D01*
X132871250Y-115880000D01*
X133030000Y-115721250D01*
X133030000Y-115479266D01*
X133077440Y-115245000D01*
X133077440Y-115154961D01*
X133132872Y-115072000D01*
X133230000Y-115072000D01*
X133230000Y-115721250D01*
X133388750Y-115880000D01*
X133456309Y-115880000D01*
X133689698Y-115783327D01*
X133868327Y-115604699D01*
X133965000Y-115371310D01*
X133965000Y-115230750D01*
X133806250Y-115072000D01*
X133230000Y-115072000D01*
X133132872Y-115072000D01*
X133207148Y-114960839D01*
X133235561Y-114818000D01*
X133806250Y-114818000D01*
X133965000Y-114659250D01*
X133965000Y-114518690D01*
X133868327Y-114285301D01*
X133689698Y-114106673D01*
X133456309Y-114010000D01*
X133388750Y-114010000D01*
X133265000Y-114133750D01*
X133265000Y-113942440D01*
X133880000Y-113942440D01*
X134115317Y-113898162D01*
X134331441Y-113759090D01*
X134476431Y-113546890D01*
X134527440Y-113295000D01*
X134527440Y-112295000D01*
X134483162Y-112059683D01*
X134344090Y-111843559D01*
X134131890Y-111698569D01*
X133960866Y-111663936D01*
X140729803Y-104894999D01*
X141403422Y-104894999D01*
X140199210Y-106099210D01*
X140199210Y-106099210D01*
G37*
X140199210Y-106099210D02*
X140007367Y-106386325D01*
X140007367Y-106386326D01*
X139939999Y-106725000D01*
X139940000Y-106725005D01*
X139940000Y-108765000D01*
X139831822Y-108765000D01*
X139711799Y-108715162D01*
X139339833Y-108714838D01*
X138996057Y-108856883D01*
X138732808Y-109119673D01*
X138590162Y-109463201D01*
X138589838Y-109835167D01*
X138731883Y-110178943D01*
X138994673Y-110442192D01*
X139338201Y-110584838D01*
X139710167Y-110585162D01*
X139831569Y-110535000D01*
X139940000Y-110535000D01*
X139940000Y-112039995D01*
X139939999Y-112040000D01*
X139990723Y-112295000D01*
X140007367Y-112378675D01*
X140142493Y-112580906D01*
X140199210Y-112665790D01*
X141004208Y-113470787D01*
X141004210Y-113470790D01*
X141291325Y-113662633D01*
X141333675Y-113671057D01*
X141622153Y-113728440D01*
X141665910Y-113796441D01*
X141878110Y-113941431D01*
X142130000Y-113992440D01*
X144880000Y-113992440D01*
X145115317Y-113948162D01*
X145331441Y-113809090D01*
X145385481Y-113730000D01*
X147373156Y-113730000D01*
X147415910Y-113796441D01*
X147628110Y-113941431D01*
X147861396Y-113988673D01*
X147803467Y-114128181D01*
X147803143Y-114500147D01*
X147945188Y-114843923D01*
X148207978Y-115107172D01*
X148523490Y-115238185D01*
X148495000Y-115381411D01*
X148495000Y-115697560D01*
X147880000Y-115697560D01*
X147644683Y-115741838D01*
X147428559Y-115880910D01*
X147289110Y-116085000D01*
X145467279Y-116085000D01*
X145344090Y-115893559D01*
X145131890Y-115748569D01*
X144880000Y-115697560D01*
X142130000Y-115697560D01*
X141894683Y-115741838D01*
X141678559Y-115880910D01*
X141533569Y-116093110D01*
X141482560Y-116345000D01*
X141482560Y-117345000D01*
X141526838Y-117580317D01*
X141557903Y-117628594D01*
X132663635Y-117628594D01*
X132159252Y-117124210D01*
X131872137Y-116932367D01*
X131815946Y-116921190D01*
X131533462Y-116864999D01*
X131533457Y-116865000D01*
X128266665Y-116865000D01*
X128266665Y-115794229D01*
X128255520Y-115735000D01*
X130100818Y-115735000D01*
X130100823Y-115735001D01*
X130383307Y-115678810D01*
X130439498Y-115667633D01*
X130726613Y-115475790D01*
X130726614Y-115475789D01*
X130976545Y-115225857D01*
X130976548Y-115225855D01*
X131059592Y-115142810D01*
X131179700Y-115093183D01*
X131382560Y-114890677D01*
X131382560Y-115245000D01*
X131426838Y-115480317D01*
X131565910Y-115696441D01*
X131778110Y-115841431D01*
X132030000Y-115892440D01*
X132430000Y-115892440D01*
X132665317Y-115848162D01*
X132689406Y-115832661D01*
X132803691Y-115880000D01*
X132871250Y-115880000D01*
X133030000Y-115721250D01*
X133030000Y-115479266D01*
X133077440Y-115245000D01*
X133077440Y-115154961D01*
X133132872Y-115072000D01*
X133230000Y-115072000D01*
X133230000Y-115721250D01*
X133388750Y-115880000D01*
X133456309Y-115880000D01*
X133689698Y-115783327D01*
X133868327Y-115604699D01*
X133965000Y-115371310D01*
X133965000Y-115230750D01*
X133806250Y-115072000D01*
X133230000Y-115072000D01*
X133132872Y-115072000D01*
X133207148Y-114960839D01*
X133235561Y-114818000D01*
X133806250Y-114818000D01*
X133965000Y-114659250D01*
X133965000Y-114518690D01*
X133868327Y-114285301D01*
X133689698Y-114106673D01*
X133456309Y-114010000D01*
X133388750Y-114010000D01*
X133265000Y-114133750D01*
X133265000Y-113942440D01*
X133880000Y-113942440D01*
X134115317Y-113898162D01*
X134331441Y-113759090D01*
X134476431Y-113546890D01*
X134527440Y-113295000D01*
X134527440Y-112295000D01*
X134483162Y-112059683D01*
X134344090Y-111843559D01*
X134131890Y-111698569D01*
X133960866Y-111663936D01*
X140729803Y-104894999D01*
X141403422Y-104894999D01*
X140199210Y-106099210D01*
G36*
X150819673Y-114992192D02*
X151163201Y-115134838D01*
X151535167Y-115135162D01*
X151656569Y-115085000D01*
X151708420Y-115085000D01*
X152596777Y-115973356D01*
X152596777Y-116010527D01*
X152521250Y-115935000D01*
X152453691Y-115935000D01*
X152342717Y-115980967D01*
X152331890Y-115973569D01*
X152080000Y-115922560D01*
X151680000Y-115922560D01*
X151444683Y-115966838D01*
X151261054Y-116085000D01*
X151217279Y-116085000D01*
X151094090Y-115893559D01*
X150881890Y-115748569D01*
X150630000Y-115697560D01*
X150015000Y-115697560D01*
X150015000Y-115696213D01*
X150769391Y-114941822D01*
X150819673Y-114992192D01*
X150819673Y-114992192D01*
G37*
X150819673Y-114992192D02*
X151163201Y-115134838D01*
X151535167Y-115135162D01*
X151656569Y-115085000D01*
X151708420Y-115085000D01*
X152596777Y-115973356D01*
X152596777Y-116010527D01*
X152521250Y-115935000D01*
X152453691Y-115935000D01*
X152342717Y-115980967D01*
X152331890Y-115973569D01*
X152080000Y-115922560D01*
X151680000Y-115922560D01*
X151444683Y-115966838D01*
X151261054Y-116085000D01*
X151217279Y-116085000D01*
X151094090Y-115893559D01*
X150881890Y-115748569D01*
X150630000Y-115697560D01*
X150015000Y-115697560D01*
X150015000Y-115696213D01*
X150769391Y-114941822D01*
X150819673Y-114992192D01*
G36*
X151964972Y-106796209D02*
X152107017Y-107139985D01*
X152369807Y-107403234D01*
X152713335Y-107545880D01*
X153085301Y-107546204D01*
X153387941Y-107421156D01*
X152920633Y-107888464D01*
X152755886Y-108135026D01*
X152698034Y-108425865D01*
X152698034Y-111245225D01*
X152470615Y-111199988D01*
X150802281Y-111199988D01*
X150561815Y-111100138D01*
X150459298Y-111100048D01*
X150356250Y-110997000D01*
X149780000Y-110997000D01*
X149780000Y-111017000D01*
X149627440Y-111017000D01*
X149627440Y-110723000D01*
X149780000Y-110723000D01*
X149780000Y-110743000D01*
X150356250Y-110743000D01*
X150515000Y-110584250D01*
X150515000Y-110443690D01*
X150418327Y-110210301D01*
X150275465Y-110067440D01*
X150630000Y-110067440D01*
X150865317Y-110023162D01*
X151081441Y-109884090D01*
X151226431Y-109671890D01*
X151277440Y-109420000D01*
X151277440Y-108420000D01*
X151233162Y-108184683D01*
X151094090Y-107968559D01*
X150881890Y-107823569D01*
X150710866Y-107788936D01*
X151797426Y-106702376D01*
X151962173Y-106455814D01*
X151965282Y-106440184D01*
X151964972Y-106796209D01*
X151964972Y-106796209D01*
G37*
X151964972Y-106796209D02*
X152107017Y-107139985D01*
X152369807Y-107403234D01*
X152713335Y-107545880D01*
X153085301Y-107546204D01*
X153387941Y-107421156D01*
X152920633Y-107888464D01*
X152755886Y-108135026D01*
X152698034Y-108425865D01*
X152698034Y-111245225D01*
X152470615Y-111199988D01*
X150802281Y-111199988D01*
X150561815Y-111100138D01*
X150459298Y-111100048D01*
X150356250Y-110997000D01*
X149780000Y-110997000D01*
X149780000Y-111017000D01*
X149627440Y-111017000D01*
X149627440Y-110723000D01*
X149780000Y-110723000D01*
X149780000Y-110743000D01*
X150356250Y-110743000D01*
X150515000Y-110584250D01*
X150515000Y-110443690D01*
X150418327Y-110210301D01*
X150275465Y-110067440D01*
X150630000Y-110067440D01*
X150865317Y-110023162D01*
X151081441Y-109884090D01*
X151226431Y-109671890D01*
X151277440Y-109420000D01*
X151277440Y-108420000D01*
X151233162Y-108184683D01*
X151094090Y-107968559D01*
X150881890Y-107823569D01*
X150710866Y-107788936D01*
X151797426Y-106702376D01*
X151962173Y-106455814D01*
X151965282Y-106440184D01*
X151964972Y-106796209D01*
G36*
X154953342Y-110793668D02*
X154883655Y-110689374D01*
X154796982Y-110602701D01*
X154697551Y-110362061D01*
X154455841Y-110119928D01*
X154218034Y-110021182D01*
X154218034Y-108740667D01*
X154812403Y-108146298D01*
X154953342Y-107935368D01*
X154953342Y-110793668D01*
X154953342Y-110793668D01*
G37*
X154953342Y-110793668D02*
X154883655Y-110689374D01*
X154796982Y-110602701D01*
X154697551Y-110362061D01*
X154455841Y-110119928D01*
X154218034Y-110021182D01*
X154218034Y-108740667D01*
X154812403Y-108146298D01*
X154953342Y-107935368D01*
X154953342Y-110793668D01*
G36*
X165476407Y-91980787D02*
X165476409Y-91980790D01*
X165484850Y-91986430D01*
X166219209Y-92720788D01*
X166219211Y-92720791D01*
X166465991Y-92885683D01*
X166506326Y-92912634D01*
X166845001Y-92980001D01*
X167203880Y-92980001D01*
X167030206Y-93398255D01*
X167029794Y-93869677D01*
X167209820Y-94305372D01*
X167542875Y-94639009D01*
X167978255Y-94819794D01*
X168449677Y-94820206D01*
X168715000Y-94710576D01*
X168715000Y-95099519D01*
X168451745Y-94990206D01*
X167980323Y-94989794D01*
X167544628Y-95169820D01*
X167210991Y-95502875D01*
X167030206Y-95938255D01*
X167029794Y-96409677D01*
X167209820Y-96845372D01*
X167542875Y-97179009D01*
X167978255Y-97359794D01*
X168449677Y-97360206D01*
X168715000Y-97250576D01*
X168715000Y-97559995D01*
X168714999Y-97560000D01*
X168730620Y-97638528D01*
X168371999Y-97517028D01*
X167901604Y-97548137D01*
X167611508Y-97668299D01*
X167568172Y-97888567D01*
X168215000Y-98535395D01*
X168229143Y-98521253D01*
X168408748Y-98700858D01*
X168394605Y-98715000D01*
X168408748Y-98729143D01*
X168229143Y-98908748D01*
X168215000Y-98894605D01*
X168200858Y-98908748D01*
X168021253Y-98729143D01*
X168035395Y-98715000D01*
X167388567Y-98068172D01*
X167168299Y-98111508D01*
X167017028Y-98558001D01*
X167048137Y-99028396D01*
X167168299Y-99318492D01*
X167209357Y-99326570D01*
X167056477Y-99428721D01*
X166762638Y-99722560D01*
X166620000Y-99722560D01*
X166384683Y-99766838D01*
X166168559Y-99905910D01*
X166023569Y-100118110D01*
X165980815Y-100329235D01*
X165565790Y-99914210D01*
X165517379Y-99881863D01*
X165278675Y-99722367D01*
X165222484Y-99711190D01*
X164940000Y-99654999D01*
X164939995Y-99655000D01*
X163198002Y-99655000D01*
X163173661Y-99532633D01*
X163167633Y-99502326D01*
X162975790Y-99215211D01*
X162975787Y-99215209D01*
X162304789Y-98544210D01*
X162215700Y-98484683D01*
X162017674Y-98352367D01*
X161961483Y-98341190D01*
X161678999Y-98284999D01*
X161678994Y-98285000D01*
X160005836Y-98285000D01*
X165100787Y-93190048D01*
X165100790Y-93190046D01*
X165257842Y-92955000D01*
X165292634Y-92902930D01*
X165360001Y-92564256D01*
X165360000Y-92564251D01*
X165360000Y-92446814D01*
X165409838Y-92326791D01*
X165410162Y-91954825D01*
X165381798Y-91886178D01*
X165476407Y-91980787D01*
X165476407Y-91980787D01*
G37*
X165476407Y-91980787D02*
X165476409Y-91980790D01*
X165484850Y-91986430D01*
X166219209Y-92720788D01*
X166219211Y-92720791D01*
X166465991Y-92885683D01*
X166506326Y-92912634D01*
X166845001Y-92980001D01*
X167203880Y-92980001D01*
X167030206Y-93398255D01*
X167029794Y-93869677D01*
X167209820Y-94305372D01*
X167542875Y-94639009D01*
X167978255Y-94819794D01*
X168449677Y-94820206D01*
X168715000Y-94710576D01*
X168715000Y-95099519D01*
X168451745Y-94990206D01*
X167980323Y-94989794D01*
X167544628Y-95169820D01*
X167210991Y-95502875D01*
X167030206Y-95938255D01*
X167029794Y-96409677D01*
X167209820Y-96845372D01*
X167542875Y-97179009D01*
X167978255Y-97359794D01*
X168449677Y-97360206D01*
X168715000Y-97250576D01*
X168715000Y-97559995D01*
X168714999Y-97560000D01*
X168730620Y-97638528D01*
X168371999Y-97517028D01*
X167901604Y-97548137D01*
X167611508Y-97668299D01*
X167568172Y-97888567D01*
X168215000Y-98535395D01*
X168229143Y-98521253D01*
X168408748Y-98700858D01*
X168394605Y-98715000D01*
X168408748Y-98729143D01*
X168229143Y-98908748D01*
X168215000Y-98894605D01*
X168200858Y-98908748D01*
X168021253Y-98729143D01*
X168035395Y-98715000D01*
X167388567Y-98068172D01*
X167168299Y-98111508D01*
X167017028Y-98558001D01*
X167048137Y-99028396D01*
X167168299Y-99318492D01*
X167209357Y-99326570D01*
X167056477Y-99428721D01*
X166762638Y-99722560D01*
X166620000Y-99722560D01*
X166384683Y-99766838D01*
X166168559Y-99905910D01*
X166023569Y-100118110D01*
X165980815Y-100329235D01*
X165565790Y-99914210D01*
X165517379Y-99881863D01*
X165278675Y-99722367D01*
X165222484Y-99711190D01*
X164940000Y-99654999D01*
X164939995Y-99655000D01*
X163198002Y-99655000D01*
X163173661Y-99532633D01*
X163167633Y-99502326D01*
X162975790Y-99215211D01*
X162975787Y-99215209D01*
X162304789Y-98544210D01*
X162215700Y-98484683D01*
X162017674Y-98352367D01*
X161961483Y-98341190D01*
X161678999Y-98284999D01*
X161678994Y-98285000D01*
X160005836Y-98285000D01*
X165100787Y-93190048D01*
X165100790Y-93190046D01*
X165257842Y-92955000D01*
X165292634Y-92902930D01*
X165360001Y-92564256D01*
X165360000Y-92564251D01*
X165360000Y-92446814D01*
X165409838Y-92326791D01*
X165410162Y-91954825D01*
X165381798Y-91886178D01*
X165476407Y-91980787D01*
G36*
X163503746Y-89941357D02*
X163503422Y-90313323D01*
X163645467Y-90657099D01*
X163908257Y-90920348D01*
X164251785Y-91062994D01*
X164558881Y-91063261D01*
X164728449Y-91232830D01*
X164661799Y-91205154D01*
X164289833Y-91204830D01*
X163946057Y-91346875D01*
X163682808Y-91609665D01*
X163540162Y-91953193D01*
X163539905Y-92247772D01*
X161174999Y-94612677D01*
X161096500Y-94422695D01*
X160854790Y-94180562D01*
X160538818Y-94049359D01*
X160196689Y-94049060D01*
X159880489Y-94179712D01*
X159638356Y-94421422D01*
X159507153Y-94737394D01*
X159506854Y-95079523D01*
X159607003Y-95321901D01*
X159607003Y-95349231D01*
X159322360Y-95633874D01*
X159062307Y-95525890D01*
X158897268Y-95525746D01*
X158924958Y-95386539D01*
X158924958Y-94233618D01*
X159024808Y-93993152D01*
X159025107Y-93651023D01*
X158894781Y-93335612D01*
X159209119Y-93205729D01*
X159451252Y-92964019D01*
X159582455Y-92648047D01*
X159582754Y-92305918D01*
X159452102Y-91989718D01*
X159210392Y-91747585D01*
X158894420Y-91616382D01*
X158552291Y-91616083D01*
X158309913Y-91716232D01*
X157894822Y-91716232D01*
X159675999Y-89935055D01*
X163506363Y-89935055D01*
X163503746Y-89941357D01*
X163503746Y-89941357D01*
G37*
X163503746Y-89941357D02*
X163503422Y-90313323D01*
X163645467Y-90657099D01*
X163908257Y-90920348D01*
X164251785Y-91062994D01*
X164558881Y-91063261D01*
X164728449Y-91232830D01*
X164661799Y-91205154D01*
X164289833Y-91204830D01*
X163946057Y-91346875D01*
X163682808Y-91609665D01*
X163540162Y-91953193D01*
X163539905Y-92247772D01*
X161174999Y-94612677D01*
X161096500Y-94422695D01*
X160854790Y-94180562D01*
X160538818Y-94049359D01*
X160196689Y-94049060D01*
X159880489Y-94179712D01*
X159638356Y-94421422D01*
X159507153Y-94737394D01*
X159506854Y-95079523D01*
X159607003Y-95321901D01*
X159607003Y-95349231D01*
X159322360Y-95633874D01*
X159062307Y-95525890D01*
X158897268Y-95525746D01*
X158924958Y-95386539D01*
X158924958Y-94233618D01*
X159024808Y-93993152D01*
X159025107Y-93651023D01*
X158894781Y-93335612D01*
X159209119Y-93205729D01*
X159451252Y-92964019D01*
X159582455Y-92648047D01*
X159582754Y-92305918D01*
X159452102Y-91989718D01*
X159210392Y-91747585D01*
X158894420Y-91616382D01*
X158552291Y-91616083D01*
X158309913Y-91716232D01*
X157894822Y-91716232D01*
X159675999Y-89935055D01*
X163506363Y-89935055D01*
X163503746Y-89941357D01*
G36*
X166402713Y-83314292D02*
X166402715Y-83314295D01*
X166659859Y-83486112D01*
X166566064Y-83579743D01*
X166395195Y-83991241D01*
X166394806Y-84436804D01*
X166564957Y-84848600D01*
X166879743Y-85163936D01*
X167291241Y-85334805D01*
X167736804Y-85335194D01*
X168148600Y-85165043D01*
X168463936Y-84850257D01*
X168578156Y-84575186D01*
X168640000Y-84637030D01*
X168640000Y-85668125D01*
X168590162Y-85788148D01*
X168589838Y-86160114D01*
X168731883Y-86503890D01*
X168842810Y-86615011D01*
X162564813Y-86615011D01*
X160092159Y-84142357D01*
X160462401Y-83772115D01*
X160627148Y-83525553D01*
X160685000Y-83234714D01*
X160685000Y-83079919D01*
X160690750Y-83082307D01*
X161062716Y-83082631D01*
X161406492Y-82940586D01*
X161669741Y-82677796D01*
X161812387Y-82334268D01*
X161812711Y-81962302D01*
X161785000Y-81895236D01*
X161785000Y-78696580D01*
X166402713Y-83314292D01*
X166402713Y-83314292D01*
G37*
X166402713Y-83314292D02*
X166402715Y-83314295D01*
X166659859Y-83486112D01*
X166566064Y-83579743D01*
X166395195Y-83991241D01*
X166394806Y-84436804D01*
X166564957Y-84848600D01*
X166879743Y-85163936D01*
X167291241Y-85334805D01*
X167736804Y-85335194D01*
X168148600Y-85165043D01*
X168463936Y-84850257D01*
X168578156Y-84575186D01*
X168640000Y-84637030D01*
X168640000Y-85668125D01*
X168590162Y-85788148D01*
X168589838Y-86160114D01*
X168731883Y-86503890D01*
X168842810Y-86615011D01*
X162564813Y-86615011D01*
X160092159Y-84142357D01*
X160462401Y-83772115D01*
X160627148Y-83525553D01*
X160685000Y-83234714D01*
X160685000Y-83079919D01*
X160690750Y-83082307D01*
X161062716Y-83082631D01*
X161406492Y-82940586D01*
X161669741Y-82677796D01*
X161812387Y-82334268D01*
X161812711Y-81962302D01*
X161785000Y-81895236D01*
X161785000Y-78696580D01*
X166402713Y-83314292D01*
G36*
X125207599Y-75282401D02*
X125454160Y-75447148D01*
X125472045Y-75450705D01*
X125463569Y-75463110D01*
X125417606Y-75690080D01*
X125139833Y-75689838D01*
X124796057Y-75831883D01*
X124532808Y-76094673D01*
X124390162Y-76438201D01*
X124389838Y-76810167D01*
X124531883Y-77153943D01*
X124794673Y-77417192D01*
X125138201Y-77559838D01*
X125435653Y-77560097D01*
X125425000Y-77570750D01*
X125425000Y-77711310D01*
X125521673Y-77944699D01*
X125700302Y-78123327D01*
X125933691Y-78220000D01*
X126549250Y-78220000D01*
X126708000Y-78061250D01*
X126708000Y-77412000D01*
X126962000Y-77412000D01*
X126962000Y-78061250D01*
X127120750Y-78220000D01*
X127736309Y-78220000D01*
X127969698Y-78123327D01*
X128148327Y-77944699D01*
X128245000Y-77711310D01*
X128245000Y-77570750D01*
X128086250Y-77412000D01*
X126962000Y-77412000D01*
X126708000Y-77412000D01*
X126688000Y-77412000D01*
X126688000Y-77158000D01*
X126708000Y-77158000D01*
X126708000Y-77138000D01*
X126962000Y-77138000D01*
X126962000Y-77158000D01*
X128086250Y-77158000D01*
X128088968Y-77155282D01*
X128157213Y-77223647D01*
X128473185Y-77354850D01*
X128815314Y-77355149D01*
X129127560Y-77226131D01*
X129127560Y-77865000D01*
X129171838Y-78100317D01*
X129310910Y-78316441D01*
X129523110Y-78461431D01*
X129775000Y-78512440D01*
X130419327Y-78512440D01*
X130446072Y-78646890D01*
X130457367Y-78703675D01*
X130508220Y-78779782D01*
X124956361Y-78779782D01*
X124267744Y-78091164D01*
X124218117Y-77971057D01*
X123955327Y-77707808D01*
X123611799Y-77565162D01*
X123239833Y-77564838D01*
X122896057Y-77706883D01*
X122816720Y-77786082D01*
X122857440Y-77585000D01*
X122857440Y-76985000D01*
X122813162Y-76749683D01*
X122749322Y-76650472D01*
X122806431Y-76566890D01*
X122857440Y-76315000D01*
X122857440Y-75715000D01*
X122813162Y-75479683D01*
X122749322Y-75380472D01*
X122806431Y-75296890D01*
X122857440Y-75045000D01*
X122857440Y-74445000D01*
X122855551Y-74434962D01*
X123085167Y-74435162D01*
X123428943Y-74293117D01*
X123692192Y-74030327D01*
X123769455Y-73844257D01*
X125207599Y-75282401D01*
X125207599Y-75282401D01*
G37*
X125207599Y-75282401D02*
X125454160Y-75447148D01*
X125472045Y-75450705D01*
X125463569Y-75463110D01*
X125417606Y-75690080D01*
X125139833Y-75689838D01*
X124796057Y-75831883D01*
X124532808Y-76094673D01*
X124390162Y-76438201D01*
X124389838Y-76810167D01*
X124531883Y-77153943D01*
X124794673Y-77417192D01*
X125138201Y-77559838D01*
X125435653Y-77560097D01*
X125425000Y-77570750D01*
X125425000Y-77711310D01*
X125521673Y-77944699D01*
X125700302Y-78123327D01*
X125933691Y-78220000D01*
X126549250Y-78220000D01*
X126708000Y-78061250D01*
X126708000Y-77412000D01*
X126962000Y-77412000D01*
X126962000Y-78061250D01*
X127120750Y-78220000D01*
X127736309Y-78220000D01*
X127969698Y-78123327D01*
X128148327Y-77944699D01*
X128245000Y-77711310D01*
X128245000Y-77570750D01*
X128086250Y-77412000D01*
X126962000Y-77412000D01*
X126708000Y-77412000D01*
X126688000Y-77412000D01*
X126688000Y-77158000D01*
X126708000Y-77158000D01*
X126708000Y-77138000D01*
X126962000Y-77138000D01*
X126962000Y-77158000D01*
X128086250Y-77158000D01*
X128088968Y-77155282D01*
X128157213Y-77223647D01*
X128473185Y-77354850D01*
X128815314Y-77355149D01*
X129127560Y-77226131D01*
X129127560Y-77865000D01*
X129171838Y-78100317D01*
X129310910Y-78316441D01*
X129523110Y-78461431D01*
X129775000Y-78512440D01*
X130419327Y-78512440D01*
X130446072Y-78646890D01*
X130457367Y-78703675D01*
X130508220Y-78779782D01*
X124956361Y-78779782D01*
X124267744Y-78091164D01*
X124218117Y-77971057D01*
X123955327Y-77707808D01*
X123611799Y-77565162D01*
X123239833Y-77564838D01*
X122896057Y-77706883D01*
X122816720Y-77786082D01*
X122857440Y-77585000D01*
X122857440Y-76985000D01*
X122813162Y-76749683D01*
X122749322Y-76650472D01*
X122806431Y-76566890D01*
X122857440Y-76315000D01*
X122857440Y-75715000D01*
X122813162Y-75479683D01*
X122749322Y-75380472D01*
X122806431Y-75296890D01*
X122857440Y-75045000D01*
X122857440Y-74445000D01*
X122855551Y-74434962D01*
X123085167Y-74435162D01*
X123428943Y-74293117D01*
X123692192Y-74030327D01*
X123769455Y-73844257D01*
X125207599Y-75282401D01*
M02*
